<?xml version="1.0" encoding="UTF-8" standalone="no"?>
<!-- Created with Inkscape (http://www.inkscape.org/) -->

<svg
   xmlns:dc="http://purl.org/dc/elements/1.1/"
   xmlns:cc="http://creativecommons.org/ns#"
   xmlns:rdf="http://www.w3.org/1999/02/22-rdf-syntax-ns#"
   xmlns:svg="http://www.w3.org/2000/svg"
   xmlns="http://www.w3.org/2000/svg"
   xmlns:xlink="http://www.w3.org/1999/xlink"
   xmlns:sodipodi="http://sodipodi.sourceforge.net/DTD/sodipodi-0.dtd"
   xmlns:inkscape="http://www.inkscape.org/namespaces/inkscape"
   width="40.227081"
   height="40.227081"
   viewBox="0 0 10.643415 10.643415"
   version="1.1"
   id="svg986"
   inkscape:version="0.92.4 (5da689c313, 2019-01-14)"
   sodipodi:docname="marker.svg">
  <defs
     id="defs980">
    <linearGradient
       xlink:href="#a"
       id="c"
       gradientUnits="userSpaceOnUse"
       gradientTransform="matrix(0.26458333,0,0,0.26458333,-9.7299403,-13.856603)"
       x1="445.30099"
       y1="541.28601"
       x2="445.30099"
       y2="503.72" />
    <linearGradient
       id="a">
      <stop
         offset="0"
         stop-color="#126fc6"
         id="stop894" />
      <stop
         offset="1"
         stop-color="#4c9cd1"
         id="stop896" />
    </linearGradient>
    <linearGradient
       xlink:href="#b"
       id="d"
       gradientUnits="userSpaceOnUse"
       gradientTransform="matrix(0.26458333,0,0,0.26458333,14.500604,-13.856873)"
       x1="351.74799"
       y1="522.77399"
       x2="351.74799"
       y2="503.72101" />
    <linearGradient
       id="b">
      <stop
         offset="0"
         stop-color="#2e6c97"
         id="stop889" />
      <stop
         offset="1"
         stop-color="#3883b7"
         id="stop891" />
    </linearGradient>
    <linearGradient
       xlink:href="#a"
       id="c-9"
       gradientUnits="userSpaceOnUse"
       gradientTransform="matrix(0.26458333,0,0,0.26458333,-4.9674444,-13.856602)"
       x1="445.30099"
       y1="541.28601"
       x2="445.30099"
       y2="503.72" />
    <linearGradient
       xlink:href="#b"
       id="d-4"
       gradientUnits="userSpaceOnUse"
       gradientTransform="matrix(0.26458333,0,0,0.26458333,19.263099,-13.856872)"
       x1="351.74799"
       y1="522.77399"
       x2="351.74799"
       y2="503.72101" />
    <linearGradient
       inkscape:collect="always"
       xlink:href="#a"
       id="linearGradient1619"
       gradientUnits="userSpaceOnUse"
       gradientTransform="matrix(0.26458333,0,0,0.26458333,-5.6836958,-13.856603)"
       x1="445.30099"
       y1="541.28601"
       x2="445.30099"
       y2="503.72" />
    <linearGradient
       inkscape:collect="always"
       xlink:href="#b"
       id="linearGradient1621"
       gradientUnits="userSpaceOnUse"
       gradientTransform="matrix(0.26458333,0,0,0.26458333,18.54685,-13.856873)"
       x1="351.74799"
       y1="522.77399"
       x2="351.74799"
       y2="503.72101" />
  </defs>
  <sodipodi:namedview
     id="base"
     pagecolor="#ffffff"
     bordercolor="#666666"
     borderopacity="1.0"
     inkscape:pageopacity="0.0"
     inkscape:pageshadow="2"
     inkscape:zoom="11.313709"
     inkscape:cx="-11.438537"
     inkscape:cy="15.614913"
     inkscape:document-units="mm"
     inkscape:current-layer="layer1"
     showgrid="false"
     fit-margin-top="0"
     fit-margin-left="0"
     fit-margin-right="0"
     fit-margin-bottom="0"
     units="px"
     inkscape:window-width="1920"
     inkscape:window-height="986"
     inkscape:window-x="-11"
     inkscape:window-y="-11"
     inkscape:window-maximized="1" />
  <metadata
     id="metadata983">
    <rdf:RDF>
      <cc:Work
         rdf:about="">
        <dc:format>image/svg+xml</dc:format>
        <dc:type
           rdf:resource="http://purl.org/dc/dcmitype/StillImage" />
        <dc:title></dc:title>
      </cc:Work>
    </rdf:RDF>
  </metadata>
  <g
     inkscape:label="Layer 1"
     inkscape:groupmode="layer"
     id="layer1"
     transform="translate(-104.78067,-119.32115)">
    <path
       inkscape:connector-curvature="0"
       style="fill:url(#linearGradient1619);stroke:url(#linearGradient1621);stroke-width:0.29104167;stroke-linecap:round;fill-opacity:1;opacity:0.5"
       id="path1617"
       d="m 112.15903,119.46667 c -1.7391,0 -3.18664,1.50574 -3.18664,3.13954 0,0.73502 0.41381,1.669 0.71279,2.31405 l 2.46221,4.72863 2.45057,-4.72863 c 0.29898,-0.64505 0.72443,-1.5322 0.72443,-2.31405 0,-1.6338 -1.42425,-3.13954 -3.16336,-3.13954 z m 0,1.89309 c 0.68369,0.005 1.23799,0.56145 1.23799,1.24619 0,0.68474 -0.5543,1.23375 -1.23799,1.23798 -0.68368,-0.005 -1.23798,-0.55297 -1.23798,-1.23798 0,-0.68474 0.5543,-1.24169 1.23798,-1.24619 z" />
    <path
       d="m 108.11283,119.46667 c -1.7391,0 -3.18664,1.50574 -3.18664,3.13954 0,0.73502 0.41381,1.669 0.71279,2.31405 l 2.46221,4.72863 2.45057,-4.72863 c 0.29898,-0.64505 0.72443,-1.5322 0.72443,-2.31405 0,-1.6338 -1.42425,-3.13954 -3.16336,-3.13954 z m 0,1.89309 c 0.68369,0.005 1.23799,0.56145 1.23799,1.24619 0,0.68474 -0.5543,1.23375 -1.23799,1.23798 -0.68368,-0.005 -1.23798,-0.55297 -1.23798,-1.23798 0,-0.68474 0.5543,-1.24169 1.23798,-1.24619 z"
       id="path931"
       style="fill:url(#c);stroke:url(#d);stroke-width:0.29104167;stroke-linecap:round"
       inkscape:connector-curvature="0" />
  </g>
</svg>
