<svg
    xmlns="http://www.w3.org/2000/svg"
    viewBox="0 0 500 500"
    id="vector">
    <defs>
        <clipPath id="clip_path_1">
            <path d="M 250 9.259 C 181.658 9.259 120.009 37.797 76.181 83.541 C 34.768 126.781 9.259 185.393 9.259 250 C 9.259 382.957 117.052 490.74 250 490.74 C 337.764 490.74 414.532 443.758 456.615 373.607 C 478.28 337.475 490.74 295.211 490.74 250 C 490.74 117.043 382.957 9.259 250 9.259 Z"/>
        </clipPath>
        <clipPath id="clip_path_2">
            <path d="M 250 9.259 C 181.658 9.259 120.009 37.797 76.181 83.541 C 34.768 126.781 9.259 185.393 9.259 250 C 9.259 382.957 117.052 490.74 250 490.74 C 337.764 490.74 414.532 443.758 456.615 373.607 C 478.28 337.475 490.74 295.211 490.74 250 C 490.74 117.043 382.957 9.259 250 9.259 Z"/>
        </clipPath>
        <clipPath id="clip_path_3">
            <path d="M 250 9.259 C 181.658 9.259 120.009 37.797 76.181 83.541 C 34.768 126.781 9.259 185.393 9.259 250 C 9.259 382.957 117.052 490.74 250 490.74 C 337.764 490.74 414.532 443.758 456.615 373.607 C 478.28 337.475 490.74 295.211 490.74 250 C 490.74 117.043 382.957 9.259 250 9.259 Z"/>
        </clipPath>
    </defs>
    <path
        id="path"
        d="M 250 9.259 C 181.658 9.259 120.009 37.797 76.181 83.541 C 34.768 126.781 9.259 185.393 9.259 250 C 9.259 382.957 117.052 490.74 250 490.74 C 337.764 490.74 414.532 443.758 456.615 373.607 C 478.28 337.475 490.74 295.211 490.74 250 C 490.74 117.043 382.957 9.259 250 9.259 Z"
        fill="#3393d0"/>
    <path
        id="path_1"
        clip-path="url(#clip_path_1)"
        d="M 303.62 11.547 C 303.62 11.547 166.178 47.345 140.398 159.017 C 114.637 270.688 101.752 383.789 153.284 436.777 C 204.824 489.746 295.03 486.888 295.03 486.888 C 295.03 486.888 3.201 654.405 -50.013 476.87 C -103.227 299.334 -92.973 -98.696 303.62 11.547 Z"
        fill="#0083c4"/>
    <path
        id="path_2"
        clip-path="url(#clip_path_2)"
        d="M 135.61 181.95 L 100.55 190.571 L 91.354 154.362 L 149.116 137.119 L 179.291 137.119 L 179.291 339.718 L 135.61 339.718 L 135.61 181.95 Z"
        fill="#ffffff"/>
    <path
        id="path_3"
        clip-path="url(#clip_path_3)"
        d="M 310.873 303.222 Q 320.931 303.222 328.978 298.624 Q 337.024 293.739 342.772 285.405 Q 348.52 276.784 351.393 265.289 Q 354.554 253.506 354.554 239.713 L 354.554 239.138 Q 354.554 225.344 351.393 213.849 Q 348.232 202.067 342.197 193.445 Q 336.45 184.824 328.116 179.938 Q 320.069 175.053 310.299 175.053 Q 300.241 175.053 292.194 179.938 Q 284.147 184.536 278.4 193.157 Q 272.94 201.491 269.779 213.273 Q 266.618 224.768 266.618 238.562 L 266.618 239.137 Q 266.618 252.931 269.779 264.713 Q 272.94 276.496 278.688 285.117 Q 284.435 293.451 292.482 298.336 Q 300.816 303.221 310.874 303.221 Z M 310.298 343.167 Q 290.182 343.167 273.514 335.408 Q 257.134 327.362 245.351 313.568 Q 233.856 299.486 227.534 280.52 Q 221.212 261.553 221.212 239.713 L 221.212 239.138 Q 221.212 217.297 227.534 198.331 Q 234.144 179.364 245.926 165.283 Q 257.708 151.202 274.089 143.155 Q 290.757 135.108 310.873 135.108 Q 330.702 135.108 347.082 143.155 Q 363.75 150.914 375.245 164.995 Q 387.027 178.789 393.35 197.756 Q 399.96 216.723 399.96 238.563 L 399.96 239.138 Q 399.96 260.978 393.35 279.945 Q 387.028 298.912 375.245 312.993 Q 363.462 327.074 346.794 335.121 Q 330.414 343.167 310.298 343.167 Z"
        fill="#ffffff"/>
</svg>
