<svg
    xmlns="http://www.w3.org/2000/svg"
    viewBox="0 0 500 500"
    id="vector">
    <defs>
        <clipPath id="clip_path_1">
            <path d="M 250 9.259 C 181.658 9.259 120.009 37.797 76.181 83.541 C 34.768 126.781 9.259 185.393 9.259 250 C 9.259 382.957 117.052 490.74 250 490.74 C 337.764 490.74 414.532 443.758 456.615 373.607 C 478.28 337.475 490.74 295.211 490.74 250 C 490.74 117.043 382.957 9.259 250 9.259 Z"/>
        </clipPath>
        <clipPath id="clip_path_2">
            <path d="M 250 9.259 C 181.658 9.259 120.009 37.797 76.181 83.541 C 34.768 126.781 9.259 185.393 9.259 250 C 9.259 382.957 117.052 490.74 250 490.74 C 337.764 490.74 414.532 443.758 456.615 373.607 C 478.28 337.475 490.74 295.211 490.74 250 C 490.74 117.043 382.957 9.259 250 9.259 Z"/>
        </clipPath>
        <clipPath id="clip_path_3">
            <path d="M 250 9.259 C 181.658 9.259 120.009 37.797 76.181 83.541 C 34.768 126.781 9.259 185.393 9.259 250 C 9.259 382.957 117.052 490.74 250 490.74 C 337.764 490.74 414.532 443.758 456.615 373.607 C 478.28 337.475 490.74 295.211 490.74 250 C 490.74 117.043 382.957 9.259 250 9.259 Z"/>
        </clipPath>
    </defs>
    <path
        id="path"
        d="M 250 9.259 C 181.658 9.259 120.009 37.797 76.181 83.541 C 34.768 126.781 9.259 185.393 9.259 250 C 9.259 382.957 117.052 490.74 250 490.74 C 337.764 490.74 414.532 443.758 456.615 373.607 C 478.28 337.475 490.74 295.211 490.74 250 C 490.74 117.043 382.957 9.259 250 9.259 Z"
        fill="#3393d0"/>
    <path
        id="path_1"
        clip-path="url(#clip_path_1)"
        d="M 303.62 11.547 C 303.62 11.547 166.178 47.345 140.398 159.017 C 114.637 270.688 101.752 383.789 153.284 436.777 C 204.824 489.746 295.03 486.888 295.03 486.888 C 295.03 486.888 3.201 654.405 -50.013 476.87 C -103.227 299.334 -92.973 -98.696 303.62 11.547 Z"
        fill="#0083c4"/>
    <path
        id="path_2"
        clip-path="url(#clip_path_2)"
        d="M 150.986 181.95 L 115.926 190.571 L 106.73 154.362 L 164.492 137.119 L 194.667 137.119 L 194.667 339.718 L 150.986 339.718 L 150.986 181.95 Z"
        fill="#ffffff"/>
    <path
        id="path_3"
        clip-path="url(#clip_path_3)"
        d="M 235.151 304.659 L 302.109 249.77 Q 311.592 242.011 318.202 235.977 Q 324.812 229.655 328.835 224.195 Q 333.146 218.447 334.87 213.275 Q 336.882 207.815 336.882 201.493 Q 336.882 188.561 329.41 181.952 Q 321.938 175.342 309.869 175.342 Q 298.087 175.342 288.891 181.952 Q 279.982 188.562 268.775 202.356 L 237.739 177.354 Q 245.211 167.296 252.683 159.537 Q 260.442 151.778 269.063 146.605 Q 277.972 141.145 288.605 138.558 Q 299.238 135.684 312.744 135.684 Q 328.262 135.684 340.907 140.282 Q 353.839 144.593 362.748 152.639 Q 371.944 160.686 376.829 172.181 Q 382.002 183.676 382.002 197.757 L 382.002 198.332 Q 382.002 210.976 378.553 221.035 Q 375.392 230.806 368.782 239.714 Q 362.46 248.335 352.402 257.244 Q 342.344 265.865 329.125 276.211 L 296.364 301.5 L 384.013 301.5 L 384.013 339.72 L 235.153 339.72 L 235.153 304.661 Z"
        fill="#ffffff"/>
</svg>
