<svg
    xmlns="http://www.w3.org/2000/svg"
    viewBox="0 0 500 500"
    id="vector">
    <defs>
        <clipPath id="clip_path_1">
            <path d="M 250 9.259 C 181.658 9.259 120.009 37.797 76.181 83.541 C 34.768 126.781 9.259 185.393 9.259 250 C 9.259 382.957 117.052 490.74 250 490.74 C 337.764 490.74 414.532 443.758 456.615 373.607 C 478.28 337.475 490.74 295.211 490.74 250 C 490.74 117.043 382.957 9.259 250 9.259 Z"/>
        </clipPath>
        <clipPath id="clip_path_2">
            <path d="M 250 9.259 C 181.658 9.259 120.009 37.797 76.181 83.541 C 34.768 126.781 9.259 185.393 9.259 250 C 9.259 382.957 117.052 490.74 250 490.74 C 337.764 490.74 414.532 443.758 456.615 373.607 C 478.28 337.475 490.74 295.211 490.74 250 C 490.74 117.043 382.957 9.259 250 9.259 Z"/>
        </clipPath>
        <clipPath id="clip_path_3">
            <path d="M 250 9.259 C 181.658 9.259 120.009 37.797 76.181 83.541 C 34.768 126.781 9.259 185.393 9.259 250 C 9.259 382.957 117.052 490.74 250 490.74 C 337.764 490.74 414.532 443.758 456.615 373.607 C 478.28 337.475 490.74 295.211 490.74 250 C 490.74 117.043 382.957 9.259 250 9.259 Z"/>
        </clipPath>
    </defs>
    <path
        id="path"
        d="M 250 9.259 C 181.658 9.259 120.009 37.797 76.181 83.541 C 34.768 126.781 9.259 185.393 9.259 250 C 9.259 382.957 117.052 490.74 250 490.74 C 337.764 490.74 414.532 443.758 456.615 373.607 C 478.28 337.475 490.74 295.211 490.74 250 C 490.74 117.043 382.957 9.259 250 9.259 Z"
        fill="#3393d0"/>
    <path
        id="path_1"
        clip-path="url(#clip_path_1)"
        d="M 303.62 11.547 C 303.62 11.547 166.178 47.345 140.398 159.017 C 114.637 270.688 101.752 383.789 153.284 436.777 C 204.824 489.746 295.03 486.888 295.03 486.888 C 295.03 486.888 3.201 654.405 -50.013 476.87 C -103.227 299.334 -92.973 -98.696 303.62 11.547 Z"
        fill="#0083c4"/>
    <path
        id="path_2"
        clip-path="url(#clip_path_2)"
        d="M 151.274 181.95 L 116.214 190.571 L 107.018 154.362 L 164.781 137.119 L 194.955 137.119 L 194.955 339.718 L 151.274 339.718 L 151.274 181.95 Z"
        fill="#ffffff"/>
    <path
        id="path_3"
        clip-path="url(#clip_path_3)"
        d="M 310.731 343.167 Q 283.43 343.167 264.176 333.684 Q 245.209 323.913 232.277 308.395 L 262.739 279.37 Q 273.084 291.152 284.292 297.475 Q 295.787 303.51 311.305 303.51 Q 323.949 303.51 331.709 296.9 Q 339.756 290.29 339.756 279.083 L 339.756 278.508 Q 339.756 266.151 329.411 259.541 Q 319.066 252.931 300.386 252.931 L 281.994 252.931 L 275.097 224.769 L 323.089 176.49 L 244.061 176.49 L 244.061 138.556 L 379.989 138.556 L 379.989 171.891 L 329.124 220.457 Q 339.469 222.181 348.953 225.917 Q 358.724 229.653 366.196 236.262 Q 373.955 242.871 378.553 252.93 Q 383.151 262.7 383.151 276.782 L 383.151 277.357 Q 383.151 291.725 377.978 303.795 Q 373.093 315.577 363.609 324.486 Q 354.413 333.395 340.906 338.28 Q 327.399 343.167 310.731 343.167 Z"
        fill="#ffffff"/>
</svg>
