<svg
    xmlns="http://www.w3.org/2000/svg"
    viewBox="0 0 500 500"
    id="vector">
    <defs>
        <clipPath id="clip_path_1">
            <path d="M 250 9.259 C 181.658 9.259 120.009 37.797 76.181 83.541 C 34.768 126.781 9.259 185.393 9.259 250 C 9.259 382.957 117.052 490.74 250 490.74 C 337.764 490.74 414.532 443.758 456.615 373.607 C 478.28 337.475 490.74 295.211 490.74 250 C 490.74 117.043 382.957 9.259 250 9.259 Z"/>
        </clipPath>
        <clipPath id="clip_path_2">
            <path d="M 250 9.259 C 181.658 9.259 120.009 37.797 76.181 83.541 C 34.768 126.781 9.259 185.393 9.259 250 C 9.259 382.957 117.052 490.74 250 490.74 C 337.764 490.74 414.532 443.758 456.615 373.607 C 478.28 337.475 490.74 295.211 490.74 250 C 490.74 117.043 382.957 9.259 250 9.259 Z"/>
        </clipPath>
        <clipPath id="clip_path_3">
            <path d="M 250 9.259 C 181.658 9.259 120.009 37.797 76.181 83.541 C 34.768 126.781 9.259 185.393 9.259 250 C 9.259 382.957 117.052 490.74 250 490.74 C 337.764 490.74 414.532 443.758 456.615 373.607 C 478.28 337.475 490.74 295.211 490.74 250 C 490.74 117.043 382.957 9.259 250 9.259 Z"/>
        </clipPath>
    </defs>
    <path
        id="path"
        d="M 250 9.259 C 181.658 9.259 120.009 37.797 76.181 83.541 C 34.768 126.781 9.259 185.393 9.259 250 C 9.259 382.957 117.052 490.74 250 490.74 C 337.764 490.74 414.532 443.758 456.615 373.607 C 478.28 337.475 490.74 295.211 490.74 250 C 490.74 117.043 382.957 9.259 250 9.259 Z"
        fill="#3393d0"/>
    <path
        id="path_1"
        clip-path="url(#clip_path_1)"
        d="M 303.62 11.547 C 303.62 11.547 166.178 47.345 140.398 159.017 C 114.637 270.688 101.752 383.789 153.284 436.777 C 204.824 489.746 295.03 486.888 295.03 486.888 C 295.03 486.888 3.201 654.405 -50.013 476.87 C -103.227 299.334 -92.973 -98.696 303.62 11.547 Z"
        fill="#0083c4"/>
    <path
        id="path_2"
        clip-path="url(#clip_path_2)"
        d="M 149.98 181.95 L 114.92 190.571 L 105.724 154.362 L 163.487 137.119 L 193.661 137.119 L 193.661 339.718 L 149.98 339.718 L 149.98 181.95 Z"
        fill="#ffffff"/>
    <path
        id="path_3"
        clip-path="url(#clip_path_3)"
        d="M 307.713 343.167 Q 283.286 343.167 265.182 335.121 Q 247.077 327.074 232.421 312.993 L 259.146 281.094 Q 270.641 291.44 282.136 297.187 Q 293.631 302.935 307.138 302.935 Q 322.656 302.935 331.565 295.75 Q 340.761 288.566 340.761 275.059 L 340.761 274.485 Q 340.761 261.553 330.703 254.368 Q 320.932 247.184 305.127 247.184 Q 295.644 247.184 287.022 249.483 Q 278.688 251.495 271.504 254.656 L 245.928 237.701 L 251.676 138.557 L 375.247 138.557 L 375.247 177.353 L 289.609 177.353 L 287.31 212.125 Q 293.345 210.688 299.38 209.826 Q 305.415 208.677 313.749 208.677 Q 328.405 208.677 341.05 212.413 Q 353.982 216.149 363.465 223.908 Q 373.236 231.667 378.696 244.024 Q 384.156 256.094 384.156 273.049 L 384.156 273.624 Q 384.156 289.717 378.696 302.649 Q 373.236 315.293 363.178 324.489 Q 353.407 333.398 339.039 338.283 Q 324.955 343.167 307.713 343.167 Z"
        fill="#ffffff"/>
</svg>
