<svg
    xmlns="http://www.w3.org/2000/svg"
    viewBox="0 0 500 500"
    id="vector">
    <defs>
        <clipPath id="clip_path_1">
            <path d="M 250 9.259 C 181.658 9.259 120.009 37.797 76.181 83.541 C 34.768 126.781 9.259 185.393 9.259 250 C 9.259 382.957 117.052 490.74 250 490.74 C 337.764 490.74 414.532 443.758 456.615 373.607 C 478.28 337.475 490.74 295.211 490.74 250 C 490.74 117.043 382.957 9.259 250 9.259 Z"/>
        </clipPath>
        <clipPath id="clip_path_2">
            <path d="M 250 9.259 C 181.658 9.259 120.009 37.797 76.181 83.541 C 34.768 126.781 9.259 185.393 9.259 250 C 9.259 382.957 117.052 490.74 250 490.74 C 337.764 490.74 414.532 443.758 456.615 373.607 C 478.28 337.475 490.74 295.211 490.74 250 C 490.74 117.043 382.957 9.259 250 9.259 Z"/>
        </clipPath>
        <clipPath id="clip_path_3">
            <path d="M 250 9.259 C 181.658 9.259 120.009 37.797 76.181 83.541 C 34.768 126.781 9.259 185.393 9.259 250 C 9.259 382.957 117.052 490.74 250 490.74 C 337.764 490.74 414.532 443.758 456.615 373.607 C 478.28 337.475 490.74 295.211 490.74 250 C 490.74 117.043 382.957 9.259 250 9.259 Z"/>
        </clipPath>
    </defs>
    <path
        id="path"
        d="M 250 9.259 C 181.658 9.259 120.009 37.797 76.181 83.541 C 34.768 126.781 9.259 185.393 9.259 250 C 9.259 382.957 117.052 490.74 250 490.74 C 337.764 490.74 414.532 443.758 456.615 373.607 C 478.28 337.475 490.74 295.211 490.74 250 C 490.74 117.043 382.957 9.259 250 9.259 Z"
        fill="#3393d0"/>
    <path
        id="path_1"
        clip-path="url(#clip_path_1)"
        d="M 303.62 11.547 C 303.62 11.547 166.178 47.345 140.398 159.017 C 114.637 270.688 101.752 383.789 153.284 436.777 C 204.824 489.746 295.03 486.888 295.03 486.888 C 295.03 486.888 3.201 654.405 -50.013 476.87 C -103.227 299.334 -92.973 -98.696 303.62 11.547 Z"
        fill="#0083c4"/>
    <path
        id="path_2"
        clip-path="url(#clip_path_2)"
        d="M 145.382 181.95 L 110.323 190.571 L 101.127 154.362 L 158.889 137.119 L 189.063 137.119 L 189.063 339.718 L 145.382 339.718 L 145.382 181.95 Z"
        fill="#ffffff"/>
    <path
        id="path_3"
        clip-path="url(#clip_path_3)"
        d="M 311.161 305.234 Q 327.542 305.234 336.451 296.9 Q 345.647 288.566 345.647 275.634 L 345.647 275.06 Q 345.647 262.128 336.164 254.081 Q 326.967 245.747 310.587 245.747 Q 294.207 245.747 285.012 253.794 Q 276.103 261.84 276.103 274.772 L 276.103 275.347 Q 276.103 288.279 285.298 296.9 Q 294.781 305.234 311.163 305.234 Z M 312.885 343.167 Q 293.056 343.167 279.263 337.707 Q 265.469 332.247 254.836 321.614 Q 243.915 310.694 237.306 293.164 Q 230.983 275.347 230.983 245.46 L 230.983 244.885 Q 230.983 221.608 236.156 201.492 Q 241.616 181.376 252.536 166.72 Q 263.457 152.064 280.125 143.73 Q 296.793 135.109 319.207 135.109 Q 329.552 135.109 338.174 136.546 Q 346.796 137.983 354.267 140.857 Q 361.74 143.731 368.637 148.041 Q 375.533 152.064 382.143 157.237 L 358.866 191.435 Q 353.982 187.699 349.384 184.825 Q 344.785 181.664 339.901 179.652 Q 335.016 177.64 329.556 176.491 Q 324.095 175.342 317.773 175.342 Q 308.29 175.342 301.105 179.078 Q 294.208 182.526 289.035 188.849 Q 284.151 194.884 281.276 203.505 Q 278.402 212.126 277.254 221.897 Q 284.725 217.012 294.208 212.988 Q 303.979 208.965 318.922 208.965 Q 333.866 208.965 346.797 213.276 Q 359.729 217.299 369.212 225.346 Q 378.695 233.392 384.156 245.462 Q 389.616 257.244 389.616 273.05 L 389.616 273.625 Q 389.616 289.143 383.581 302.075 Q 377.833 314.719 367.488 323.915 Q 357.43 333.111 343.349 338.284 Q 329.266 343.167 312.886 343.167 Z"
        fill="#ffffff"/>
</svg>
