<svg
    xmlns="http://www.w3.org/2000/svg"
    viewBox="0 0 500 500"
    id="vector">
    <defs>
        <clipPath id="clip_path_1">
            <path d="M 250 9.259 C 181.658 9.259 120.009 37.797 76.181 83.541 C 34.768 126.781 9.259 185.393 9.259 250 C 9.259 382.957 117.052 490.74 250 490.74 C 337.764 490.74 414.532 443.758 456.615 373.607 C 478.28 337.475 490.74 295.211 490.74 250 C 490.74 117.043 382.957 9.259 250 9.259 Z"/>
        </clipPath>
        <clipPath id="clip_path_2">
            <path d="M 250 9.259 C 181.658 9.259 120.009 37.797 76.181 83.541 C 34.768 126.781 9.259 185.393 9.259 250 C 9.259 382.957 117.052 490.74 250 490.74 C 337.764 490.74 414.532 443.758 456.615 373.607 C 478.28 337.475 490.74 295.211 490.74 250 C 490.74 117.043 382.957 9.259 250 9.259 Z"/>
        </clipPath>
        <clipPath id="clip_path_3">
            <path d="M 250 9.259 C 181.658 9.259 120.009 37.797 76.181 83.541 C 34.768 126.781 9.259 185.393 9.259 250 C 9.259 382.957 117.052 490.74 250 490.74 C 337.764 490.74 414.532 443.758 456.615 373.607 C 478.28 337.475 490.74 295.211 490.74 250 C 490.74 117.043 382.957 9.259 250 9.259 Z"/>
        </clipPath>
    </defs>
    <path
        id="path"
        d="M 250 9.259 C 181.658 9.259 120.009 37.797 76.181 83.541 C 34.768 126.781 9.259 185.393 9.259 250 C 9.259 382.957 117.052 490.74 250 490.74 C 337.764 490.74 414.532 443.758 456.615 373.607 C 478.28 337.475 490.74 295.211 490.74 250 C 490.74 117.043 382.957 9.259 250 9.259 Z"
        fill="#3393d0"/>
    <path
        id="path_1"
        clip-path="url(#clip_path_1)"
        d="M 303.62 11.547 C 303.62 11.547 166.178 47.345 140.398 159.017 C 114.637 270.688 101.752 383.789 153.284 436.777 C 204.824 489.746 295.03 486.888 295.03 486.888 C 295.03 486.888 3.201 654.405 -50.013 476.87 C -103.227 299.334 -92.973 -98.696 303.62 11.547 Z"
        fill="#0083c4"/>
    <path
        id="path_2"
        clip-path="url(#clip_path_2)"
        d="M 149.98 181.95 L 114.92 190.571 L 105.724 154.362 L 163.487 137.119 L 193.661 137.119 L 193.661 339.718 L 149.98 339.718 L 149.98 181.95 Z"
        fill="#ffffff"/>
    <path
        id="path_3"
        clip-path="url(#clip_path_3)"
        d="M 310.586 306.096 Q 326.966 306.096 336.162 298.911 Q 345.358 291.727 345.358 281.094 L 345.358 280.52 Q 345.358 268.737 335.587 262.415 Q 325.816 255.805 310.585 255.805 Q 295.354 255.805 285.583 262.415 Q 275.812 268.737 275.812 280.52 L 275.812 281.094 Q 275.812 291.44 285.008 298.912 Q 294.204 306.096 310.584 306.096 Z M 310.586 220.746 Q 323.805 220.746 331.564 213.849 Q 339.323 206.952 339.323 196.319 L 339.323 195.744 Q 339.323 186.548 331.851 179.364 Q 324.379 172.18 310.585 172.18 Q 296.791 172.18 289.319 179.364 Q 281.847 186.261 281.847 195.457 L 281.847 196.032 Q 281.847 206.665 289.606 213.849 Q 297.365 220.746 310.584 220.746 Z M 310.586 342.593 Q 293.918 342.593 279.549 338.57 Q 265.468 334.259 255.122 326.787 Q 244.777 319.028 238.742 308.395 Q 232.994 297.762 232.994 284.543 L 232.994 283.968 Q 232.994 265.576 241.041 254.369 Q 249.375 242.874 265.468 235.402 Q 253.686 228.218 246.789 218.16 Q 239.892 207.815 239.892 191.434 L 239.892 190.859 Q 239.892 179.364 244.777 169.306 Q 249.95 159.248 259.146 151.776 Q 268.629 144.304 281.561 139.994 Q 294.493 135.683 310.586 135.683 Q 326.392 135.683 339.323 139.994 Q 352.542 144.305 361.738 151.776 Q 371.221 158.96 376.107 169.306 Q 381.28 179.364 381.28 190.859 L 381.28 191.434 Q 381.28 207.814 374.383 218.16 Q 367.486 228.218 355.704 235.403 Q 370.935 243.449 379.556 254.37 Q 388.177 265.002 388.177 282.82 L 388.177 283.394 Q 388.177 297.476 382.142 308.396 Q 376.394 319.316 366.049 327.075 Q 355.703 334.547 341.335 338.57 Q 327.254 342.594 310.586 342.594 Z"
        fill="#ffffff"/>
</svg>
