<svg
    xmlns="http://www.w3.org/2000/svg"
    viewBox="0 0 500 500"
    id="vector">
    <defs>
        <clipPath id="clip_path_1">
            <path d="M 250 9.259 C 181.658 9.259 120.009 37.797 76.181 83.541 C 34.768 126.781 9.259 185.393 9.259 250 C 9.259 382.957 117.052 490.74 250 490.74 C 337.764 490.74 414.532 443.758 456.615 373.607 C 478.28 337.475 490.74 295.211 490.74 250 C 490.74 117.043 382.957 9.259 250 9.259 Z"/>
        </clipPath>
        <clipPath id="clip_path_2">
            <path d="M 250 9.259 C 181.658 9.259 120.009 37.797 76.181 83.541 C 34.768 126.781 9.259 185.393 9.259 250 C 9.259 382.957 117.052 490.74 250 490.74 C 337.764 490.74 414.532 443.758 456.615 373.607 C 478.28 337.475 490.74 295.211 490.74 250 C 490.74 117.043 382.957 9.259 250 9.259 Z"/>
        </clipPath>
        <clipPath id="clip_path_3">
            <path d="M 250 9.259 C 181.658 9.259 120.009 37.797 76.181 83.541 C 34.768 126.781 9.259 185.393 9.259 250 C 9.259 382.957 117.052 490.74 250 490.74 C 337.764 490.74 414.532 443.758 456.615 373.607 C 478.28 337.475 490.74 295.211 490.74 250 C 490.74 117.043 382.957 9.259 250 9.259 Z"/>
        </clipPath>
    </defs>
    <path
        id="path"
        d="M 250 9.259 C 181.658 9.259 120.009 37.797 76.181 83.541 C 34.768 126.781 9.259 185.393 9.259 250 C 9.259 382.957 117.052 490.74 250 490.74 C 337.764 490.74 414.532 443.758 456.615 373.607 C 478.28 337.475 490.74 295.211 490.74 250 C 490.74 117.043 382.957 9.259 250 9.259 Z"
        fill="#3393d0"/>
    <path
        id="path_1"
        clip-path="url(#clip_path_1)"
        d="M 303.62 11.547 C 303.62 11.547 166.178 47.345 140.398 159.017 C 114.637 270.688 101.752 383.789 153.284 436.777 C 204.824 489.746 295.03 486.888 295.03 486.888 C 295.03 486.888 3.201 654.405 -50.013 476.87 C -103.227 299.334 -92.973 -98.696 303.62 11.547 Z"
        fill="#0083c4"/>
    <path
        id="path_2"
        clip-path="url(#clip_path_2)"
        d="M 145.382 181.95 L 110.323 190.571 L 101.127 154.362 L 158.889 137.119 L 189.063 137.119 L 189.063 339.718 L 145.382 339.718 L 145.382 181.95 Z"
        fill="#ffffff"/>
    <path
        id="path_3"
        clip-path="url(#clip_path_3)"
        d="M 310.586 234.252 Q 326.966 234.252 335.875 225.918 Q 345.072 217.297 345.072 204.365 L 345.072 203.79 Q 345.072 190.283 335.589 181.662 Q 326.392 173.041 309.724 173.041 Q 293.345 173.041 284.435 181.662 Q 275.526 189.996 275.526 203.503 L 275.526 204.078 Q 275.526 217.585 284.723 225.919 Q 294.206 234.253 310.586 234.253 Z M 302.253 343.167 Q 280.125 343.167 264.607 336.558 Q 249.089 329.948 236.156 319.315 L 259.434 285.692 Q 270.354 294.601 280.413 298.912 Q 290.47 302.935 303.402 302.935 Q 322.082 302.935 331.853 290.29 Q 341.91 277.646 344.21 257.242 Q 336.737 263.564 326.68 267.3 Q 316.621 271.036 303.402 271.036 Q 287.022 271.036 273.802 266.726 Q 260.583 262.128 251.099 253.794 Q 241.616 245.46 236.444 233.39 Q 231.559 221.32 231.559 206.089 L 231.559 205.514 Q 231.559 190.283 237.018 177.351 Q 242.766 164.419 252.824 155.223 Q 262.883 145.74 276.964 140.567 Q 291.332 135.107 308.288 135.107 Q 318.345 135.107 326.392 136.544 Q 334.727 137.693 341.624 140.28 Q 348.521 142.866 354.555 147.177 Q 360.59 151.2 366.337 156.948 Q 371.797 162.408 376.108 169.305 Q 380.419 176.202 383.581 185.398 Q 386.741 194.594 388.465 206.376 Q 390.189 217.871 390.189 232.815 L 390.189 233.39 Q 390.189 257.817 384.441 278.22 Q 378.693 298.337 367.486 312.705 Q 356.566 327.074 340.185 335.121 Q 323.806 343.167 302.251 343.167 Z"
        fill="#ffffff"/>
</svg>
