<svg
    xmlns="http://www.w3.org/2000/svg"
    viewBox="0 0 500 500"
    id="vector">
    <defs>
        <clipPath id="clip_path_1">
            <path d="M 250 9.259 C 181.658 9.259 120.009 37.797 76.181 83.541 C 34.768 126.781 9.259 185.393 9.259 250 C 9.259 382.957 117.052 490.74 250 490.74 C 337.764 490.74 414.532 443.758 456.615 373.607 C 478.28 337.475 490.74 295.211 490.74 250 C 490.74 117.043 382.957 9.259 250 9.259 Z"/>
        </clipPath>
        <clipPath id="clip_path_2">
            <path d="M 250 9.259 C 181.658 9.259 120.009 37.797 76.181 83.541 C 34.768 126.781 9.259 185.393 9.259 250 C 9.259 382.957 117.052 490.74 250 490.74 C 337.764 490.74 414.532 443.758 456.615 373.607 C 478.28 337.475 490.74 295.211 490.74 250 C 490.74 117.043 382.957 9.259 250 9.259 Z"/>
        </clipPath>
    </defs>
    <path
        id="path"
        d="M 250 9.259 C 181.658 9.259 120.009 37.797 76.181 83.541 C 34.768 126.781 9.259 185.393 9.259 250 C 9.259 382.957 117.052 490.74 250 490.74 C 337.764 490.74 414.532 443.758 456.615 373.607 C 478.28 337.475 490.74 295.211 490.74 250 C 490.74 117.043 382.957 9.259 250 9.259 Z"
        fill="#3393d0"/>
    <path
        id="path_1"
        clip-path="url(#clip_path_1)"
        d="M 303.62 11.547 C 303.62 11.547 166.178 47.345 140.398 159.017 C 114.637 270.688 101.752 383.789 153.284 436.777 C 204.824 489.746 295.03 486.888 295.03 486.888 C 295.03 486.888 3.201 654.405 -50.013 476.87 C -103.227 299.334 -92.973 -98.696 303.62 11.547 Z"
        fill="#0083c4"/>
    <path
        id="path_2"
        clip-path="url(#clip_path_2)"
        d="M 174.55 304.659 L 241.509 249.77 Q 250.992 242.011 257.602 235.977 Q 264.211 229.655 268.235 224.195 Q 272.546 218.447 274.27 213.275 Q 276.282 207.815 276.282 201.493 Q 276.282 188.561 268.81 181.952 Q 261.338 175.342 249.268 175.342 Q 237.486 175.342 228.29 181.952 Q 219.381 188.562 208.174 202.356 L 177.137 177.354 Q 184.609 167.296 192.081 159.537 Q 199.84 151.778 208.461 146.605 Q 217.37 141.145 228.003 138.558 Q 238.635 135.684 252.142 135.684 Q 267.661 135.684 280.305 140.282 Q 293.237 144.593 302.145 152.639 Q 311.341 160.686 316.226 172.181 Q 321.399 183.676 321.399 197.757 L 321.399 198.332 Q 321.399 210.976 317.951 221.035 Q 314.79 230.806 308.18 239.714 Q 301.858 248.335 291.8 257.244 Q 281.742 265.865 268.523 276.211 L 235.762 301.5 L 323.412 301.5 L 323.412 339.72 L 174.551 339.72 L 174.551 304.661 Z"
        fill="#ffffff"/>
</svg>
