<svg
    xmlns="http://www.w3.org/2000/svg"
    viewBox="0 0 500 500"
    id="vector">
    <defs>
        <clipPath id="clip_path_1">
            <path d="M 250 9.259 C 181.658 9.259 120.009 37.797 76.181 83.541 C 34.768 126.781 9.259 185.393 9.259 250 C 9.259 382.957 117.052 490.74 250 490.74 C 337.764 490.74 414.532 443.758 456.615 373.607 C 478.28 337.475 490.74 295.211 490.74 250 C 490.74 117.043 382.957 9.259 250 9.259 Z"/>
        </clipPath>
        <clipPath id="clip_path_2">
            <path d="M 250 9.259 C 181.658 9.259 120.009 37.797 76.181 83.541 C 34.768 126.781 9.259 185.393 9.259 250 C 9.259 382.957 117.052 490.74 250 490.74 C 337.764 490.74 414.532 443.758 456.615 373.607 C 478.28 337.475 490.74 295.211 490.74 250 C 490.74 117.043 382.957 9.259 250 9.259 Z"/>
        </clipPath>
        <clipPath id="clip_path_3">
            <path d="M 250 9.259 C 181.658 9.259 120.009 37.797 76.181 83.541 C 34.768 126.781 9.259 185.393 9.259 250 C 9.259 382.957 117.052 490.74 250 490.74 C 337.764 490.74 414.532 443.758 456.615 373.607 C 478.28 337.475 490.74 295.211 490.74 250 C 490.74 117.043 382.957 9.259 250 9.259 Z"/>
        </clipPath>
    </defs>
    <path
        id="path"
        d="M 250 9.259 C 181.658 9.259 120.009 37.797 76.181 83.541 C 34.768 126.781 9.259 185.393 9.259 250 C 9.259 382.957 117.052 490.74 250 490.74 C 337.764 490.74 414.532 443.758 456.615 373.607 C 478.28 337.475 490.74 295.211 490.74 250 C 490.74 117.043 382.957 9.259 250 9.259 Z"
        fill="#3393d0"/>
    <path
        id="path_1"
        clip-path="url(#clip_path_1)"
        d="M 303.62 11.547 C 303.62 11.547 166.178 47.345 140.398 159.017 C 114.637 270.688 101.752 383.789 153.284 436.777 C 204.824 489.746 295.03 486.888 295.03 486.888 C 295.03 486.888 3.201 654.405 -50.013 476.87 C -103.227 299.334 -92.973 -98.696 303.62 11.547 Z"
        fill="#0083c4"/>
    <path
        id="path_2"
        clip-path="url(#clip_path_2)"
        d="M 69.659 304.659 L 136.617 249.77 Q 146.101 242.011 152.71 235.977 Q 159.32 229.655 163.344 224.195 Q 167.655 218.447 169.379 213.275 Q 171.391 207.815 171.391 201.493 Q 171.391 188.561 163.919 181.952 Q 156.447 175.342 144.377 175.342 Q 132.595 175.342 123.399 181.952 Q 114.49 188.562 103.283 202.356 L 72.246 177.354 Q 79.718 167.296 87.189 159.537 Q 94.949 151.778 103.57 146.605 Q 112.479 141.145 123.111 138.558 Q 133.744 135.684 147.251 135.684 Q 162.77 135.684 175.414 140.282 Q 188.346 144.593 197.254 152.639 Q 206.45 160.686 211.335 172.181 Q 216.508 183.676 216.508 197.757 L 216.508 198.332 Q 216.508 210.976 213.06 221.035 Q 209.899 230.806 203.289 239.714 Q 196.967 248.335 186.909 257.244 Q 176.851 265.865 163.632 276.211 L 130.871 301.5 L 218.521 301.5 L 218.521 339.72 L 69.66 339.72 L 69.66 304.661 Z"
        fill="#ffffff"/>
    <path
        id="path_3"
        clip-path="url(#clip_path_3)"
        d="M 339.805 303.222 Q 349.863 303.222 357.91 298.624 Q 365.956 293.739 371.704 285.405 Q 377.451 276.784 380.325 265.289 Q 383.486 253.506 383.486 239.713 L 383.486 239.138 Q 383.486 225.344 380.325 213.849 Q 377.164 202.067 371.129 193.445 Q 365.381 184.824 357.048 179.938 Q 349.002 175.053 339.231 175.053 Q 329.173 175.053 321.126 179.938 Q 313.08 184.536 307.332 193.157 Q 301.872 201.491 298.711 213.273 Q 295.55 224.768 295.55 238.562 L 295.55 239.137 Q 295.55 252.931 298.711 264.713 Q 301.872 276.496 307.62 285.117 Q 313.367 293.451 321.414 298.336 Q 329.748 303.221 339.806 303.221 Z M 339.23 343.167 Q 319.114 343.167 302.447 335.408 Q 286.067 327.362 274.284 313.568 Q 262.789 299.486 256.467 280.52 Q 250.145 261.553 250.145 239.713 L 250.145 239.138 Q 250.145 217.297 256.467 198.331 Q 263.077 179.364 274.859 165.283 Q 286.641 151.202 303.022 143.155 Q 319.69 135.108 339.806 135.108 Q 359.635 135.108 376.015 143.155 Q 392.683 150.914 404.178 164.995 Q 415.96 178.789 422.283 197.756 Q 428.893 216.723 428.893 238.563 L 428.893 239.138 Q 428.893 260.978 422.283 279.945 Q 415.961 298.912 404.178 312.993 Q 392.395 327.074 375.727 335.121 Q 359.346 343.167 339.23 343.167 Z"
        fill="#ffffff"/>
</svg>
