<svg
    xmlns="http://www.w3.org/2000/svg"
    viewBox="0 0 500 500"
    id="vector">
    <defs>
        <clipPath id="clip_path_1">
            <path d="M 250 9.259 C 181.658 9.259 120.009 37.797 76.181 83.541 C 34.768 126.781 9.259 185.393 9.259 250 C 9.259 382.957 117.052 490.74 250 490.74 C 337.764 490.74 414.532 443.758 456.615 373.607 C 478.28 337.475 490.74 295.211 490.74 250 C 490.74 117.043 382.957 9.259 250 9.259 Z"/>
        </clipPath>
        <clipPath id="clip_path_2">
            <path d="M 250 9.259 C 181.658 9.259 120.009 37.797 76.181 83.541 C 34.768 126.781 9.259 185.393 9.259 250 C 9.259 382.957 117.052 490.74 250 490.74 C 337.764 490.74 414.532 443.758 456.615 373.607 C 478.28 337.475 490.74 295.211 490.74 250 C 490.74 117.043 382.957 9.259 250 9.259 Z"/>
        </clipPath>
        <clipPath id="clip_path_3">
            <path d="M 250 9.259 C 181.658 9.259 120.009 37.797 76.181 83.541 C 34.768 126.781 9.259 185.393 9.259 250 C 9.259 382.957 117.052 490.74 250 490.74 C 337.764 490.74 414.532 443.758 456.615 373.607 C 478.28 337.475 490.74 295.211 490.74 250 C 490.74 117.043 382.957 9.259 250 9.259 Z"/>
        </clipPath>
    </defs>
    <path
        id="path"
        d="M 250 9.259 C 181.658 9.259 120.009 37.797 76.181 83.541 C 34.768 126.781 9.259 185.393 9.259 250 C 9.259 382.957 117.052 490.74 250 490.74 C 337.764 490.74 414.532 443.758 456.615 373.607 C 478.28 337.475 490.74 295.211 490.74 250 C 490.74 117.043 382.957 9.259 250 9.259 Z"
        fill="#3393d0"/>
    <path
        id="path_1"
        clip-path="url(#clip_path_1)"
        d="M 303.62 11.547 C 303.62 11.547 166.178 47.345 140.398 159.017 C 114.637 270.688 101.752 383.789 153.284 436.777 C 204.824 489.746 295.03 486.888 295.03 486.888 C 295.03 486.888 3.201 654.405 -50.013 476.87 C -103.227 299.334 -92.973 -98.696 303.62 11.547 Z"
        fill="#0083c4"/>
    <path
        id="path_2"
        clip-path="url(#clip_path_2)"
        d="M 113.914 304.659 L 180.873 249.77 Q 190.356 242.011 196.966 235.977 Q 203.575 229.655 207.599 224.195 Q 211.91 218.447 213.634 213.275 Q 215.646 207.815 215.646 201.493 Q 215.646 188.561 208.174 181.952 Q 200.702 175.342 188.633 175.342 Q 176.85 175.342 167.654 181.952 Q 158.745 188.562 147.538 202.356 L 116.501 177.354 Q 123.973 167.296 131.445 159.537 Q 139.204 151.778 147.825 146.605 Q 156.734 141.145 167.367 138.558 Q 178 135.684 191.506 135.684 Q 207.025 135.684 219.669 140.282 Q 232.601 144.593 241.509 152.639 Q 250.705 160.686 255.59 172.181 Q 260.763 183.676 260.763 197.757 L 260.763 198.332 Q 260.763 210.976 257.315 221.035 Q 254.154 230.806 247.544 239.714 Q 241.222 248.335 231.164 257.244 Q 221.106 265.865 207.887 276.211 L 175.126 301.5 L 262.776 301.5 L 262.776 339.72 L 113.916 339.72 L 113.916 304.661 Z"
        fill="#ffffff"/>
    <path
        id="path_3"
        clip-path="url(#clip_path_3)"
        d="M 330.034 181.95 L 294.974 190.571 L 285.778 154.362 L 343.54 137.119 L 373.714 137.119 L 373.714 339.718 L 330.033 339.718 L 330.033 181.95 Z"
        fill="#ffffff"/>
</svg>
