<svg
    xmlns="http://www.w3.org/2000/svg"
    viewBox="0 0 500 500"
    id="vector">
    <defs>
        <clipPath id="clip_path_1">
            <path d="M 250 9.259 C 181.658 9.259 120.009 37.797 76.181 83.541 C 34.768 126.781 9.259 185.393 9.259 250 C 9.259 382.957 117.052 490.74 250 490.74 C 337.764 490.74 414.532 443.758 456.615 373.607 C 478.28 337.475 490.74 295.211 490.74 250 C 490.74 117.043 382.957 9.259 250 9.259 Z"/>
        </clipPath>
        <clipPath id="clip_path_2">
            <path d="M 250 9.259 C 181.658 9.259 120.009 37.797 76.181 83.541 C 34.768 126.781 9.259 185.393 9.259 250 C 9.259 382.957 117.052 490.74 250 490.74 C 337.764 490.74 414.532 443.758 456.615 373.607 C 478.28 337.475 490.74 295.211 490.74 250 C 490.74 117.043 382.957 9.259 250 9.259 Z"/>
        </clipPath>
        <clipPath id="clip_path_3">
            <path d="M 250 9.259 C 181.658 9.259 120.009 37.797 76.181 83.541 C 34.768 126.781 9.259 185.393 9.259 250 C 9.259 382.957 117.052 490.74 250 490.74 C 337.764 490.74 414.532 443.758 456.615 373.607 C 478.28 337.475 490.74 295.211 490.74 250 C 490.74 117.043 382.957 9.259 250 9.259 Z"/>
        </clipPath>
    </defs>
    <path
        id="path"
        d="M 250 9.259 C 181.658 9.259 120.009 37.797 76.181 83.541 C 34.768 126.781 9.259 185.393 9.259 250 C 9.259 382.957 117.052 490.74 250 490.74 C 337.764 490.74 414.532 443.758 456.615 373.607 C 478.28 337.475 490.74 295.211 490.74 250 C 490.74 117.043 382.957 9.259 250 9.259 Z"
        fill="#3393d0"/>
    <path
        id="path_1"
        clip-path="url(#clip_path_1)"
        d="M 303.62 11.547 C 303.62 11.547 166.178 47.345 140.398 159.017 C 114.637 270.688 101.752 383.789 153.284 436.777 C 204.824 489.746 295.03 486.888 295.03 486.888 C 295.03 486.888 3.201 654.405 -50.013 476.87 C -103.227 299.334 -92.973 -98.696 303.62 11.547 Z"
        fill="#0083c4"/>
    <path
        id="path_2"
        clip-path="url(#clip_path_2)"
        d="M 85.035 304.659 L 151.994 249.77 Q 161.477 242.011 168.087 235.977 Q 174.696 229.655 178.72 224.195 Q 183.031 218.447 184.755 213.275 Q 186.767 207.815 186.767 201.493 Q 186.767 188.561 179.295 181.952 Q 171.823 175.342 159.754 175.342 Q 147.971 175.342 138.775 181.952 Q 129.867 188.562 118.659 202.356 L 87.623 177.354 Q 95.094 167.296 102.566 159.537 Q 110.325 151.778 118.946 146.605 Q 127.855 141.145 138.488 138.558 Q 149.121 135.684 162.627 135.684 Q 178.146 135.684 190.79 140.282 Q 203.722 144.593 212.63 152.639 Q 221.826 160.686 226.711 172.181 Q 231.884 183.676 231.884 197.757 L 231.884 198.332 Q 231.884 210.976 228.436 221.035 Q 225.275 230.806 218.665 239.714 Q 212.343 248.335 202.285 257.244 Q 192.227 265.865 179.008 276.211 L 146.247 301.5 L 233.897 301.5 L 233.897 339.72 L 85.037 339.72 L 85.037 304.661 Z"
        fill="#ffffff"/>
    <path
        id="path_3"
        clip-path="url(#clip_path_3)"
        d="M 264.083 304.659 L 331.041 249.77 Q 340.524 242.011 347.134 235.977 Q 353.744 229.655 357.767 224.195 Q 362.078 218.447 363.802 213.275 Q 365.814 207.815 365.814 201.493 Q 365.814 188.561 358.342 181.952 Q 350.87 175.342 338.8 175.342 Q 327.018 175.342 317.822 181.952 Q 308.913 188.562 297.706 202.356 L 266.67 177.354 Q 274.142 167.296 281.614 159.537 Q 289.373 151.778 297.994 146.605 Q 306.903 141.145 317.536 138.558 Q 328.169 135.684 341.675 135.684 Q 357.193 135.684 369.838 140.282 Q 382.77 144.593 391.679 152.639 Q 400.875 160.686 405.76 172.181 Q 410.933 183.676 410.933 197.757 L 410.933 198.332 Q 410.933 210.976 407.484 221.035 Q 404.323 230.806 397.713 239.714 Q 391.391 248.335 381.333 257.244 Q 371.275 265.865 358.056 276.211 L 325.295 301.5 L 412.944 301.5 L 412.944 339.72 L 264.084 339.72 L 264.084 304.661 Z"
        fill="#ffffff"/>
</svg>
