<svg
    xmlns="http://www.w3.org/2000/svg"
    viewBox="0 0 500 500"
    id="vector">
    <defs>
        <clipPath id="clip_path_1">
            <path d="M 250 9.259 C 181.658 9.259 120.009 37.797 76.181 83.541 C 34.768 126.781 9.259 185.393 9.259 250 C 9.259 382.957 117.052 490.74 250 490.74 C 337.764 490.74 414.532 443.758 456.615 373.607 C 478.28 337.475 490.74 295.211 490.74 250 C 490.74 117.043 382.957 9.259 250 9.259 Z"/>
        </clipPath>
        <clipPath id="clip_path_2">
            <path d="M 250 9.259 C 181.658 9.259 120.009 37.797 76.181 83.541 C 34.768 126.781 9.259 185.393 9.259 250 C 9.259 382.957 117.052 490.74 250 490.74 C 337.764 490.74 414.532 443.758 456.615 373.607 C 478.28 337.475 490.74 295.211 490.74 250 C 490.74 117.043 382.957 9.259 250 9.259 Z"/>
        </clipPath>
        <clipPath id="clip_path_3">
            <path d="M 250 9.259 C 181.658 9.259 120.009 37.797 76.181 83.541 C 34.768 126.781 9.259 185.393 9.259 250 C 9.259 382.957 117.052 490.74 250 490.74 C 337.764 490.74 414.532 443.758 456.615 373.607 C 478.28 337.475 490.74 295.211 490.74 250 C 490.74 117.043 382.957 9.259 250 9.259 Z"/>
        </clipPath>
    </defs>
    <path
        id="path"
        d="M 250 9.259 C 181.658 9.259 120.009 37.797 76.181 83.541 C 34.768 126.781 9.259 185.393 9.259 250 C 9.259 382.957 117.052 490.74 250 490.74 C 337.764 490.74 414.532 443.758 456.615 373.607 C 478.28 337.475 490.74 295.211 490.74 250 C 490.74 117.043 382.957 9.259 250 9.259 Z"
        fill="#3393d0"/>
    <path
        id="path_1"
        clip-path="url(#clip_path_1)"
        d="M 303.62 11.547 C 303.62 11.547 166.178 47.345 140.398 159.017 C 114.637 270.688 101.752 383.789 153.284 436.777 C 204.824 489.746 295.03 486.888 295.03 486.888 C 295.03 486.888 3.201 654.405 -50.013 476.87 C -103.227 299.334 -92.973 -98.696 303.62 11.547 Z"
        fill="#0083c4"/>
    <path
        id="path_2"
        clip-path="url(#clip_path_2)"
        d="M 85.323 304.659 L 152.281 249.77 Q 161.764 242.011 168.374 235.977 Q 174.983 229.655 179.007 224.195 Q 183.318 218.447 185.042 213.275 Q 187.054 207.815 187.054 201.493 Q 187.054 188.561 179.582 181.952 Q 172.11 175.342 160.041 175.342 Q 148.258 175.342 139.062 181.952 Q 130.154 188.562 118.946 202.356 L 87.91 177.354 Q 95.381 167.296 102.853 159.537 Q 110.612 151.778 119.234 146.605 Q 128.142 141.145 138.775 138.558 Q 149.408 135.684 162.915 135.684 Q 178.433 135.684 191.077 140.282 Q 204.009 144.593 212.917 152.639 Q 222.113 160.686 226.998 172.181 Q 232.171 183.676 232.171 197.757 L 232.171 198.332 Q 232.171 210.976 228.723 221.035 Q 225.562 230.806 218.952 239.714 Q 212.63 248.335 202.572 257.244 Q 192.514 265.865 179.295 276.211 L 146.535 301.5 L 234.184 301.5 L 234.184 339.72 L 85.324 339.72 L 85.324 304.661 Z"
        fill="#ffffff"/>
    <path
        id="path_3"
        clip-path="url(#clip_path_3)"
        d="M 339.663 343.167 Q 312.362 343.167 293.108 333.684 Q 274.141 323.913 261.209 308.395 L 291.671 279.37 Q 302.017 291.152 313.224 297.475 Q 324.719 303.51 340.237 303.51 Q 352.881 303.51 360.641 296.9 Q 368.687 290.29 368.687 279.083 L 368.687 278.508 Q 368.687 266.151 358.342 259.541 Q 347.996 252.932 329.317 252.932 L 310.925 252.932 L 304.028 224.769 L 352.02 176.49 L 272.992 176.49 L 272.992 138.556 L 408.92 138.556 L 408.92 171.891 L 358.055 220.457 Q 368.401 222.181 377.884 225.917 Q 387.655 229.653 395.126 236.262 Q 402.885 242.871 407.483 252.93 Q 412.081 262.7 412.081 276.782 L 412.081 277.357 Q 412.081 291.725 406.908 303.795 Q 402.023 315.577 392.539 324.486 Q 383.343 333.395 369.836 338.28 Q 356.331 343.167 339.663 343.167 Z"
        fill="#ffffff"/>
</svg>
