<svg
    xmlns="http://www.w3.org/2000/svg"
    viewBox="0 0 500 500"
    id="vector">
    <defs>
        <clipPath id="clip_path_1">
            <path d="M 250 9.259 C 181.658 9.259 120.009 37.797 76.181 83.541 C 34.768 126.781 9.259 185.393 9.259 250 C 9.259 382.957 117.052 490.74 250 490.74 C 337.764 490.74 414.532 443.758 456.615 373.607 C 478.28 337.475 490.74 295.211 490.74 250 C 490.74 117.043 382.957 9.259 250 9.259 Z"/>
        </clipPath>
        <clipPath id="clip_path_2">
            <path d="M 250 9.259 C 181.658 9.259 120.009 37.797 76.181 83.541 C 34.768 126.781 9.259 185.393 9.259 250 C 9.259 382.957 117.052 490.74 250 490.74 C 337.764 490.74 414.532 443.758 456.615 373.607 C 478.28 337.475 490.74 295.211 490.74 250 C 490.74 117.043 382.957 9.259 250 9.259 Z"/>
        </clipPath>
        <clipPath id="clip_path_3">
            <path d="M 250 9.259 C 181.658 9.259 120.009 37.797 76.181 83.541 C 34.768 126.781 9.259 185.393 9.259 250 C 9.259 382.957 117.052 490.74 250 490.74 C 337.764 490.74 414.532 443.758 456.615 373.607 C 478.28 337.475 490.74 295.211 490.74 250 C 490.74 117.043 382.957 9.259 250 9.259 Z"/>
        </clipPath>
    </defs>
    <path
        id="path"
        d="M 250 9.259 C 181.658 9.259 120.009 37.797 76.181 83.541 C 34.768 126.781 9.259 185.393 9.259 250 C 9.259 382.957 117.052 490.74 250 490.74 C 337.764 490.74 414.532 443.758 456.615 373.607 C 478.28 337.475 490.74 295.211 490.74 250 C 490.74 117.043 382.957 9.259 250 9.259 Z"
        fill="#3393d0"/>
    <path
        id="path_1"
        clip-path="url(#clip_path_1)"
        d="M 303.62 11.547 C 303.62 11.547 166.178 47.345 140.398 159.017 C 114.637 270.688 101.752 383.789 153.284 436.777 C 204.824 489.746 295.03 486.888 295.03 486.888 C 295.03 486.888 3.201 654.405 -50.013 476.87 C -103.227 299.334 -92.973 -98.696 303.62 11.547 Z"
        fill="#0083c4"/>
    <path
        id="path_2"
        clip-path="url(#clip_path_2)"
        d="M 75.55 304.659 L 142.509 249.77 Q 151.992 242.011 158.602 235.977 Q 165.211 229.655 169.235 224.195 Q 173.546 218.447 175.27 213.275 Q 177.282 207.815 177.282 201.493 Q 177.282 188.561 169.81 181.952 Q 162.338 175.342 150.268 175.342 Q 138.486 175.342 129.29 181.952 Q 120.381 188.562 109.174 202.356 L 78.137 177.354 Q 85.609 167.296 93.081 159.537 Q 100.84 151.778 109.461 146.605 Q 118.37 141.145 129.003 138.558 Q 139.635 135.684 153.142 135.684 Q 168.661 135.684 181.305 140.282 Q 194.237 144.593 203.145 152.639 Q 212.341 160.686 217.226 172.181 Q 222.399 183.676 222.399 197.757 L 222.399 198.332 Q 222.399 210.976 218.951 221.035 Q 215.79 230.806 209.18 239.714 Q 202.858 248.335 192.8 257.244 Q 182.742 265.865 169.523 276.211 L 136.762 301.5 L 224.412 301.5 L 224.412 339.72 L 75.551 339.72 L 75.551 304.661 Z"
        fill="#ffffff"/>
    <path
        id="path_3"
        clip-path="url(#clip_path_3)"
        d="M 354.892 260.403 L 354.892 197.756 L 301.44 260.404 L 354.892 260.404 Z M 354.892 296.325 L 256.61 296.325 L 249.426 265.001 L 359.778 137.12 L 397.137 137.12 L 397.137 260.404 L 424.15 260.404 L 424.15 296.326 L 397.137 296.326 L 397.137 339.719 L 354.893 339.719 L 354.893 296.326 Z"
        fill="#ffffff"/>
</svg>
