<svg
    xmlns="http://www.w3.org/2000/svg"
    viewBox="0 0 500 500"
    id="vector">
    <defs>
        <clipPath id="clip_path_1">
            <path d="M 250 9.259 C 181.658 9.259 120.009 37.797 76.181 83.541 C 34.768 126.781 9.259 185.393 9.259 250 C 9.259 382.957 117.052 490.74 250 490.74 C 337.764 490.74 414.532 443.758 456.615 373.607 C 478.28 337.475 490.74 295.211 490.74 250 C 490.74 117.043 382.957 9.259 250 9.259 Z"/>
        </clipPath>
        <clipPath id="clip_path_2">
            <path d="M 250 9.259 C 181.658 9.259 120.009 37.797 76.181 83.541 C 34.768 126.781 9.259 185.393 9.259 250 C 9.259 382.957 117.052 490.74 250 490.74 C 337.764 490.74 414.532 443.758 456.615 373.607 C 478.28 337.475 490.74 295.211 490.74 250 C 490.74 117.043 382.957 9.259 250 9.259 Z"/>
        </clipPath>
        <clipPath id="clip_path_3">
            <path d="M 250 9.259 C 181.658 9.259 120.009 37.797 76.181 83.541 C 34.768 126.781 9.259 185.393 9.259 250 C 9.259 382.957 117.052 490.74 250 490.74 C 337.764 490.74 414.532 443.758 456.615 373.607 C 478.28 337.475 490.74 295.211 490.74 250 C 490.74 117.043 382.957 9.259 250 9.259 Z"/>
        </clipPath>
    </defs>
    <path
        id="path"
        d="M 250 9.259 C 181.658 9.259 120.009 37.797 76.181 83.541 C 34.768 126.781 9.259 185.393 9.259 250 C 9.259 382.957 117.052 490.74 250 490.74 C 337.764 490.74 414.532 443.758 456.615 373.607 C 478.28 337.475 490.74 295.211 490.74 250 C 490.74 117.043 382.957 9.259 250 9.259 Z"
        fill="#3393d0"/>
    <path
        id="path_1"
        clip-path="url(#clip_path_1)"
        d="M 303.62 11.547 C 303.62 11.547 166.178 47.345 140.398 159.017 C 114.637 270.688 101.752 383.789 153.284 436.777 C 204.824 489.746 295.03 486.888 295.03 486.888 C 295.03 486.888 3.201 654.405 -50.013 476.87 C -103.227 299.334 -92.973 -98.696 303.62 11.547 Z"
        fill="#0083c4"/>
    <path
        id="path_2"
        clip-path="url(#clip_path_2)"
        d="M 84.029 304.659 L 150.987 249.77 Q 160.47 242.011 167.08 235.977 Q 173.689 229.655 177.713 224.195 Q 182.024 218.447 183.748 213.275 Q 185.76 207.815 185.76 201.493 Q 185.76 188.561 178.288 181.952 Q 170.816 175.342 158.747 175.342 Q 146.964 175.342 137.768 181.952 Q 128.86 188.562 117.652 202.356 L 86.616 177.354 Q 94.087 167.296 101.559 159.537 Q 109.318 151.778 117.94 146.605 Q 126.848 141.145 137.481 138.558 Q 148.114 135.684 161.621 135.684 Q 177.139 135.684 189.783 140.282 Q 202.715 144.593 211.623 152.639 Q 220.819 160.686 225.704 172.181 Q 230.877 183.676 230.877 197.757 L 230.877 198.332 Q 230.877 210.976 227.429 221.035 Q 224.268 230.806 217.658 239.714 Q 211.336 248.335 201.278 257.244 Q 191.22 265.865 178.001 276.211 L 145.241 301.5 L 232.89 301.5 L 232.89 339.72 L 84.03 339.72 L 84.03 304.661 Z"
        fill="#ffffff"/>
    <path
        id="path_3"
        clip-path="url(#clip_path_3)"
        d="M 336.644 343.167 Q 312.217 343.167 294.113 335.121 Q 276.008 327.074 261.352 312.993 L 288.078 281.094 Q 299.573 291.44 311.068 297.187 Q 322.563 302.935 336.07 302.935 Q 351.588 302.935 360.497 295.75 Q 369.693 288.566 369.693 275.059 L 369.693 274.485 Q 369.693 261.553 359.635 254.368 Q 349.864 247.184 334.059 247.184 Q 324.576 247.184 315.954 249.483 Q 307.62 251.495 300.436 254.656 L 274.86 237.701 L 280.608 138.557 L 404.179 138.557 L 404.179 177.353 L 318.541 177.353 L 316.242 212.125 Q 322.277 210.688 328.312 209.826 Q 334.347 208.677 342.681 208.677 Q 357.337 208.677 369.982 212.413 Q 382.914 216.149 392.397 223.908 Q 402.168 231.667 407.628 244.024 Q 413.088 256.094 413.088 273.049 L 413.088 273.624 Q 413.088 289.717 407.628 302.649 Q 402.168 315.293 392.11 324.489 Q 382.339 333.398 367.971 338.283 Q 353.887 343.167 336.645 343.167 Z"
        fill="#ffffff"/>
</svg>
