<svg
    xmlns="http://www.w3.org/2000/svg"
    viewBox="0 0 500 500"
    id="vector">
    <defs>
        <clipPath id="clip_path_1">
            <path d="M 250 9.259 C 181.658 9.259 120.009 37.797 76.181 83.541 C 34.768 126.781 9.259 185.393 9.259 250 C 9.259 382.957 117.052 490.74 250 490.74 C 337.764 490.74 414.532 443.758 456.615 373.607 C 478.28 337.475 490.74 295.211 490.74 250 C 490.74 117.043 382.957 9.259 250 9.259 Z"/>
        </clipPath>
        <clipPath id="clip_path_2">
            <path d="M 250 9.259 C 181.658 9.259 120.009 37.797 76.181 83.541 C 34.768 126.781 9.259 185.393 9.259 250 C 9.259 382.957 117.052 490.74 250 490.74 C 337.764 490.74 414.532 443.758 456.615 373.607 C 478.28 337.475 490.74 295.211 490.74 250 C 490.74 117.043 382.957 9.259 250 9.259 Z"/>
        </clipPath>
        <clipPath id="clip_path_3">
            <path d="M 250 9.259 C 181.658 9.259 120.009 37.797 76.181 83.541 C 34.768 126.781 9.259 185.393 9.259 250 C 9.259 382.957 117.052 490.74 250 490.74 C 337.764 490.74 414.532 443.758 456.615 373.607 C 478.28 337.475 490.74 295.211 490.74 250 C 490.74 117.043 382.957 9.259 250 9.259 Z"/>
        </clipPath>
    </defs>
    <path
        id="path"
        d="M 250 9.259 C 181.658 9.259 120.009 37.797 76.181 83.541 C 34.768 126.781 9.259 185.393 9.259 250 C 9.259 382.957 117.052 490.74 250 490.74 C 337.764 490.74 414.532 443.758 456.615 373.607 C 478.28 337.475 490.74 295.211 490.74 250 C 490.74 117.043 382.957 9.259 250 9.259 Z"
        fill="#3393d0"/>
    <path
        id="path_1"
        clip-path="url(#clip_path_1)"
        d="M 303.62 11.547 C 303.62 11.547 166.178 47.345 140.398 159.017 C 114.637 270.688 101.752 383.789 153.284 436.777 C 204.824 489.746 295.03 486.888 295.03 486.888 C 295.03 486.888 3.201 654.405 -50.013 476.87 C -103.227 299.334 -92.973 -98.696 303.62 11.547 Z"
        fill="#0083c4"/>
    <path
        id="path_2"
        clip-path="url(#clip_path_2)"
        d="M 79.431 304.659 L 146.389 249.77 Q 155.873 242.011 162.482 235.977 Q 169.092 229.655 173.116 224.195 Q 177.427 218.447 179.151 213.275 Q 181.163 207.815 181.163 201.493 Q 181.163 188.561 173.691 181.952 Q 166.219 175.342 154.149 175.342 Q 142.367 175.342 133.171 181.952 Q 124.262 188.562 113.055 202.356 L 82.018 177.354 Q 89.49 167.296 96.962 159.537 Q 104.721 151.778 113.342 146.605 Q 122.251 141.145 132.883 138.558 Q 143.516 135.684 157.023 135.684 Q 172.542 135.684 185.186 140.282 Q 198.118 144.593 207.026 152.639 Q 216.222 160.686 221.107 172.181 Q 226.28 183.676 226.28 197.757 L 226.28 198.332 Q 226.28 210.976 222.832 221.035 Q 219.671 230.806 213.061 239.714 Q 206.739 248.335 196.681 257.244 Q 186.623 265.865 173.404 276.211 L 140.643 301.5 L 228.293 301.5 L 228.293 339.72 L 79.432 339.72 L 79.432 304.661 Z"
        fill="#ffffff"/>
    <path
        id="path_3"
        clip-path="url(#clip_path_3)"
        d="M 340.094 305.234 Q 356.474 305.234 365.383 296.9 Q 374.579 288.566 374.579 275.634 L 374.579 275.06 Q 374.579 262.128 365.096 254.081 Q 355.9 245.747 339.52 245.747 Q 323.14 245.747 313.944 253.794 Q 305.035 261.84 305.035 274.772 L 305.035 275.347 Q 305.035 288.279 314.231 296.9 Q 323.714 305.234 340.095 305.234 Z M 341.818 343.167 Q 321.989 343.167 308.195 337.707 Q 294.401 332.247 283.768 321.614 Q 272.848 310.694 266.238 293.164 Q 259.916 275.347 259.916 245.46 L 259.916 244.885 Q 259.916 221.608 265.089 201.492 Q 270.549 181.376 281.469 166.72 Q 292.389 152.064 309.057 143.73 Q 325.725 135.109 348.14 135.109 Q 358.486 135.109 367.107 136.546 Q 375.728 137.983 383.2 140.857 Q 390.672 143.731 397.569 148.041 Q 404.466 152.064 411.076 157.237 L 387.799 191.435 Q 382.914 187.699 378.316 184.825 Q 373.718 181.664 368.833 179.652 Q 363.948 177.64 358.487 176.491 Q 353.027 175.342 346.705 175.342 Q 337.222 175.342 330.037 179.078 Q 323.14 182.526 317.967 188.849 Q 313.082 194.884 310.208 203.505 Q 307.334 212.126 306.185 221.897 Q 313.657 217.012 323.14 212.988 Q 332.911 208.965 347.854 208.965 Q 362.797 208.965 375.729 213.276 Q 388.661 217.299 398.144 225.346 Q 407.627 233.392 413.087 245.462 Q 418.547 257.244 418.547 273.05 L 418.547 273.625 Q 418.547 289.143 412.512 302.075 Q 406.764 314.719 396.419 323.915 Q 386.361 333.111 372.28 338.284 Q 358.198 343.167 341.818 343.167 Z"
        fill="#ffffff"/>
</svg>
