<svg
    xmlns="http://www.w3.org/2000/svg"
    viewBox="0 0 500 500"
    id="vector">
    <defs>
        <clipPath id="clip_path_1">
            <path d="M 250 9.259 C 181.658 9.259 120.009 37.797 76.181 83.541 C 34.768 126.781 9.259 185.393 9.259 250 C 9.259 382.957 117.052 490.74 250 490.74 C 337.764 490.74 414.532 443.758 456.615 373.607 C 478.28 337.475 490.74 295.211 490.74 250 C 490.74 117.043 382.957 9.259 250 9.259 Z"/>
        </clipPath>
        <clipPath id="clip_path_2">
            <path d="M 250 9.259 C 181.658 9.259 120.009 37.797 76.181 83.541 C 34.768 126.781 9.259 185.393 9.259 250 C 9.259 382.957 117.052 490.74 250 490.74 C 337.764 490.74 414.532 443.758 456.615 373.607 C 478.28 337.475 490.74 295.211 490.74 250 C 490.74 117.043 382.957 9.259 250 9.259 Z"/>
        </clipPath>
        <clipPath id="clip_path_3">
            <path d="M 250 9.259 C 181.658 9.259 120.009 37.797 76.181 83.541 C 34.768 126.781 9.259 185.393 9.259 250 C 9.259 382.957 117.052 490.74 250 490.74 C 337.764 490.74 414.532 443.758 456.615 373.607 C 478.28 337.475 490.74 295.211 490.74 250 C 490.74 117.043 382.957 9.259 250 9.259 Z"/>
        </clipPath>
    </defs>
    <path
        id="path"
        d="M 250 9.259 C 181.658 9.259 120.009 37.797 76.181 83.541 C 34.768 126.781 9.259 185.393 9.259 250 C 9.259 382.957 117.052 490.74 250 490.74 C 337.764 490.74 414.532 443.758 456.615 373.607 C 478.28 337.475 490.74 295.211 490.74 250 C 490.74 117.043 382.957 9.259 250 9.259 Z"
        fill="#3393d0"/>
    <path
        id="path_1"
        clip-path="url(#clip_path_1)"
        d="M 303.62 11.547 C 303.62 11.547 166.178 47.345 140.398 159.017 C 114.637 270.688 101.752 383.789 153.284 436.777 C 204.824 489.746 295.03 486.888 295.03 486.888 C 295.03 486.888 3.201 654.405 -50.013 476.87 C -103.227 299.334 -92.973 -98.696 303.62 11.547 Z"
        fill="#0083c4"/>
    <path
        id="path_2"
        clip-path="url(#clip_path_2)"
        d="M 85.61 304.659 L 152.568 249.77 Q 162.051 242.011 168.661 235.977 Q 175.27 229.655 179.294 224.195 Q 183.605 218.447 185.329 213.275 Q 187.341 207.815 187.341 201.493 Q 187.341 188.561 179.869 181.952 Q 172.397 175.342 160.328 175.342 Q 148.545 175.342 139.349 181.952 Q 130.441 188.562 119.233 202.356 L 88.197 177.354 Q 95.668 167.296 103.14 159.537 Q 110.899 151.778 119.521 146.605 Q 128.429 141.145 139.062 138.558 Q 149.695 135.684 163.202 135.684 Q 178.72 135.684 191.364 140.282 Q 204.296 144.593 213.204 152.639 Q 222.4 160.686 227.285 172.181 Q 232.458 183.676 232.458 197.757 L 232.458 198.332 Q 232.458 210.976 229.01 221.035 Q 225.849 230.806 219.239 239.714 Q 212.917 248.335 202.859 257.244 Q 192.801 265.865 179.582 276.211 L 146.822 301.5 L 234.471 301.5 L 234.471 339.72 L 85.611 339.72 L 85.611 304.661 Z"
        fill="#ffffff"/>
    <path
        id="path_3"
        clip-path="url(#clip_path_3)"
        d="M 364.664 176.777 L 270.118 176.777 L 270.118 138.556 L 414.955 138.556 L 414.955 171.891 L 324.719 339.719 L 274.716 339.719 L 364.664 176.777 Z"
        fill="#ffffff"/>
</svg>
