<svg
    xmlns="http://www.w3.org/2000/svg"
    viewBox="0 0 500 500"
    id="vector">
    <defs>
        <clipPath id="clip_path_1">
            <path d="M 250 9.259 C 181.658 9.259 120.009 37.797 76.181 83.541 C 34.768 126.781 9.259 185.393 9.259 250 C 9.259 382.957 117.052 490.74 250 490.74 C 337.764 490.74 414.532 443.758 456.615 373.607 C 478.28 337.475 490.74 295.211 490.74 250 C 490.74 117.043 382.957 9.259 250 9.259 Z"/>
        </clipPath>
        <clipPath id="clip_path_2">
            <path d="M 250 9.259 C 181.658 9.259 120.009 37.797 76.181 83.541 C 34.768 126.781 9.259 185.393 9.259 250 C 9.259 382.957 117.052 490.74 250 490.74 C 337.764 490.74 414.532 443.758 456.615 373.607 C 478.28 337.475 490.74 295.211 490.74 250 C 490.74 117.043 382.957 9.259 250 9.259 Z"/>
        </clipPath>
        <clipPath id="clip_path_3">
            <path d="M 250 9.259 C 181.658 9.259 120.009 37.797 76.181 83.541 C 34.768 126.781 9.259 185.393 9.259 250 C 9.259 382.957 117.052 490.74 250 490.74 C 337.764 490.74 414.532 443.758 456.615 373.607 C 478.28 337.475 490.74 295.211 490.74 250 C 490.74 117.043 382.957 9.259 250 9.259 Z"/>
        </clipPath>
    </defs>
    <path
        id="path"
        d="M 250 9.259 C 181.658 9.259 120.009 37.797 76.181 83.541 C 34.768 126.781 9.259 185.393 9.259 250 C 9.259 382.957 117.052 490.74 250 490.74 C 337.764 490.74 414.532 443.758 456.615 373.607 C 478.28 337.475 490.74 295.211 490.74 250 C 490.74 117.043 382.957 9.259 250 9.259 Z"
        fill="#3393d0"/>
    <path
        id="path_1"
        clip-path="url(#clip_path_1)"
        d="M 303.62 11.547 C 303.62 11.547 166.178 47.345 140.398 159.017 C 114.637 270.688 101.752 383.789 153.284 436.777 C 204.824 489.746 295.03 486.888 295.03 486.888 C 295.03 486.888 3.201 654.405 -50.013 476.87 C -103.227 299.334 -92.973 -98.696 303.62 11.547 Z"
        fill="#0083c4"/>
    <path
        id="path_2"
        clip-path="url(#clip_path_2)"
        d="M 84.029 304.659 L 150.987 249.77 Q 160.47 242.011 167.08 235.977 Q 173.689 229.655 177.713 224.195 Q 182.024 218.447 183.748 213.275 Q 185.76 207.815 185.76 201.493 Q 185.76 188.561 178.288 181.952 Q 170.816 175.342 158.747 175.342 Q 146.964 175.342 137.768 181.952 Q 128.86 188.562 117.652 202.356 L 86.616 177.354 Q 94.087 167.296 101.559 159.537 Q 109.318 151.778 117.94 146.605 Q 126.848 141.145 137.481 138.558 Q 148.114 135.684 161.621 135.684 Q 177.139 135.684 189.783 140.282 Q 202.715 144.593 211.623 152.639 Q 220.819 160.686 225.704 172.181 Q 230.877 183.676 230.877 197.757 L 230.877 198.332 Q 230.877 210.976 227.429 221.035 Q 224.268 230.806 217.658 239.714 Q 211.336 248.335 201.278 257.244 Q 191.22 265.865 178.001 276.211 L 145.241 301.5 L 232.89 301.5 L 232.89 339.72 L 84.03 339.72 L 84.03 304.661 Z"
        fill="#ffffff"/>
    <path
        id="path_3"
        clip-path="url(#clip_path_3)"
        d="M 339.518 306.096 Q 355.898 306.096 365.094 298.911 Q 374.29 291.727 374.29 281.094 L 374.29 280.52 Q 374.29 268.737 364.519 262.415 Q 354.748 255.805 339.517 255.805 Q 324.286 255.805 314.515 262.415 Q 304.744 268.737 304.744 280.52 L 304.744 281.094 Q 304.744 291.44 313.94 298.912 Q 323.136 306.096 339.516 306.096 Z M 339.518 220.746 Q 352.737 220.746 360.496 213.849 Q 368.255 206.952 368.255 196.319 L 368.255 195.744 Q 368.255 186.548 360.783 179.364 Q 353.311 172.18 339.517 172.18 Q 325.723 172.18 318.251 179.364 Q 310.779 186.261 310.779 195.457 L 310.779 196.032 Q 310.779 206.665 318.538 213.849 Q 326.297 220.746 339.516 220.746 Z M 339.518 342.593 Q 322.85 342.593 308.482 338.57 Q 294.401 334.259 284.055 326.787 Q 273.71 319.028 267.675 308.395 Q 261.928 297.762 261.928 284.543 L 261.928 283.968 Q 261.928 265.576 269.975 254.369 Q 278.309 242.874 294.402 235.402 Q 282.62 228.218 275.723 218.16 Q 268.826 207.815 268.826 191.434 L 268.826 190.859 Q 268.826 179.364 273.711 169.306 Q 278.884 159.248 288.08 151.776 Q 297.563 144.304 310.495 139.994 Q 323.427 135.683 339.52 135.683 Q 355.326 135.683 368.257 139.994 Q 381.476 144.305 390.672 151.776 Q 400.155 158.96 405.041 169.306 Q 410.214 179.364 410.214 190.859 L 410.214 191.434 Q 410.214 207.814 403.317 218.16 Q 396.42 228.218 384.638 235.403 Q 399.869 243.449 408.49 254.37 Q 417.111 265.002 417.111 282.82 L 417.111 283.394 Q 417.111 297.476 411.076 308.396 Q 405.329 319.316 394.983 327.075 Q 384.637 334.547 370.269 338.57 Q 356.188 342.594 339.52 342.594 Z"
        fill="#ffffff"/>
</svg>
