<svg
    xmlns="http://www.w3.org/2000/svg"
    viewBox="0 0 500 500"
    id="vector">
    <defs>
        <clipPath id="clip_path_1">
            <path d="M 250 9.259 C 181.658 9.259 120.009 37.797 76.181 83.541 C 34.768 126.781 9.259 185.393 9.259 250 C 9.259 382.957 117.052 490.74 250 490.74 C 337.764 490.74 414.532 443.758 456.615 373.607 C 478.28 337.475 490.74 295.211 490.74 250 C 490.74 117.043 382.957 9.259 250 9.259 Z"/>
        </clipPath>
        <clipPath id="clip_path_2">
            <path d="M 250 9.259 C 181.658 9.259 120.009 37.797 76.181 83.541 C 34.768 126.781 9.259 185.393 9.259 250 C 9.259 382.957 117.052 490.74 250 490.74 C 337.764 490.74 414.532 443.758 456.615 373.607 C 478.28 337.475 490.74 295.211 490.74 250 C 490.74 117.043 382.957 9.259 250 9.259 Z"/>
        </clipPath>
        <clipPath id="clip_path_3">
            <path d="M 250 9.259 C 181.658 9.259 120.009 37.797 76.181 83.541 C 34.768 126.781 9.259 185.393 9.259 250 C 9.259 382.957 117.052 490.74 250 490.74 C 337.764 490.74 414.532 443.758 456.615 373.607 C 478.28 337.475 490.74 295.211 490.74 250 C 490.74 117.043 382.957 9.259 250 9.259 Z"/>
        </clipPath>
    </defs>
    <path
        id="path"
        d="M 250 9.259 C 181.658 9.259 120.009 37.797 76.181 83.541 C 34.768 126.781 9.259 185.393 9.259 250 C 9.259 382.957 117.052 490.74 250 490.74 C 337.764 490.74 414.532 443.758 456.615 373.607 C 478.28 337.475 490.74 295.211 490.74 250 C 490.74 117.043 382.957 9.259 250 9.259 Z"
        fill="#3393d0"/>
    <path
        id="path_1"
        clip-path="url(#clip_path_1)"
        d="M 303.62 11.547 C 303.62 11.547 166.178 47.345 140.398 159.017 C 114.637 270.688 101.752 383.789 153.284 436.777 C 204.824 489.746 295.03 486.888 295.03 486.888 C 295.03 486.888 3.201 654.405 -50.013 476.87 C -103.227 299.334 -92.973 -98.696 303.62 11.547 Z"
        fill="#0083c4"/>
    <path
        id="path_2"
        clip-path="url(#clip_path_2)"
        d="M 79.431 304.659 L 146.389 249.77 Q 155.873 242.011 162.482 235.977 Q 169.092 229.655 173.116 224.195 Q 177.427 218.447 179.151 213.275 Q 181.163 207.815 181.163 201.493 Q 181.163 188.561 173.691 181.952 Q 166.219 175.342 154.149 175.342 Q 142.367 175.342 133.171 181.952 Q 124.262 188.562 113.055 202.356 L 82.018 177.354 Q 89.49 167.296 96.962 159.537 Q 104.721 151.778 113.342 146.605 Q 122.251 141.145 132.883 138.558 Q 143.516 135.684 157.023 135.684 Q 172.542 135.684 185.186 140.282 Q 198.118 144.593 207.026 152.639 Q 216.222 160.686 221.107 172.181 Q 226.28 183.676 226.28 197.757 L 226.28 198.332 Q 226.28 210.976 222.832 221.035 Q 219.671 230.806 213.061 239.714 Q 206.739 248.335 196.681 257.244 Q 186.623 265.865 173.404 276.211 L 140.643 301.5 L 228.293 301.5 L 228.293 339.72 L 79.432 339.72 L 79.432 304.661 Z"
        fill="#ffffff"/>
    <path
        id="path_3"
        clip-path="url(#clip_path_3)"
        d="M 339.519 234.252 Q 355.899 234.252 364.808 225.918 Q 374.004 217.297 374.004 204.365 L 374.004 203.79 Q 374.004 190.283 364.521 181.662 Q 355.325 173.041 338.657 173.041 Q 322.277 173.041 313.368 181.662 Q 304.459 189.996 304.459 203.503 L 304.459 204.078 Q 304.459 217.585 313.655 225.919 Q 323.138 234.253 339.519 234.253 Z M 331.185 343.167 Q 309.057 343.167 293.539 336.558 Q 278.021 329.948 265.089 319.315 L 288.366 285.692 Q 299.287 294.601 309.345 298.912 Q 319.403 302.935 332.335 302.935 Q 351.014 302.935 360.785 290.29 Q 370.843 277.646 373.142 257.242 Q 365.67 263.564 355.612 267.3 Q 345.554 271.036 332.335 271.036 Q 315.955 271.036 302.735 266.726 Q 289.516 262.128 280.032 253.794 Q 270.549 245.46 265.376 233.39 Q 260.491 221.32 260.491 206.089 L 260.491 205.514 Q 260.491 190.283 265.951 177.351 Q 271.699 164.419 281.757 155.223 Q 291.815 145.74 305.897 140.567 Q 320.266 135.107 337.221 135.107 Q 347.279 135.107 355.326 136.544 Q 363.66 137.693 370.557 140.28 Q 377.454 142.866 383.489 147.177 Q 389.524 151.2 395.271 156.948 Q 400.731 162.408 405.042 169.305 Q 409.353 176.202 412.514 185.398 Q 415.675 194.594 417.399 206.376 Q 419.123 217.871 419.123 232.815 L 419.123 233.39 Q 419.123 257.817 413.376 278.22 Q 407.629 298.337 396.421 312.705 Q 385.501 327.074 369.12 335.121 Q 352.74 343.167 331.187 343.167 Z"
        fill="#ffffff"/>
</svg>
