<svg
    xmlns="http://www.w3.org/2000/svg"
    viewBox="0 0 500 500"
    id="vector">
    <defs>
        <clipPath id="clip_path_1">
            <path d="M 250 9.259 C 181.658 9.259 120.009 37.797 76.181 83.541 C 34.768 126.781 9.259 185.393 9.259 250 C 9.259 382.957 117.052 490.74 250 490.74 C 337.764 490.74 414.532 443.758 456.615 373.607 C 478.28 337.475 490.74 295.211 490.74 250 C 490.74 117.043 382.957 9.259 250 9.259 Z"/>
        </clipPath>
        <clipPath id="clip_path_2">
            <path d="M 250 9.259 C 181.658 9.259 120.009 37.797 76.181 83.541 C 34.768 126.781 9.259 185.393 9.259 250 C 9.259 382.957 117.052 490.74 250 490.74 C 337.764 490.74 414.532 443.758 456.615 373.607 C 478.28 337.475 490.74 295.211 490.74 250 C 490.74 117.043 382.957 9.259 250 9.259 Z"/>
        </clipPath>
    </defs>
    <path
        id="path"
        d="M 250 9.259 C 181.658 9.259 120.009 37.797 76.181 83.541 C 34.768 126.781 9.259 185.393 9.259 250 C 9.259 382.957 117.052 490.74 250 490.74 C 337.764 490.74 414.532 443.758 456.615 373.607 C 478.28 337.475 490.74 295.211 490.74 250 C 490.74 117.043 382.957 9.259 250 9.259 Z"
        fill="#3393d0"/>
    <path
        id="path_1"
        clip-path="url(#clip_path_1)"
        d="M 303.62 11.547 C 303.62 11.547 166.178 47.345 140.398 159.017 C 114.637 270.688 101.752 383.789 153.284 436.777 C 204.824 489.746 295.03 486.888 295.03 486.888 C 295.03 486.888 3.201 654.405 -50.013 476.87 C -103.227 299.334 -92.973 -98.696 303.62 11.547 Z"
        fill="#0083c4"/>
    <path
        id="path_2"
        clip-path="url(#clip_path_2)"
        d="M 250.13 343.167 Q 222.829 343.167 203.575 333.684 Q 184.608 323.913 171.676 308.395 L 202.138 279.37 Q 212.483 291.152 223.691 297.475 Q 235.186 303.51 250.704 303.51 Q 263.349 303.51 271.108 296.9 Q 279.154 290.29 279.154 279.083 L 279.154 278.508 Q 279.154 266.151 268.808 259.541 Q 258.462 252.932 239.783 252.932 L 221.391 252.932 L 214.494 224.769 L 262.486 176.49 L 183.458 176.49 L 183.458 138.556 L 319.386 138.556 L 319.386 171.891 L 268.521 220.457 Q 278.867 222.181 288.35 225.917 Q 298.121 229.653 305.593 236.262 Q 313.352 242.871 317.95 252.93 Q 322.548 262.7 322.548 276.782 L 322.548 277.357 Q 322.548 291.725 317.375 303.795 Q 312.49 315.577 303.006 324.486 Q 293.81 333.395 280.303 338.28 Q 266.797 343.167 250.13 343.167 Z"
        fill="#ffffff"/>
</svg>
