<svg
    xmlns="http://www.w3.org/2000/svg"
    viewBox="0 0 500 500"
    id="vector">
    <defs>
        <clipPath id="clip_path_1">
            <path d="M 250 9.259 C 181.658 9.259 120.009 37.797 76.181 83.541 C 34.768 126.781 9.259 185.393 9.259 250 C 9.259 382.957 117.052 490.74 250 490.74 C 337.764 490.74 414.532 443.758 456.615 373.607 C 478.28 337.475 490.74 295.211 490.74 250 C 490.74 117.043 382.957 9.259 250 9.259 Z"/>
        </clipPath>
        <clipPath id="clip_path_2">
            <path d="M 250 9.259 C 181.658 9.259 120.009 37.797 76.181 83.541 C 34.768 126.781 9.259 185.393 9.259 250 C 9.259 382.957 117.052 490.74 250 490.74 C 337.764 490.74 414.532 443.758 456.615 373.607 C 478.28 337.475 490.74 295.211 490.74 250 C 490.74 117.043 382.957 9.259 250 9.259 Z"/>
        </clipPath>
        <clipPath id="clip_path_3">
            <path d="M 250 9.259 C 181.658 9.259 120.009 37.797 76.181 83.541 C 34.768 126.781 9.259 185.393 9.259 250 C 9.259 382.957 117.052 490.74 250 490.74 C 337.764 490.74 414.532 443.758 456.615 373.607 C 478.28 337.475 490.74 295.211 490.74 250 C 490.74 117.043 382.957 9.259 250 9.259 Z"/>
        </clipPath>
    </defs>
    <path
        id="path"
        d="M 250 9.259 C 181.658 9.259 120.009 37.797 76.181 83.541 C 34.768 126.781 9.259 185.393 9.259 250 C 9.259 382.957 117.052 490.74 250 490.74 C 337.764 490.74 414.532 443.758 456.615 373.607 C 478.28 337.475 490.74 295.211 490.74 250 C 490.74 117.043 382.957 9.259 250 9.259 Z"
        fill="#3393d0"/>
    <path
        id="path_1"
        clip-path="url(#clip_path_1)"
        d="M 303.62 11.547 C 303.62 11.547 166.178 47.345 140.398 159.017 C 114.637 270.688 101.752 383.789 153.284 436.777 C 204.824 489.746 295.03 486.888 295.03 486.888 C 295.03 486.888 3.201 654.405 -50.013 476.87 C -103.227 299.334 -92.973 -98.696 303.62 11.547 Z"
        fill="#0083c4"/>
    <path
        id="path_2"
        clip-path="url(#clip_path_2)"
        d="M 145.239 343.167 Q 117.938 343.167 98.684 333.684 Q 79.717 323.913 66.785 308.395 L 97.247 279.37 Q 107.593 291.152 118.8 297.475 Q 130.295 303.51 145.814 303.51 Q 158.458 303.51 166.217 296.9 Q 174.263 290.29 174.263 279.083 L 174.263 278.508 Q 174.263 266.151 163.917 259.541 Q 153.572 252.932 134.892 252.932 L 116.5 252.932 L 109.603 224.769 L 157.595 176.49 L 78.567 176.49 L 78.567 138.556 L 214.495 138.556 L 214.495 171.891 L 163.63 220.457 Q 173.976 222.181 183.459 225.917 Q 193.23 229.653 200.702 236.262 Q 208.461 242.871 213.059 252.93 Q 217.657 262.7 217.657 276.782 L 217.657 277.357 Q 217.657 291.725 212.484 303.795 Q 207.599 315.577 198.115 324.486 Q 188.919 333.395 175.412 338.28 Q 161.907 343.167 145.239 343.167 Z"
        fill="#ffffff"/>
    <path
        id="path_3"
        clip-path="url(#clip_path_3)"
        d="M 339.531 303.222 Q 349.589 303.222 357.636 298.624 Q 365.682 293.739 371.43 285.405 Q 377.178 276.784 380.051 265.289 Q 383.212 253.506 383.212 239.713 L 383.212 239.138 Q 383.212 225.344 380.051 213.849 Q 376.89 202.067 370.855 193.445 Q 365.108 184.824 356.774 179.938 Q 348.728 175.053 338.957 175.053 Q 328.899 175.053 320.852 179.938 Q 312.806 184.536 307.058 193.157 Q 301.598 201.491 298.437 213.273 Q 295.276 224.768 295.276 238.562 L 295.276 239.137 Q 295.276 252.931 298.437 264.713 Q 301.598 276.496 307.346 285.117 Q 313.093 293.451 321.14 298.336 Q 329.474 303.221 339.532 303.221 Z M 338.957 343.167 Q 318.84 343.167 302.172 335.408 Q 285.792 327.362 274.009 313.568 Q 262.514 299.486 256.192 280.52 Q 249.87 261.553 249.87 239.713 L 249.87 239.138 Q 249.87 217.297 256.192 198.331 Q 262.802 179.364 274.584 165.283 Q 286.366 151.202 302.747 143.155 Q 319.415 135.108 339.531 135.108 Q 359.36 135.108 375.74 143.155 Q 392.408 150.914 403.903 164.995 Q 415.685 178.789 422.008 197.756 Q 428.618 216.723 428.618 238.563 L 428.618 239.138 Q 428.618 260.978 422.008 279.945 Q 415.686 298.912 403.903 312.993 Q 392.121 327.074 375.453 335.121 Q 359.073 343.167 338.957 343.167 Z"
        fill="#ffffff"/>
</svg>
