<svg
    xmlns="http://www.w3.org/2000/svg"
    viewBox="0 0 500 500"
    id="vector">
    <defs>
        <clipPath id="clip_path_1">
            <path d="M 250 9.259 C 181.658 9.259 120.009 37.797 76.181 83.541 C 34.768 126.781 9.259 185.393 9.259 250 C 9.259 382.957 117.052 490.74 250 490.74 C 337.764 490.74 414.532 443.758 456.615 373.607 C 478.28 337.475 490.74 295.211 490.74 250 C 490.74 117.043 382.957 9.259 250 9.259 Z"/>
        </clipPath>
        <clipPath id="clip_path_2">
            <path d="M 250 9.259 C 181.658 9.259 120.009 37.797 76.181 83.541 C 34.768 126.781 9.259 185.393 9.259 250 C 9.259 382.957 117.052 490.74 250 490.74 C 337.764 490.74 414.532 443.758 456.615 373.607 C 478.28 337.475 490.74 295.211 490.74 250 C 490.74 117.043 382.957 9.259 250 9.259 Z"/>
        </clipPath>
    </defs>
    <path
        id="path"
        d="M 250 9.259 C 181.658 9.259 120.009 37.797 76.181 83.541 C 34.768 126.781 9.259 185.393 9.259 250 C 9.259 382.957 117.052 490.74 250 490.74 C 337.764 490.74 414.532 443.758 456.615 373.607 C 478.28 337.475 490.74 295.211 490.74 250 C 490.74 117.043 382.957 9.259 250 9.259 Z"
        fill="#3393d0"/>
    <path
        id="path_1"
        clip-path="url(#clip_path_1)"
        d="M 303.62 11.547 C 303.62 11.547 166.178 47.345 140.398 159.017 C 114.637 270.688 101.752 383.789 153.284 436.777 C 204.824 489.746 295.03 486.888 295.03 486.888 C 295.03 486.888 3.201 654.405 -50.013 476.87 C -103.227 299.334 -92.973 -98.696 303.62 11.547 Z"
        fill="#0083c4"/>
    <path
        id="path_2"
        clip-path="url(#clip_path_2)"
        d="M 247.112 343.167 Q 222.685 343.167 204.581 335.121 Q 186.476 327.074 171.82 312.993 L 198.546 281.094 Q 210.041 291.44 221.536 297.187 Q 233.031 302.935 246.538 302.935 Q 262.056 302.935 270.964 295.75 Q 280.16 288.566 280.16 275.059 L 280.16 274.485 Q 280.16 261.553 270.102 254.368 Q 260.331 247.184 244.526 247.184 Q 235.042 247.184 226.421 249.483 Q 218.087 251.495 210.903 254.656 L 185.326 237.701 L 191.074 138.557 L 314.645 138.557 L 314.645 177.353 L 229.007 177.353 L 226.708 212.125 Q 232.743 210.688 238.778 209.826 Q 244.813 208.677 253.147 208.677 Q 267.803 208.677 280.447 212.413 Q 293.379 216.149 302.862 223.908 Q 312.633 231.667 318.093 244.024 Q 323.553 256.094 323.553 273.049 L 323.553 273.624 Q 323.553 289.717 318.093 302.649 Q 312.633 315.293 302.575 324.489 Q 292.804 333.398 278.435 338.283 Q 264.355 343.167 247.112 343.167 Z"
        fill="#ffffff"/>
</svg>
