<svg
    xmlns="http://www.w3.org/2000/svg"
    viewBox="0 0 500 500"
    id="vector">
    <defs>
        <clipPath id="clip_path_1">
            <path d="M 250 9.259 C 181.658 9.259 120.009 37.797 76.181 83.541 C 34.768 126.781 9.259 185.393 9.259 250 C 9.259 382.957 117.052 490.74 250 490.74 C 337.764 490.74 414.532 443.758 456.615 373.607 C 478.28 337.475 490.74 295.211 490.74 250 C 490.74 117.043 382.957 9.259 250 9.259 Z"/>
        </clipPath>
        <clipPath id="clip_path_2">
            <path d="M 250 9.259 C 181.658 9.259 120.009 37.797 76.181 83.541 C 34.768 126.781 9.259 185.393 9.259 250 C 9.259 382.957 117.052 490.74 250 490.74 C 337.764 490.74 414.532 443.758 456.615 373.607 C 478.28 337.475 490.74 295.211 490.74 250 C 490.74 117.043 382.957 9.259 250 9.259 Z"/>
        </clipPath>
    </defs>
    <path
        id="path"
        d="M 250 9.259 C 181.658 9.259 120.009 37.797 76.181 83.541 C 34.768 126.781 9.259 185.393 9.259 250 C 9.259 382.957 117.052 490.74 250 490.74 C 337.764 490.74 414.532 443.758 456.615 373.607 C 478.28 337.475 490.74 295.211 490.74 250 C 490.74 117.043 382.957 9.259 250 9.259 Z"
        fill="#3393d0"/>
    <path
        id="path_1"
        clip-path="url(#clip_path_1)"
        d="M 303.62 11.547 C 303.62 11.547 166.178 47.345 140.398 159.017 C 114.637 270.688 101.752 383.789 153.284 436.777 C 204.824 489.746 295.03 486.888 295.03 486.888 C 295.03 486.888 3.201 654.405 -50.013 476.87 C -103.227 299.334 -92.973 -98.696 303.62 11.547 Z"
        fill="#0083c4"/>
    <path
        id="path_2"
        clip-path="url(#clip_path_2)"
        d="M 250.561 305.234 Q 266.941 305.234 275.85 296.9 Q 285.046 288.566 285.046 275.634 L 285.046 275.06 Q 285.046 262.128 275.563 254.081 Q 266.367 245.747 249.987 245.747 Q 233.606 245.747 224.41 253.794 Q 215.502 261.84 215.502 274.772 L 215.502 275.347 Q 215.502 288.279 224.698 296.9 Q 234.181 305.234 250.561 305.234 Z M 252.285 343.167 Q 232.456 343.167 218.662 337.707 Q 204.868 332.247 194.236 321.614 Q 183.315 310.694 176.706 293.164 Q 170.383 275.347 170.383 245.46 L 170.383 244.885 Q 170.383 221.608 175.556 201.492 Q 181.016 181.376 191.937 166.72 Q 202.857 152.064 219.525 143.73 Q 236.192 135.109 258.607 135.109 Q 268.953 135.109 277.574 136.546 Q 286.195 137.983 293.667 140.857 Q 301.139 143.731 308.036 148.041 Q 314.933 152.064 321.543 157.237 L 298.266 191.435 Q 293.381 187.699 288.783 184.825 Q 284.185 181.664 279.3 179.652 Q 274.415 177.64 268.955 176.491 Q 263.495 175.342 257.173 175.342 Q 247.69 175.342 240.505 179.078 Q 233.609 182.526 228.436 188.849 Q 223.55 194.884 220.677 203.505 Q 217.803 212.126 216.653 221.897 Q 224.125 217.012 233.609 212.988 Q 243.379 208.965 258.323 208.965 Q 273.266 208.965 286.198 213.276 Q 299.13 217.299 308.613 225.346 Q 318.096 233.392 323.556 245.462 Q 329.016 257.244 329.016 273.05 L 329.016 273.625 Q 329.016 289.143 322.981 302.075 Q 317.234 314.719 306.888 323.915 Q 296.83 333.111 282.749 338.284 Q 268.666 343.167 252.285 343.167 Z"
        fill="#ffffff"/>
</svg>
