<svg
    xmlns="http://www.w3.org/2000/svg"
    viewBox="0 0 500 500"
    id="vector">
    <defs>
        <clipPath id="clip_path_1">
            <path d="M 250 9.259 C 181.658 9.259 120.009 37.797 76.181 83.541 C 34.768 126.781 9.259 185.393 9.259 250 C 9.259 382.957 117.052 490.74 250 490.74 C 337.764 490.74 414.532 443.758 456.615 373.607 C 478.28 337.475 490.74 295.211 490.74 250 C 490.74 117.043 382.957 9.259 250 9.259 Z"/>
        </clipPath>
        <clipPath id="clip_path_2">
            <path d="M 250 9.259 C 181.658 9.259 120.009 37.797 76.181 83.541 C 34.768 126.781 9.259 185.393 9.259 250 C 9.259 382.957 117.052 490.74 250 490.74 C 337.764 490.74 414.532 443.758 456.615 373.607 C 478.28 337.475 490.74 295.211 490.74 250 C 490.74 117.043 382.957 9.259 250 9.259 Z"/>
        </clipPath>
    </defs>
    <path
        id="path"
        d="M 250 9.259 C 181.658 9.259 120.009 37.797 76.181 83.541 C 34.768 126.781 9.259 185.393 9.259 250 C 9.259 382.957 117.052 490.74 250 490.74 C 337.764 490.74 414.532 443.758 456.615 373.607 C 478.28 337.475 490.74 295.211 490.74 250 C 490.74 117.043 382.957 9.259 250 9.259 Z"
        fill="#3393d0"/>
    <path
        id="path_1"
        clip-path="url(#clip_path_1)"
        d="M 303.62 11.547 C 303.62 11.547 166.178 47.345 140.398 159.017 C 114.637 270.688 101.752 383.789 153.284 436.777 C 204.824 489.746 295.03 486.888 295.03 486.888 C 295.03 486.888 3.201 654.405 -50.013 476.87 C -103.227 299.334 -92.973 -98.696 303.62 11.547 Z"
        fill="#0083c4"/>
    <path
        id="path_2"
        clip-path="url(#clip_path_2)"
        d="M 249.986 306.096 Q 266.366 306.096 275.562 298.911 Q 284.758 291.727 284.758 281.094 L 284.758 280.52 Q 284.758 268.737 274.987 262.415 Q 265.216 255.805 249.985 255.805 Q 234.754 255.805 224.984 262.415 Q 215.213 268.737 215.213 280.52 L 215.213 281.094 Q 215.213 291.44 224.409 298.912 Q 233.605 306.096 249.985 306.096 Z M 249.986 220.746 Q 263.205 220.746 270.964 213.849 Q 278.723 206.952 278.723 196.319 L 278.723 195.744 Q 278.723 186.548 271.251 179.364 Q 263.779 172.18 249.985 172.18 Q 236.191 172.18 228.719 179.364 Q 221.248 186.261 221.248 195.457 L 221.248 196.032 Q 221.248 206.665 229.007 213.849 Q 236.766 220.746 249.985 220.746 Z M 249.986 342.593 Q 233.318 342.593 218.95 338.57 Q 204.868 334.259 194.523 326.787 Q 184.177 319.028 178.142 308.395 Q 172.395 297.762 172.395 284.543 L 172.395 283.968 Q 172.395 265.576 180.441 254.368 Q 188.775 242.873 204.868 235.402 Q 193.086 228.218 186.189 218.16 Q 179.292 207.815 179.292 191.434 L 179.292 190.859 Q 179.292 179.364 184.177 169.306 Q 189.35 159.248 198.546 151.776 Q 208.029 144.304 220.961 139.994 Q 233.893 135.683 249.986 135.683 Q 265.792 135.683 278.724 139.994 Q 291.943 144.305 301.139 151.776 Q 310.622 158.96 315.508 169.306 Q 320.681 179.364 320.681 190.859 L 320.681 191.434 Q 320.681 207.814 313.784 218.16 Q 306.887 228.218 295.105 235.403 Q 310.336 243.449 318.957 254.37 Q 327.578 265.002 327.578 282.82 L 327.578 283.394 Q 327.578 297.476 321.543 308.396 Q 315.796 319.316 305.45 327.075 Q 295.105 334.547 280.736 338.57 Q 266.655 342.594 249.987 342.594 Z"
        fill="#ffffff"/>
</svg>
