<svg
    xmlns="http://www.w3.org/2000/svg"
    viewBox="0 0 500 500"
    id="vector">
    <defs>
        <clipPath id="clip_path_1">
            <path d="M 250 9.259 C 181.658 9.259 120.009 37.797 76.181 83.541 C 34.768 126.781 9.259 185.393 9.259 250 C 9.259 382.957 117.052 490.74 250 490.74 C 337.764 490.74 414.532 443.758 456.615 373.607 C 478.28 337.475 490.74 295.211 490.74 250 C 490.74 117.043 382.957 9.259 250 9.259 Z"/>
        </clipPath>
        <clipPath id="clip_path_2">
            <path d="M 250 9.259 C 181.658 9.259 120.009 37.797 76.181 83.541 C 34.768 126.781 9.259 185.393 9.259 250 C 9.259 382.957 117.052 490.74 250 490.74 C 337.764 490.74 414.532 443.758 456.615 373.607 C 478.28 337.475 490.74 295.211 490.74 250 C 490.74 117.043 382.957 9.259 250 9.259 Z"/>
        </clipPath>
    </defs>
    <path
        id="path"
        d="M 250 9.259 C 181.658 9.259 120.009 37.797 76.181 83.541 C 34.768 126.781 9.259 185.393 9.259 250 C 9.259 382.957 117.052 490.74 250 490.74 C 337.764 490.74 414.532 443.758 456.615 373.607 C 478.28 337.475 490.74 295.211 490.74 250 C 490.74 117.043 382.957 9.259 250 9.259 Z"
        fill="#3393d0"/>
    <path
        id="path_1"
        clip-path="url(#clip_path_1)"
        d="M 303.62 11.547 C 303.62 11.547 166.178 47.345 140.398 159.017 C 114.637 270.688 101.752 383.789 153.284 436.777 C 204.824 489.746 295.03 486.888 295.03 486.888 C 295.03 486.888 3.201 654.405 -50.013 476.87 C -103.227 299.334 -92.973 -98.696 303.62 11.547 Z"
        fill="#0083c4"/>
    <path
        id="path_2"
        clip-path="url(#clip_path_2)"
        d="M 249.986 234.252 Q 266.366 234.252 275.275 225.918 Q 284.471 217.297 284.471 204.365 L 284.471 203.79 Q 284.471 190.283 274.988 181.662 Q 265.792 173.041 249.125 173.041 Q 232.744 173.041 223.836 181.662 Q 214.927 189.996 214.927 203.503 L 214.927 204.078 Q 214.927 217.585 224.123 225.919 Q 233.606 234.253 249.987 234.253 Z M 241.652 343.167 Q 219.525 343.167 204.006 336.558 Q 188.488 329.948 175.556 319.315 L 198.834 285.692 Q 209.754 294.601 219.812 298.912 Q 229.87 302.935 242.802 302.935 Q 261.481 302.935 271.252 290.29 Q 281.31 277.646 283.609 257.242 Q 276.137 263.564 266.079 267.3 Q 256.021 271.036 242.802 271.036 Q 226.421 271.036 213.202 266.726 Q 199.983 262.128 190.5 253.794 Q 181.016 245.46 175.844 233.39 Q 170.958 221.32 170.958 206.089 L 170.958 205.515 Q 170.958 190.284 176.418 177.352 Q 182.166 164.42 192.224 155.224 Q 202.282 145.741 216.363 140.568 Q 230.732 135.108 247.687 135.108 Q 257.745 135.108 265.792 136.545 Q 274.126 137.694 281.023 140.281 Q 287.92 142.867 293.955 147.178 Q 299.99 151.201 305.737 156.949 Q 311.197 162.409 315.508 169.306 Q 319.819 176.203 322.98 185.399 Q 326.141 194.595 327.865 206.377 Q 329.589 217.872 329.589 232.815 L 329.589 233.39 Q 329.589 257.817 323.841 278.22 Q 318.093 298.337 306.886 312.705 Q 295.966 327.074 279.585 335.121 Q 263.205 343.167 241.652 343.167 Z"
        fill="#ffffff"/>
</svg>
