<svg
    xmlns="http://www.w3.org/2000/svg"
    viewBox="0 0 500 500"
    id="vector">
    <defs>
        <clipPath id="clip_path_26">
            <path d="M 326.158 190.286 C 320.584 189.504 314.305 191.116 306.886 196.131 C 284.382 211.403 270.396 235.412 270.396 235.412 L 275.874 242.409 L 183.864 242.409 C 183.864 242.409 169.87 241.649 164.866 248.646 C 159.855 255.655 135.609 300.384 135.609 300.384 C 135.609 300.384 147.358 302.415 157.609 292.912 C 158.506 292.063 159.396 291.115 160.248 290.188 C 161.034 288.624 162.109 287.304 163.561 286.371 C 170.855 277.324 176.118 266.91 176.118 266.91 L 176.118 288.891 L 176.118 296.914 C 176.118 296.914 161.738 320.237 162.613 329.095 L 162.613 329.117 L 165.578 358.825 C 166.097 363.98 170.685 367.739 175.851 367.22 C 180.996 366.713 184.753 362.12 184.242 356.969 L 181.663 331.182 L 191.788 316.328 L 198.37 306.658 L 196.844 328.384 L 209.726 359.187 C 211.728 363.967 217.235 366.221 222.008 364.216 C 226.789 362.222 229.043 356.726 227.041 351.952 L 216.189 326.046 L 224.958 300.384 L 275.903 300.384 L 275.903 358.667 C 275.874 363.541 280.084 367.429 285.265 367.429 C 290.439 367.429 294.738 363.541 294.901 358.66 L 296.702 295.736 C 297.866 294.691 298.948 293.483 299.897 291.919 C 304.9 283.41 332.904 234.392 332.904 234.392 C 332.904 234.392 344.912 247.405 352.91 247.405 C 360.9 247.405 369.418 238.151 355.4 217.392 C 350.056 209.454 344.986 202.271 339.508 197.246 C 340.131 190.478 340.65 179.66 337.41 179.138 C 337.292 179.123 337.181 179.116 337.076 179.116 C 333.86 179.115 329.064 185.764 326.158 190.286"/>
        </clipPath>
        <clipPath id="clip_path_27">
            <path
                d="M 326.158 190.286 C 320.584 189.504 314.305 191.116 306.886 196.131 C 284.382 211.403 270.396 235.412 270.396 235.412 L 275.874 242.409 L 183.864 242.409 C 183.864 242.409 169.87 241.649 164.866 248.646 C 159.855 255.655 135.609 300.384 135.609 300.384 C 135.609 300.384 147.358 302.415 157.609 292.912 C 158.506 292.063 159.396 291.115 160.248 290.188 C 161.034 288.624 162.109 287.304 163.561 286.371 C 170.855 277.324 176.118 266.91 176.118 266.91 L 176.118 288.891 L 176.118 296.914 C 176.118 296.914 161.738 320.237 162.613 329.095 L 162.613 329.117 L 165.578 358.825 C 166.097 363.98 170.685 367.739 175.851 367.22 C 180.996 366.713 184.753 362.12 184.242 356.969 L 181.663 331.182 L 191.788 316.328 L 198.37 306.658 L 196.844 328.384 L 209.726 359.187 C 211.728 363.967 217.235 366.221 222.008 364.216 C 226.789 362.222 229.043 356.726 227.041 351.952 L 216.189 326.046 L 224.958 300.384 L 275.903 300.384 L 275.903 358.667 C 275.874 363.541 280.084 367.429 285.265 367.429 C 290.439 367.429 294.738 363.541 294.901 358.66 L 296.702 295.736 C 297.866 294.691 298.948 293.483 299.897 291.919 C 304.9 283.41 332.904 234.392 332.904 234.392 C 332.904 234.392 344.912 247.405 352.91 247.405 C 360.9 247.405 369.418 238.151 355.4 217.392 C 350.056 209.454 344.986 202.271 339.508 197.246 C 340.131 190.478 340.65 179.66 337.41 179.138 C 337.292 179.123 337.181 179.116 337.076 179.116 C 333.86 179.115 329.064 185.764 326.158 190.286"
                clip-path="url(#clip_path_27_1)"/>
        </clipPath>
        <clipPath id="clip_path_27_1">
            <path d="M 326.158 190.286 C 320.584 189.504 314.305 191.116 306.886 196.131 C 284.382 211.403 270.396 235.412 270.396 235.412 L 275.874 242.409 L 183.864 242.409 C 183.864 242.409 169.87 241.649 164.866 248.646 C 159.855 255.655 135.609 300.384 135.609 300.384 C 135.609 300.384 147.358 302.415 157.609 292.912 C 158.506 292.063 159.396 291.115 160.248 290.188 C 161.034 288.624 162.109 287.304 163.561 286.371 C 170.855 277.324 176.118 266.91 176.118 266.91 L 176.118 288.891 L 176.118 296.914 C 176.118 296.914 161.738 320.237 162.613 329.095 L 162.613 329.117 L 165.578 358.825 C 166.097 363.98 170.685 367.739 175.851 367.22 C 180.996 366.713 184.753 362.12 184.242 356.969 L 181.663 331.182 L 191.788 316.328 L 198.37 306.658 L 196.844 328.384 L 209.726 359.187 C 211.728 363.967 217.235 366.221 222.008 364.216 C 226.789 362.222 229.043 356.726 227.041 351.952 L 216.189 326.046 L 224.958 300.384 L 275.903 300.384 L 275.903 358.667 C 275.874 363.541 280.084 367.429 285.265 367.429 C 290.439 367.429 294.738 363.541 294.901 358.66 L 296.702 295.736 C 297.866 294.691 298.948 293.483 299.897 291.919 C 304.9 283.41 332.904 234.392 332.904 234.392 C 332.904 234.392 344.912 247.405 352.91 247.405 C 360.9 247.405 369.418 238.151 355.4 217.392 C 350.056 209.454 344.986 202.271 339.508 197.246 C 340.131 190.478 340.65 179.66 337.41 179.138 C 337.292 179.123 337.181 179.116 337.076 179.116 C 333.86 179.115 329.064 185.764 326.158 190.286"/>
        </clipPath>
    </defs>
    <path
        id="path"
        d="M 247.432 11.385 C 179.691 11.385 118.583 39.667 75.14 85.012 C 34.097 127.874 8.821 185.961 8.821 250 C 8.821 381.78 115.655 488.614 247.432 488.614 C 334.423 488.614 410.511 442.05 452.22 372.521 C 473.687 336.701 486.058 294.81 486.058 250 C 486.058 118.219 379.208 11.385 247.432 11.385"
        fill="#fddbc3"/>
    <path
        id="path_1"
        d="M 247.432 11.385 C 179.691 11.385 118.583 39.667 75.14 85.012 C 34.097 127.874 8.821 185.961 8.821 250 C 8.821 381.78 115.655 488.614 247.432 488.614 C 334.423 488.614 410.511 442.05 452.22 372.521 C 473.687 336.701 486.058 294.81 486.058 250 C 486.058 118.219 379.208 11.385 247.432 11.385"
        fill="#faece4"/>
    <path
        id="path_2"
        d="M 242.281 65.776 L 256.157 65.776 L 256.157 379.452 L 242.281 379.452 Z"
        fill="#ebb427"/>
    <path
        id="path_3"
        d="M 138.982 149.184 C 138.982 161.351 129.109 171.224 116.923 171.224 C 104.752 171.224 94.871 161.351 94.871 149.184 C 94.871 137.001 104.752 127.136 116.923 127.136 C 129.109 127.136 138.982 137.002 138.982 149.184"
        fill="#be3f27"/>
    <path
        id="path_4"
        d="M 183.071 149.184 C 183.071 161.351 173.22 171.224 161.027 171.224 C 148.855 171.224 138.982 161.351 138.982 149.184 C 138.982 137.001 148.855 127.136 161.027 127.136 C 173.22 127.136 183.071 137.002 183.071 149.184"
        fill="#ebb427"/>
    <path
        id="path_5"
        d="M 227.189 149.184 C 227.189 161.351 217.331 171.224 205.145 171.224 C 192.958 171.224 183.078 161.351 183.078 149.184 C 183.078 137.001 192.959 127.136 205.145 127.136 C 217.33 127.136 227.189 137.002 227.189 149.184"
        fill="#be3f27"/>
    <path
        id="path_6"
        d="M 271.3 149.184 C 271.3 161.351 261.426 171.224 249.248 171.224 C 237.061 171.224 227.188 161.351 227.188 149.184 C 227.188 137.001 237.061 127.136 249.248 127.136 C 261.426 127.136 271.3 137.002 271.3 149.184"
        fill="#ebb427"/>
    <path
        id="path_7"
        d="M 315.418 149.184 C 315.418 161.351 305.537 171.224 293.366 171.224 C 281.179 171.224 271.306 161.351 271.306 149.184 C 271.306 137.001 281.179 127.136 293.366 127.136 C 305.537 127.136 315.418 137.002 315.418 149.184"
        fill="#be3f27"/>
    <path
        id="path_8"
        d="M 359.529 149.184 C 359.529 161.351 349.648 171.224 337.477 171.224 C 325.291 171.224 315.425 161.351 315.425 149.184 C 315.425 137.001 325.291 127.136 337.477 127.136 C 349.648 127.136 359.529 137.002 359.529 149.184"
        fill="#ebb427"/>
    <path
        id="path_9"
        d="M 403.632 149.184 C 403.632 161.351 393.751 171.224 381.573 171.224 C 369.409 171.224 359.528 161.351 359.528 149.184 C 359.528 137.001 369.409 127.136 381.573 127.136 C 393.751 127.136 403.632 137.002 403.632 149.184"
        fill="#be3f27"/>
    <path
        id="path_10"
        d="M 94.871 126.592 L 138.982 126.592 L 138.982 149.185 L 94.871 149.185 Z"
        fill="#be3f27"/>
    <path
        id="path_11"
        d="M 138.974 126.592 L 183.071 126.592 L 183.071 149.185 L 138.974 149.185 Z"
        fill="#ebb427"/>
    <path
        id="path_12"
        d="M 183.077 126.592 L 227.181 126.592 L 227.181 149.185 L 183.077 149.185 Z"
        fill="#be3f27"/>
    <path
        id="path_13"
        d="M 227.174 126.592 L 271.292 126.592 L 271.292 149.185 L 227.174 149.185 Z"
        fill="#ebb427"/>
    <path
        id="path_14"
        d="M 271.292 126.592 L 315.396 126.592 L 315.396 149.185 L 271.292 149.185 Z"
        fill="#be3f27"/>
    <path
        id="path_15"
        d="M 315.396 126.592 L 359.5 126.592 L 359.5 149.185 L 315.396 149.185 Z"
        fill="#ebb427"/>
    <path
        id="path_16"
        d="M 359.499 126.592 L 403.61 126.592 L 403.61 149.185 L 359.499 149.185 Z"
        fill="#be3f27"/>
    <path
        id="path_17"
        d="M 205.775 65.776 L 138.959 126.592 L 94.841 126.592 L 188.03 65.776 Z"
        fill="#be3f27"/>
    <path
        id="path_18"
        d="M 223.505 65.776 L 183.071 126.592 L 138.959 126.592 L 205.775 65.776 Z"
        fill="#ebb427"/>
    <path
        id="path_19"
        d="M 241.242 65.776 L 227.174 126.592 L 183.071 126.592 L 223.505 65.776 Z"
        fill="#be3f27"/>
    <path
        id="path_20"
        d="M 259.002 65.776 L 271.255 126.592 L 227.174 126.592 L 241.25 65.776 Z"
        fill="#ebb427"/>
    <path
        id="path_21"
        d="M 276.74 65.776 L 315.373 126.592 L 271.255 126.592 L 259.002 65.776 Z"
        fill="#be3f27"/>
    <path
        id="path_22"
        d="M 294.486 65.776 L 359.491 126.592 L 315.373 126.592 L 276.74 65.776 Z"
        fill="#ebb427"/>
    <path
        id="path_23"
        d="M 312.231 65.776 L 403.595 126.592 L 359.491 126.592 L 294.486 65.776 Z"
        fill="#be3f27"/>
    <path
        id="path_24"
        d="M 403.632 399.088 C 403.632 409.936 394.841 418.723 383.989 418.723 L 114.506 418.723 C 103.654 418.723 94.871 409.936 94.871 399.088 C 94.871 388.24 103.655 379.452 114.506 379.452 L 383.99 379.452 C 394.841 379.452 403.632 388.24 403.632 399.088"
        fill="#be3f27"/>
    <path
        id="path_25"
        d="M 355.4 217.396 C 350.056 209.458 344.979 202.267 339.508 197.252 C 340.131 190.481 340.65 179.655 337.403 179.141 C 334.209 178.64 329.169 185.601 326.159 190.286 C 320.585 189.511 314.3 191.112 306.887 196.138 C 284.376 211.4 270.397 235.409 270.397 235.409 L 275.875 242.406 L 183.865 242.406 C 183.865 242.406 169.871 241.646 164.867 248.647 C 159.856 255.66 135.603 300.389 135.603 300.389 C 135.603 300.389 147.352 302.416 157.61 292.913 C 158.507 292.068 159.397 291.112 160.249 290.193 C 161.028 288.629 162.11 287.302 163.562 286.376 C 170.864 277.329 176.112 266.907 176.112 266.907 L 176.112 288.888 L 176.112 296.919 C 176.112 296.919 161.739 320.234 162.614 329.1 L 162.614 329.119 L 165.579 358.824 C 166.098 363.986 170.693 367.744 175.852 367.229 C 180.997 366.71 184.754 362.119 184.243 356.974 L 181.671 331.19 L 191.789 316.336 L 198.379 306.667 L 196.845 328.381 L 209.727 359.191 C 211.736 363.972 217.229 366.218 222.009 364.213 C 226.79 362.219 229.044 356.723 227.042 351.956 L 216.19 326.043 L 224.959 300.389 L 275.904 300.389 L 275.904 358.664 C 275.875 363.538 280.085 367.434 285.266 367.434 C 290.44 367.434 294.739 363.538 294.902 358.658 L 296.703 295.734 C 297.867 294.689 298.957 293.481 299.905 291.917 C 304.901 283.412 332.905 234.401 332.905 234.401 C 332.905 234.401 344.913 247.402 352.904 247.402 C 360.9 247.401 369.417 238.147 355.4 217.396"
        fill="#bc7c56"/>
    <path
        id="path_26"
        clip-path="url(#clip_path_26)"
        d="M 189.445 242.409 C 189.445 242.409 175.866 238.629 165.741 258.872 C 155.616 279.123 138.827 311.222 138.827 311.222 L 120.8 297.895 C 120.799 297.894 168.957 214.583 189.445 242.409"
        fill="#a26748"/>
    <path
        id="path_27"
        clip-path="url(#clip_path_27)"
        d="M 176.111 266.911 C 176.111 266.911 181.292 274.434 181.292 285.546 L 181.292 298.135 C 181.292 298.135 167.224 324.309 167.476 327.026 C 167.713 329.742 170.678 359.625 170.678 359.625 C 170.678 359.625 171.723 365.829 176.748 367.049 C 181.789 368.265 165.496 376.911 156.853 374.936 C 148.202 372.963 137.588 345.052 176.111 266.911"
        fill="#a26748"/>
</svg>
