<svg
    xmlns="http://www.w3.org/2000/svg"
    viewBox="0 0 500 500"
    id="vector">
    <defs>
        <clipPath id="clip_path_4">
            <path d="M 0 0 L 100 0 L 100 100 L 0 100 L 0 0 Z"/>
        </clipPath>
    </defs>
    <path
        id="path"
        d="M 418.464 368.983 C 418.464 387.476 403.473 402.471 384.983 402.471 L 115.021 402.471 C 96.524 402.471 81.533 387.476 81.533 368.983 L 81.533 149.244 C 81.533 130.758 96.524 115.769 115.021 115.769 L 384.983 115.769 C 403.473 115.769 418.464 130.757 418.464 149.244 L 418.464 368.983 Z"
        fill="#e3a56d"/>
    <path
        id="path_1"
        d="M 384.979 410.054 L 115.018 410.054 C 92.37 410.054 73.946 391.627 73.946 368.983 L 73.946 149.244 C 73.946 126.592 92.37 108.18 115.018 108.18 L 384.979 108.18 C 407.631 108.18 426.058 126.592 426.058 149.244 L 426.058 368.983 C 426.058 391.628 407.631 410.054 384.979 410.054 M 115.018 123.36 C 100.742 123.36 89.126 134.967 89.126 149.244 L 89.126 368.983 C 89.126 383.266 100.741 394.874 115.018 394.874 L 384.979 394.874 C 399.258 394.874 410.877 383.267 410.877 368.983 L 410.877 149.244 C 410.877 134.968 399.258 123.36 384.979 123.36 L 115.018 123.36 Z"
        fill="#9c7850"/>
    <path
        id="path_2"
        d="M 265.262 264.788 L 234.735 264.788 C 220.632 264.788 209.199 276.218 209.199 290.323 L 209.199 394.882 L 290.795 394.882 L 290.795 290.323 C 290.794 276.218 279.364 264.788 265.262 264.788"
        fill="#6b5137"/>
    <path
        id="path_3"
        d="M 449.292 151.26 L 376.176 86.743 C 367.37 78.968 348.655 72.964 333.959 72.964 L 255.711 72.964 L 244.296 72.964 L 166.048 72.964 C 151.345 72.964 132.625 78.968 123.823 86.743 L 50.704 151.26 C 37.014 163.342 41.257 173.749 61.052 173.749 L 244.296 173.749 L 255.711 173.749 L 438.947 173.749 C 458.742 173.749 462.993 163.342 449.292 151.26"
        fill="#dd6357"/>
    <path
        id="path_4"
        clip-path="url(#clip_path_4)"
        d="M 86.925 173.749 L 410.458 173.749 L 410.458 215.555 L 86.925 215.555 Z"
        fill="#9d7851"
        fill-opacity="0.1"
        stroke-opacity="0.1"
        stroke-width="1"/>
</svg>
