<svg
    xmlns="http://www.w3.org/2000/svg"
    viewBox="0 0 500 500"
    id="vector">
    <defs>
        <clipPath id="clip_path_1">
            <path d="M 440.146 126.599 C 445.305 134.034 443.452 144.233 436.025 149.377 L 119.888 368.294 C 112.446 373.445 102.261 371.6 97.132 364.165 L 59.862 310.358 C 54.711 302.923 56.556 292.732 63.983 287.587 L 380.128 68.656 C 387.547 63.512 397.754 65.365 402.884 72.792 L 440.146 126.599 Z"/>
        </clipPath>
        <clipPath id="clip_group">
            <path d="M 440.146 126.599 C 445.305 134.034 443.452 144.233 436.025 149.377 L 119.888 368.294 C 112.446 373.445 102.261 371.6 97.132 364.165 L 59.862 310.358 C 54.711 302.923 56.556 292.732 63.983 287.587 L 380.128 68.656 C 387.547 63.512 397.754 65.365 402.884 72.792 L 440.146 126.599 Z"/>
        </clipPath>
        <clipPath id="clip_path_7">
            <path
                d="M 440.146 126.599 C 445.305 134.034 443.452 144.233 436.025 149.377 L 119.888 368.294 C 112.446 373.445 102.261 371.6 97.132 364.165 L 59.862 310.358 C 54.711 302.923 56.556 292.732 63.983 287.587 L 380.128 68.656 C 387.547 63.512 397.754 65.365 402.884 72.792 L 440.146 126.599 Z"
                clip-path="url(#clip_path_7_1)"/>
        </clipPath>
        <clipPath id="clip_path_7_1">
            <path d="M 440.146 126.599 C 445.305 134.034 443.452 144.233 436.025 149.377 L 119.888 368.294 C 112.446 373.445 102.261 371.6 97.132 364.165 L 59.862 310.358 C 54.711 302.923 56.556 292.732 63.983 287.587 L 380.128 68.656 C 387.547 63.512 397.754 65.365 402.884 72.792 L 440.146 126.599 Z"/>
        </clipPath>
        <clipPath id="clip_path_8">
            <path
                d="M 440.146 126.599 C 445.305 134.034 443.452 144.233 436.025 149.377 L 119.888 368.294 C 112.446 373.445 102.261 371.6 97.132 364.165 L 59.862 310.358 C 54.711 302.923 56.556 292.732 63.983 287.587 L 380.128 68.656 C 387.547 63.512 397.754 65.365 402.884 72.792 L 440.146 126.599 Z"
                clip-path="url(#clip_path_8_1)"/>
        </clipPath>
        <clipPath id="clip_path_8_1">
            <path
                d="M 440.146 126.599 C 445.305 134.034 443.452 144.233 436.025 149.377 L 119.888 368.294 C 112.446 373.445 102.261 371.6 97.132 364.165 L 59.862 310.358 C 54.711 302.923 56.556 292.732 63.983 287.587 L 380.128 68.656 C 387.547 63.512 397.754 65.365 402.884 72.792 L 440.146 126.599 Z"
                clip-path="url(#clip_path_8_2)"/>
        </clipPath>
        <clipPath id="clip_path_8_2">
            <path d="M 59.863 126.599 C 54.712 134.034 56.557 144.233 63.984 149.377 L 380.129 368.294 C 387.548 373.445 397.755 371.6 402.885 364.165 L 440.147 310.358 C 445.306 302.923 443.453 292.732 436.026 287.587 L 119.888 68.656 C 112.446 63.512 102.261 65.365 97.132 72.792 L 59.863 126.599 Z"/>
        </clipPath>
        <clipPath id="clip_group_1">
            <path
                d="M 440.146 126.599 C 445.305 134.034 443.452 144.233 436.025 149.377 L 119.888 368.294 C 112.446 373.445 102.261 371.6 97.132 364.165 L 59.862 310.358 C 54.711 302.923 56.556 292.732 63.983 287.587 L 380.128 68.656 C 387.547 63.512 397.754 65.365 402.884 72.792 L 440.146 126.599 Z"
                clip-path="url(#clip_group_1_1)"/>
        </clipPath>
        <clipPath id="clip_group_1_1">
            <path
                d="M 440.146 126.599 C 445.305 134.034 443.452 144.233 436.025 149.377 L 119.888 368.294 C 112.446 373.445 102.261 371.6 97.132 364.165 L 59.862 310.358 C 54.711 302.923 56.556 292.732 63.983 287.587 L 380.128 68.656 C 387.547 63.512 397.754 65.365 402.884 72.792 L 440.146 126.599 Z"
                clip-path="url(#clip_group_1_2)"/>
        </clipPath>
        <clipPath id="clip_group_1_2">
            <path d="M 59.863 126.599 C 54.712 134.034 56.557 144.233 63.984 149.377 L 380.129 368.294 C 387.548 373.445 397.755 371.6 402.885 364.165 L 440.147 310.358 C 445.306 302.923 443.453 292.732 436.026 287.587 L 119.888 68.656 C 112.446 63.512 102.261 65.365 97.132 72.792 L 59.863 126.599 Z"/>
        </clipPath>
        <clipPath id="clip_path_14">
            <path
                d="M 440.146 126.599 C 445.305 134.034 443.452 144.233 436.025 149.377 L 119.888 368.294 C 112.446 373.445 102.261 371.6 97.132 364.165 L 59.862 310.358 C 54.711 302.923 56.556 292.732 63.983 287.587 L 380.128 68.656 C 387.547 63.512 397.754 65.365 402.884 72.792 L 440.146 126.599 Z"
                clip-path="url(#clip_path_14_1)"/>
        </clipPath>
        <clipPath id="clip_path_14_1">
            <path
                d="M 440.146 126.599 C 445.305 134.034 443.452 144.233 436.025 149.377 L 119.888 368.294 C 112.446 373.445 102.261 371.6 97.132 364.165 L 59.862 310.358 C 54.711 302.923 56.556 292.732 63.983 287.587 L 380.128 68.656 C 387.547 63.512 397.754 65.365 402.884 72.792 L 440.146 126.599 Z"
                clip-path="url(#clip_path_14_2)"/>
        </clipPath>
        <clipPath id="clip_path_14_2">
            <path d="M 59.863 126.599 C 54.712 134.034 56.557 144.233 63.984 149.377 L 380.129 368.294 C 387.548 373.445 397.755 371.6 402.885 364.165 L 440.147 310.358 C 445.306 302.923 443.453 292.732 436.026 287.587 L 119.888 68.656 C 112.446 63.512 102.261 65.365 97.132 72.792 L 59.863 126.599 Z"/>
        </clipPath>
        <clipPath id="clip_path_15">
            <path
                d="M 440.146 126.599 C 445.305 134.034 443.452 144.233 436.025 149.377 L 119.888 368.294 C 112.446 373.445 102.261 371.6 97.132 364.165 L 59.862 310.358 C 54.711 302.923 56.556 292.732 63.983 287.587 L 380.128 68.656 C 387.547 63.512 397.754 65.365 402.884 72.792 L 440.146 126.599 Z"
                clip-path="url(#clip_path_15_1)"/>
        </clipPath>
        <clipPath id="clip_path_15_1">
            <path
                d="M 440.146 126.599 C 445.305 134.034 443.452 144.233 436.025 149.377 L 119.888 368.294 C 112.446 373.445 102.261 371.6 97.132 364.165 L 59.862 310.358 C 54.711 302.923 56.556 292.732 63.983 287.587 L 380.128 68.656 C 387.547 63.512 397.754 65.365 402.884 72.792 L 440.146 126.599 Z"
                clip-path="url(#clip_path_15_2)"/>
        </clipPath>
        <clipPath id="clip_path_15_2">
            <path d="M 59.863 126.599 C 54.712 134.034 56.557 144.233 63.984 149.377 L 380.129 368.294 C 387.548 373.445 397.755 371.6 402.885 364.165 L 440.147 310.358 C 445.306 302.923 443.453 292.732 436.026 287.587 L 119.888 68.656 C 112.446 63.512 102.261 65.365 97.132 72.792 L 59.863 126.599 Z"/>
        </clipPath>
        <clipPath id="clip_path_2">
            <path d="M 440.146 126.599 C 445.305 134.034 443.452 144.233 436.025 149.377 L 119.888 368.294 C 112.446 373.445 102.261 371.6 97.132 364.165 L 59.862 310.358 C 54.711 302.923 56.556 292.732 63.983 287.587 L 380.128 68.656 C 387.547 63.512 397.754 65.365 402.884 72.792 L 440.146 126.599 Z"/>
        </clipPath>
        <clipPath id="clip_path_3">
            <path d="M 440.146 126.599 C 445.305 134.034 443.452 144.233 436.025 149.377 L 119.888 368.294 C 112.446 373.445 102.261 371.6 97.132 364.165 L 59.862 310.358 C 54.711 302.923 56.556 292.732 63.983 287.587 L 380.128 68.656 C 387.547 63.512 397.754 65.365 402.884 72.792 L 440.146 126.599 Z"/>
        </clipPath>
        <clipPath id="clip_path_4">
            <path d="M 440.146 126.599 C 445.305 134.034 443.452 144.233 436.025 149.377 L 119.888 368.294 C 112.446 373.445 102.261 371.6 97.132 364.165 L 59.862 310.358 C 54.711 302.923 56.556 292.732 63.983 287.587 L 380.128 68.656 C 387.547 63.512 397.754 65.365 402.884 72.792 L 440.146 126.599 Z"/>
        </clipPath>
        <clipPath id="clip_path_5">
            <path d="M 440.146 126.599 C 445.305 134.034 443.452 144.233 436.025 149.377 L 119.888 368.294 C 112.446 373.445 102.261 371.6 97.132 364.165 L 59.862 310.358 C 54.711 302.923 56.556 292.732 63.983 287.587 L 380.128 68.656 C 387.547 63.512 397.754 65.365 402.884 72.792 L 440.146 126.599 Z"/>
        </clipPath>
        <clipPath id="clip_path_6">
            <path d="M 440.146 126.599 C 445.305 134.034 443.452 144.233 436.025 149.377 L 119.888 368.294 C 112.446 373.445 102.261 371.6 97.132 364.165 L 59.862 310.358 C 54.711 302.923 56.556 292.732 63.983 287.587 L 380.128 68.656 C 387.547 63.512 397.754 65.365 402.884 72.792 L 440.146 126.599 Z"/>
        </clipPath>
        <clipPath id="clip_path_9">
            <path d="M 59.863 126.599 C 54.712 134.034 56.557 144.233 63.984 149.377 L 380.129 368.294 C 387.548 373.445 397.755 371.6 402.885 364.165 L 440.147 310.358 C 445.306 302.923 443.453 292.732 436.026 287.587 L 119.888 68.656 C 112.446 63.512 102.261 65.365 97.132 72.792 L 59.863 126.599 Z"/>
        </clipPath>
        <clipPath id="clip_path_10">
            <path d="M 59.863 126.599 C 54.712 134.034 56.557 144.233 63.984 149.377 L 380.129 368.294 C 387.548 373.445 397.755 371.6 402.885 364.165 L 440.147 310.358 C 445.306 302.923 443.453 292.732 436.026 287.587 L 119.888 68.656 C 112.446 63.512 102.261 65.365 97.132 72.792 L 59.863 126.599 Z"/>
        </clipPath>
        <clipPath id="clip_path_11">
            <path d="M 59.863 126.599 C 54.712 134.034 56.557 144.233 63.984 149.377 L 380.129 368.294 C 387.548 373.445 397.755 371.6 402.885 364.165 L 440.147 310.358 C 445.306 302.923 443.453 292.732 436.026 287.587 L 119.888 68.656 C 112.446 63.512 102.261 65.365 97.132 72.792 L 59.863 126.599 Z"/>
        </clipPath>
        <clipPath id="clip_path_12">
            <path d="M 59.863 126.599 C 54.712 134.034 56.557 144.233 63.984 149.377 L 380.129 368.294 C 387.548 373.445 397.755 371.6 402.885 364.165 L 440.147 310.358 C 445.306 302.923 443.453 292.732 436.026 287.587 L 119.888 68.656 C 112.446 63.512 102.261 65.365 97.132 72.792 L 59.863 126.599 Z"/>
        </clipPath>
        <clipPath id="clip_path_13">
            <path d="M 59.863 126.599 C 54.712 134.034 56.557 144.233 63.984 149.377 L 380.129 368.294 C 387.548 373.445 397.755 371.6 402.885 364.165 L 440.147 310.358 C 445.306 302.923 443.453 292.732 436.026 287.587 L 119.888 68.656 C 112.446 63.512 102.261 65.365 97.132 72.792 L 59.863 126.599 Z"/>
        </clipPath>
    </defs>
    <path
        id="path"
        d="M 220.347 160.703 L 280.18 160.703 L 280.18 471.606 L 220.347 471.606 Z"
        fill="#595a5a"/>
    <path
        id="path_1"
        clip-path="url(#clip_path_1)"
        d="M 440.146 126.599 C 445.305 134.034 443.452 144.233 436.025 149.377 L 119.888 368.294 C 112.446 373.445 102.261 371.6 97.132 364.165 L 59.862 310.358 C 54.711 302.923 56.556 292.732 63.983 287.587 L 380.128 68.656 C 387.547 63.512 397.754 65.365 402.884 72.792 L 440.146 126.599 Z"
        fill="#ece2d8"/>
    <g
        id="group"
        clip-path="url(#clip_group)">
        <path
            id="path_2"
            clip-path="url(#clip_path_2)"
            d="M 64.828 287.003 L 102.943 260.606 L 127.738 362.868 L 89.615 389.262 Z"
            fill="#d72027"/>
        <path
            id="path_3"
            clip-path="url(#clip_path_3)"
            d="M 141.05 234.212 L 179.171 207.816 L 203.958 310.077 L 165.844 336.472 Z"
            fill="#d72027"/>
        <path
            id="path_4"
            clip-path="url(#clip_path_4)"
            d="M 217.293 181.428 L 255.4 155.025 L 280.187 257.286 L 242.08 283.681 Z"
            fill="#d72027"/>
        <path
            id="path_5"
            clip-path="url(#clip_path_5)"
            d="M 293.515 128.637 L 331.636 102.235 L 356.423 204.495 L 318.309 230.89 Z"
            fill="#d72027"/>
        <path
            id="path_6"
            clip-path="url(#clip_path_6)"
            d="M 369.758 75.846 L 407.872 49.444 L 432.652 151.705 L 394.53 178.1 Z"
            fill="#d72027"/>
    </g>
    <path
        id="path_7"
        clip-path="url(#clip_path_7)"
        d="M 389.43 379.397 C 384.427 379.397 379.586 377.885 375.473 375.024 L 59.328 156.1 C 53.939 152.371 50.33 146.767 49.159 140.304 C 47.98 133.855 49.388 127.332 53.124 121.951 L 90.379 68.137 C 94.967 61.526 102.513 57.567 110.593 57.567 C 115.581 57.567 120.421 59.079 124.542 61.941 L 440.679 280.857 C 446.068 284.592 449.678 290.197 450.849 296.645 C 452.028 303.109 450.62 309.624 446.883 315.013 L 409.629 368.826 C 405.04 375.439 397.494 379.397 389.43 379.397 L 389.43 379.397 Z"
        fill="#231f20"
        fill-opacity="0.5"
        stroke-opacity="0.5"
        stroke-width="1"/>
    <path
        id="path_8"
        clip-path="url(#clip_path_8)"
        d="M 59.863 126.599 C 54.712 134.034 56.557 144.233 63.984 149.377 L 380.129 368.294 C 387.548 373.445 397.755 371.6 402.885 364.165 L 440.147 310.358 C 445.306 302.923 443.453 292.732 436.026 287.587 L 119.888 68.656 C 112.446 63.512 102.261 65.365 97.132 72.792 L 59.863 126.599 Z"
        fill="#ece2d8"/>
    <g
        id="group_1"
        clip-path="url(#clip_group_1)">
        <path
            id="path_9"
            clip-path="url(#clip_path_9)"
            d="M 435.179 287.003 L 397.065 260.606 L 372.271 362.868 L 410.393 389.262 Z"
            fill="#d72027"/>
        <path
            id="path_10"
            clip-path="url(#clip_path_10)"
            d="M 358.958 234.212 L 320.836 207.816 L 296.049 310.077 L 334.163 336.472 Z"
            fill="#d72027"/>
        <path
            id="path_11"
            clip-path="url(#clip_path_11)"
            d="M 282.722 181.428 L 244.608 155.025 L 219.821 257.286 L 257.928 283.681 Z"
            fill="#d72027"/>
        <path
            id="path_12"
            clip-path="url(#clip_path_12)"
            d="M 206.493 128.637 L 168.371 102.235 L 143.585 204.495 L 181.692 230.89 Z"
            fill="#d72027"/>
        <path
            id="path_13"
            clip-path="url(#clip_path_13)"
            d="M 130.25 75.846 L 92.136 49.444 L 67.357 151.705 L 105.463 178.1 Z"
            fill="#d72027"/>
    </g>
    <path
        id="path_14"
        clip-path="url(#clip_path_14)"
        d="M 59.863 126.599 C 54.712 134.034 56.557 144.233 63.984 149.377 L 380.129 368.294 C 387.548 373.445 397.755 371.6 402.885 364.165 L 440.147 310.358 C 445.306 302.923 443.453 292.732 436.026 287.587 L 119.888 68.656 C 112.446 63.512 102.261 65.365 97.132 72.792 L 59.863 126.599 Z"
        fill="none"/>
    <path
        id="path_15"
        clip-path="url(#clip_path_15)"
        d="M 280.18 475.016 C 280.18 482.577 274.057 488.7 266.49 488.7 L 234.031 488.7 C 226.463 488.7 220.347 482.577 220.347 475.016 L 220.347 382.673 C 220.347 375.127 226.462 369.004 234.031 369.004 L 266.49 369.004 C 274.057 369.004 280.18 375.127 280.18 382.673 L 280.18 475.016 Z"
        fill="#595a5a"/>
</svg>
