<svg
    xmlns="http://www.w3.org/2000/svg"
    viewBox="0 0 500 500"
    id="vector">
    <defs>
        <clipPath id="clip_path_8">
            <path d="M 345.897 146.698 C 320.484 154.993 287.985 165.399 287.985 165.399 L 159.155 157.268 C 159.155 157.268 132.322 153.354 117.379 174.117 C 111.953 173.509 106.986 174.369 102.607 176.785 C 93.038 182.078 90.106 192.744 89.987 193.188 L 89.836 253.866 C 57.447 270.61 74.41 300.868 74.41 300.868 C 74.41 300.868 89.82 301.727 98.159 281.174 C 101.962 271.819 101.577 264.926 100.079 260.07 L 100.079 195.3 C 100.673 193.618 102.814 188.4 107.588 185.776 C 108.915 185.027 110.427 184.634 112.028 184.397 C 101.932 213.854 118.495 274.072 118.495 289.527 L 118.495 359.721 C 118.495 367.044 124.44 372.982 131.764 372.982 C 139.095 372.982 145.032 367.044 145.032 359.721 L 145.032 327.76 L 174.555 283.101 C 174.555 283.101 236.493 301.973 267.006 307.917 L 267.006 359.722 C 267.006 367.045 272.95 372.983 280.281 372.983 C 287.596 372.983 293.542 367.045 293.542 359.722 L 293.542 308.859 C 304.89 306.421 315.097 296.837 334.239 259.144 C 360.312 207.777 364.593 213.343 422.795 213.343 C 422.795 213.343 426.219 215.915 431.356 202.217 C 436.497 188.519 433.924 186.377 414.234 166.682 C 394.554 147.002 384.707 133.305 374.429 137.159 C 372.821 137.76 369.459 138.909 365.149 140.362 C 360.639 134.995 352.823 128.45 340.192 126.649 C 340.19 126.648 331.477 126.574 345.897 146.698"/>
        </clipPath>
        <clipPath id="clip_path_9">
            <path
                d="M 345.897 146.698 C 320.484 154.993 287.985 165.399 287.985 165.399 L 159.155 157.268 C 159.155 157.268 132.322 153.354 117.379 174.117 C 111.953 173.509 106.986 174.369 102.607 176.785 C 93.038 182.078 90.106 192.744 89.987 193.188 L 89.836 253.866 C 57.447 270.61 74.41 300.868 74.41 300.868 C 74.41 300.868 89.82 301.727 98.159 281.174 C 101.962 271.819 101.577 264.926 100.079 260.07 L 100.079 195.3 C 100.673 193.618 102.814 188.4 107.588 185.776 C 108.915 185.027 110.427 184.634 112.028 184.397 C 101.932 213.854 118.495 274.072 118.495 289.527 L 118.495 359.721 C 118.495 367.044 124.44 372.982 131.764 372.982 C 139.095 372.982 145.032 367.044 145.032 359.721 L 145.032 327.76 L 174.555 283.101 C 174.555 283.101 236.493 301.973 267.006 307.917 L 267.006 359.722 C 267.006 367.045 272.95 372.983 280.281 372.983 C 287.596 372.983 293.542 367.045 293.542 359.722 L 293.542 308.859 C 304.89 306.421 315.097 296.837 334.239 259.144 C 360.312 207.777 364.593 213.343 422.795 213.343 C 422.795 213.343 426.219 215.915 431.356 202.217 C 436.497 188.519 433.924 186.377 414.234 166.682 C 394.554 147.002 384.707 133.305 374.429 137.159 C 372.821 137.76 369.459 138.909 365.149 140.362 C 360.639 134.995 352.823 128.45 340.192 126.649 C 340.19 126.648 331.477 126.574 345.897 146.698"
                clip-path="url(#clip_path_9_1)"/>
        </clipPath>
        <clipPath id="clip_path_9_1">
            <path d="M 345.897 146.698 C 320.484 154.993 287.985 165.399 287.985 165.399 L 159.155 157.268 C 159.155 157.268 132.322 153.354 117.379 174.117 C 111.953 173.509 106.986 174.369 102.607 176.785 C 93.038 182.078 90.106 192.744 89.987 193.188 L 89.836 253.866 C 57.447 270.61 74.41 300.868 74.41 300.868 C 74.41 300.868 89.82 301.727 98.159 281.174 C 101.962 271.819 101.577 264.926 100.079 260.07 L 100.079 195.3 C 100.673 193.618 102.814 188.4 107.588 185.776 C 108.915 185.027 110.427 184.634 112.028 184.397 C 101.932 213.854 118.495 274.072 118.495 289.527 L 118.495 359.721 C 118.495 367.044 124.44 372.982 131.764 372.982 C 139.095 372.982 145.032 367.044 145.032 359.721 L 145.032 327.76 L 174.555 283.101 C 174.555 283.101 236.493 301.973 267.006 307.917 L 267.006 359.722 C 267.006 367.045 272.95 372.983 280.281 372.983 C 287.596 372.983 293.542 367.045 293.542 359.722 L 293.542 308.859 C 304.89 306.421 315.097 296.837 334.239 259.144 C 360.312 207.777 364.593 213.343 422.795 213.343 C 422.795 213.343 426.219 215.915 431.356 202.217 C 436.497 188.519 433.924 186.377 414.234 166.682 C 394.554 147.002 384.707 133.305 374.429 137.159 C 372.821 137.76 369.459 138.909 365.149 140.362 C 360.639 134.995 352.823 128.45 340.192 126.649 C 340.19 126.648 331.477 126.574 345.897 146.698"/>
        </clipPath>
        <clipPath id="clip_path_10">
            <path
                d="M 345.897 146.698 C 320.484 154.993 287.985 165.399 287.985 165.399 L 159.155 157.268 C 159.155 157.268 132.322 153.354 117.379 174.117 C 111.953 173.509 106.986 174.369 102.607 176.785 C 93.038 182.078 90.106 192.744 89.987 193.188 L 89.836 253.866 C 57.447 270.61 74.41 300.868 74.41 300.868 C 74.41 300.868 89.82 301.727 98.159 281.174 C 101.962 271.819 101.577 264.926 100.079 260.07 L 100.079 195.3 C 100.673 193.618 102.814 188.4 107.588 185.776 C 108.915 185.027 110.427 184.634 112.028 184.397 C 101.932 213.854 118.495 274.072 118.495 289.527 L 118.495 359.721 C 118.495 367.044 124.44 372.982 131.764 372.982 C 139.095 372.982 145.032 367.044 145.032 359.721 L 145.032 327.76 L 174.555 283.101 C 174.555 283.101 236.493 301.973 267.006 307.917 L 267.006 359.722 C 267.006 367.045 272.95 372.983 280.281 372.983 C 287.596 372.983 293.542 367.045 293.542 359.722 L 293.542 308.859 C 304.89 306.421 315.097 296.837 334.239 259.144 C 360.312 207.777 364.593 213.343 422.795 213.343 C 422.795 213.343 426.219 215.915 431.356 202.217 C 436.497 188.519 433.924 186.377 414.234 166.682 C 394.554 147.002 384.707 133.305 374.429 137.159 C 372.821 137.76 369.459 138.909 365.149 140.362 C 360.639 134.995 352.823 128.45 340.192 126.649 C 340.19 126.648 331.477 126.574 345.897 146.698"
                clip-path="url(#clip_path_10_1)"/>
        </clipPath>
        <clipPath id="clip_path_10_1">
            <path
                d="M 345.897 146.698 C 320.484 154.993 287.985 165.399 287.985 165.399 L 159.155 157.268 C 159.155 157.268 132.322 153.354 117.379 174.117 C 111.953 173.509 106.986 174.369 102.607 176.785 C 93.038 182.078 90.106 192.744 89.987 193.188 L 89.836 253.866 C 57.447 270.61 74.41 300.868 74.41 300.868 C 74.41 300.868 89.82 301.727 98.159 281.174 C 101.962 271.819 101.577 264.926 100.079 260.07 L 100.079 195.3 C 100.673 193.618 102.814 188.4 107.588 185.776 C 108.915 185.027 110.427 184.634 112.028 184.397 C 101.932 213.854 118.495 274.072 118.495 289.527 L 118.495 359.721 C 118.495 367.044 124.44 372.982 131.764 372.982 C 139.095 372.982 145.032 367.044 145.032 359.721 L 145.032 327.76 L 174.555 283.101 C 174.555 283.101 236.493 301.973 267.006 307.917 L 267.006 359.722 C 267.006 367.045 272.95 372.983 280.281 372.983 C 287.596 372.983 293.542 367.045 293.542 359.722 L 293.542 308.859 C 304.89 306.421 315.097 296.837 334.239 259.144 C 360.312 207.777 364.593 213.343 422.795 213.343 C 422.795 213.343 426.219 215.915 431.356 202.217 C 436.497 188.519 433.924 186.377 414.234 166.682 C 394.554 147.002 384.707 133.305 374.429 137.159 C 372.821 137.76 369.459 138.909 365.149 140.362 C 360.639 134.995 352.823 128.45 340.192 126.649 C 340.19 126.648 331.477 126.574 345.897 146.698"
                clip-path="url(#clip_path_10_2)"/>
        </clipPath>
        <clipPath id="clip_path_10_2">
            <path d="M 345.897 146.698 C 320.484 154.993 287.985 165.399 287.985 165.399 L 159.155 157.268 C 159.155 157.268 132.322 153.354 117.379 174.117 C 111.953 173.509 106.986 174.369 102.607 176.785 C 93.038 182.078 90.106 192.744 89.987 193.188 L 89.836 253.866 C 57.447 270.61 74.41 300.868 74.41 300.868 C 74.41 300.868 89.82 301.727 98.159 281.174 C 101.962 271.819 101.577 264.926 100.079 260.07 L 100.079 195.3 C 100.673 193.618 102.814 188.4 107.588 185.776 C 108.915 185.027 110.427 184.634 112.028 184.397 C 101.932 213.854 118.495 274.072 118.495 289.527 L 118.495 359.721 C 118.495 367.044 124.44 372.982 131.764 372.982 C 139.095 372.982 145.032 367.044 145.032 359.721 L 145.032 327.76 L 174.555 283.101 C 174.555 283.101 236.493 301.973 267.006 307.917 L 267.006 359.722 C 267.006 367.045 272.95 372.983 280.281 372.983 C 287.596 372.983 293.542 367.045 293.542 359.722 L 293.542 308.859 C 304.89 306.421 315.097 296.837 334.239 259.144 C 360.312 207.777 364.593 213.343 422.795 213.343 C 422.795 213.343 426.219 215.915 431.356 202.217 C 436.497 188.519 433.924 186.377 414.234 166.682 C 394.554 147.002 384.707 133.305 374.429 137.159 C 372.821 137.76 369.459 138.909 365.149 140.362 C 360.639 134.995 352.823 128.45 340.192 126.649 C 340.19 126.648 331.477 126.574 345.897 146.698"/>
        </clipPath>
        <clipPath id="clip_path_11">
            <path
                d="M 345.897 146.698 C 320.484 154.993 287.985 165.399 287.985 165.399 L 159.155 157.268 C 159.155 157.268 132.322 153.354 117.379 174.117 C 111.953 173.509 106.986 174.369 102.607 176.785 C 93.038 182.078 90.106 192.744 89.987 193.188 L 89.836 253.866 C 57.447 270.61 74.41 300.868 74.41 300.868 C 74.41 300.868 89.82 301.727 98.159 281.174 C 101.962 271.819 101.577 264.926 100.079 260.07 L 100.079 195.3 C 100.673 193.618 102.814 188.4 107.588 185.776 C 108.915 185.027 110.427 184.634 112.028 184.397 C 101.932 213.854 118.495 274.072 118.495 289.527 L 118.495 359.721 C 118.495 367.044 124.44 372.982 131.764 372.982 C 139.095 372.982 145.032 367.044 145.032 359.721 L 145.032 327.76 L 174.555 283.101 C 174.555 283.101 236.493 301.973 267.006 307.917 L 267.006 359.722 C 267.006 367.045 272.95 372.983 280.281 372.983 C 287.596 372.983 293.542 367.045 293.542 359.722 L 293.542 308.859 C 304.89 306.421 315.097 296.837 334.239 259.144 C 360.312 207.777 364.593 213.343 422.795 213.343 C 422.795 213.343 426.219 215.915 431.356 202.217 C 436.497 188.519 433.924 186.377 414.234 166.682 C 394.554 147.002 384.707 133.305 374.429 137.159 C 372.821 137.76 369.459 138.909 365.149 140.362 C 360.639 134.995 352.823 128.45 340.192 126.649 C 340.19 126.648 331.477 126.574 345.897 146.698"
                clip-path="url(#clip_path_11_1)"/>
        </clipPath>
        <clipPath id="clip_path_11_1">
            <path
                d="M 345.897 146.698 C 320.484 154.993 287.985 165.399 287.985 165.399 L 159.155 157.268 C 159.155 157.268 132.322 153.354 117.379 174.117 C 111.953 173.509 106.986 174.369 102.607 176.785 C 93.038 182.078 90.106 192.744 89.987 193.188 L 89.836 253.866 C 57.447 270.61 74.41 300.868 74.41 300.868 C 74.41 300.868 89.82 301.727 98.159 281.174 C 101.962 271.819 101.577 264.926 100.079 260.07 L 100.079 195.3 C 100.673 193.618 102.814 188.4 107.588 185.776 C 108.915 185.027 110.427 184.634 112.028 184.397 C 101.932 213.854 118.495 274.072 118.495 289.527 L 118.495 359.721 C 118.495 367.044 124.44 372.982 131.764 372.982 C 139.095 372.982 145.032 367.044 145.032 359.721 L 145.032 327.76 L 174.555 283.101 C 174.555 283.101 236.493 301.973 267.006 307.917 L 267.006 359.722 C 267.006 367.045 272.95 372.983 280.281 372.983 C 287.596 372.983 293.542 367.045 293.542 359.722 L 293.542 308.859 C 304.89 306.421 315.097 296.837 334.239 259.144 C 360.312 207.777 364.593 213.343 422.795 213.343 C 422.795 213.343 426.219 215.915 431.356 202.217 C 436.497 188.519 433.924 186.377 414.234 166.682 C 394.554 147.002 384.707 133.305 374.429 137.159 C 372.821 137.76 369.459 138.909 365.149 140.362 C 360.639 134.995 352.823 128.45 340.192 126.649 C 340.19 126.648 331.477 126.574 345.897 146.698"
                clip-path="url(#clip_path_11_2)"/>
        </clipPath>
        <clipPath id="clip_path_11_2">
            <path
                d="M 345.897 146.698 C 320.484 154.993 287.985 165.399 287.985 165.399 L 159.155 157.268 C 159.155 157.268 132.322 153.354 117.379 174.117 C 111.953 173.509 106.986 174.369 102.607 176.785 C 93.038 182.078 90.106 192.744 89.987 193.188 L 89.836 253.866 C 57.447 270.61 74.41 300.868 74.41 300.868 C 74.41 300.868 89.82 301.727 98.159 281.174 C 101.962 271.819 101.577 264.926 100.079 260.07 L 100.079 195.3 C 100.673 193.618 102.814 188.4 107.588 185.776 C 108.915 185.027 110.427 184.634 112.028 184.397 C 101.932 213.854 118.495 274.072 118.495 289.527 L 118.495 359.721 C 118.495 367.044 124.44 372.982 131.764 372.982 C 139.095 372.982 145.032 367.044 145.032 359.721 L 145.032 327.76 L 174.555 283.101 C 174.555 283.101 236.493 301.973 267.006 307.917 L 267.006 359.722 C 267.006 367.045 272.95 372.983 280.281 372.983 C 287.596 372.983 293.542 367.045 293.542 359.722 L 293.542 308.859 C 304.89 306.421 315.097 296.837 334.239 259.144 C 360.312 207.777 364.593 213.343 422.795 213.343 C 422.795 213.343 426.219 215.915 431.356 202.217 C 436.497 188.519 433.924 186.377 414.234 166.682 C 394.554 147.002 384.707 133.305 374.429 137.159 C 372.821 137.76 369.459 138.909 365.149 140.362 C 360.639 134.995 352.823 128.45 340.192 126.649 C 340.19 126.648 331.477 126.574 345.897 146.698"
                clip-path="url(#clip_path_11_3)"/>
        </clipPath>
        <clipPath id="clip_path_11_3">
            <path d="M 345.897 146.698 C 320.484 154.993 287.985 165.399 287.985 165.399 L 159.155 157.268 C 159.155 157.268 132.322 153.354 117.379 174.117 C 111.953 173.509 106.986 174.369 102.607 176.785 C 93.038 182.078 90.106 192.744 89.987 193.188 L 89.836 253.866 C 57.447 270.61 74.41 300.868 74.41 300.868 C 74.41 300.868 89.82 301.727 98.159 281.174 C 101.962 271.819 101.577 264.926 100.079 260.07 L 100.079 195.3 C 100.673 193.618 102.814 188.4 107.588 185.776 C 108.915 185.027 110.427 184.634 112.028 184.397 C 101.932 213.854 118.495 274.072 118.495 289.527 L 118.495 359.721 C 118.495 367.044 124.44 372.982 131.764 372.982 C 139.095 372.982 145.032 367.044 145.032 359.721 L 145.032 327.76 L 174.555 283.101 C 174.555 283.101 236.493 301.973 267.006 307.917 L 267.006 359.722 C 267.006 367.045 272.95 372.983 280.281 372.983 C 287.596 372.983 293.542 367.045 293.542 359.722 L 293.542 308.859 C 304.89 306.421 315.097 296.837 334.239 259.144 C 360.312 207.777 364.593 213.343 422.795 213.343 C 422.795 213.343 426.219 215.915 431.356 202.217 C 436.497 188.519 433.924 186.377 414.234 166.682 C 394.554 147.002 384.707 133.305 374.429 137.159 C 372.821 137.76 369.459 138.909 365.149 140.362 C 360.639 134.995 352.823 128.45 340.192 126.649 C 340.19 126.648 331.477 126.574 345.897 146.698"/>
        </clipPath>
        <clipPath id="clip_path_12">
            <path
                d="M 345.897 146.698 C 320.484 154.993 287.985 165.399 287.985 165.399 L 159.155 157.268 C 159.155 157.268 132.322 153.354 117.379 174.117 C 111.953 173.509 106.986 174.369 102.607 176.785 C 93.038 182.078 90.106 192.744 89.987 193.188 L 89.836 253.866 C 57.447 270.61 74.41 300.868 74.41 300.868 C 74.41 300.868 89.82 301.727 98.159 281.174 C 101.962 271.819 101.577 264.926 100.079 260.07 L 100.079 195.3 C 100.673 193.618 102.814 188.4 107.588 185.776 C 108.915 185.027 110.427 184.634 112.028 184.397 C 101.932 213.854 118.495 274.072 118.495 289.527 L 118.495 359.721 C 118.495 367.044 124.44 372.982 131.764 372.982 C 139.095 372.982 145.032 367.044 145.032 359.721 L 145.032 327.76 L 174.555 283.101 C 174.555 283.101 236.493 301.973 267.006 307.917 L 267.006 359.722 C 267.006 367.045 272.95 372.983 280.281 372.983 C 287.596 372.983 293.542 367.045 293.542 359.722 L 293.542 308.859 C 304.89 306.421 315.097 296.837 334.239 259.144 C 360.312 207.777 364.593 213.343 422.795 213.343 C 422.795 213.343 426.219 215.915 431.356 202.217 C 436.497 188.519 433.924 186.377 414.234 166.682 C 394.554 147.002 384.707 133.305 374.429 137.159 C 372.821 137.76 369.459 138.909 365.149 140.362 C 360.639 134.995 352.823 128.45 340.192 126.649 C 340.19 126.648 331.477 126.574 345.897 146.698"
                clip-path="url(#clip_path_12_1)"/>
        </clipPath>
        <clipPath id="clip_path_12_1">
            <path
                d="M 345.897 146.698 C 320.484 154.993 287.985 165.399 287.985 165.399 L 159.155 157.268 C 159.155 157.268 132.322 153.354 117.379 174.117 C 111.953 173.509 106.986 174.369 102.607 176.785 C 93.038 182.078 90.106 192.744 89.987 193.188 L 89.836 253.866 C 57.447 270.61 74.41 300.868 74.41 300.868 C 74.41 300.868 89.82 301.727 98.159 281.174 C 101.962 271.819 101.577 264.926 100.079 260.07 L 100.079 195.3 C 100.673 193.618 102.814 188.4 107.588 185.776 C 108.915 185.027 110.427 184.634 112.028 184.397 C 101.932 213.854 118.495 274.072 118.495 289.527 L 118.495 359.721 C 118.495 367.044 124.44 372.982 131.764 372.982 C 139.095 372.982 145.032 367.044 145.032 359.721 L 145.032 327.76 L 174.555 283.101 C 174.555 283.101 236.493 301.973 267.006 307.917 L 267.006 359.722 C 267.006 367.045 272.95 372.983 280.281 372.983 C 287.596 372.983 293.542 367.045 293.542 359.722 L 293.542 308.859 C 304.89 306.421 315.097 296.837 334.239 259.144 C 360.312 207.777 364.593 213.343 422.795 213.343 C 422.795 213.343 426.219 215.915 431.356 202.217 C 436.497 188.519 433.924 186.377 414.234 166.682 C 394.554 147.002 384.707 133.305 374.429 137.159 C 372.821 137.76 369.459 138.909 365.149 140.362 C 360.639 134.995 352.823 128.45 340.192 126.649 C 340.19 126.648 331.477 126.574 345.897 146.698"
                clip-path="url(#clip_path_12_2)"/>
        </clipPath>
        <clipPath id="clip_path_12_2">
            <path
                d="M 345.897 146.698 C 320.484 154.993 287.985 165.399 287.985 165.399 L 159.155 157.268 C 159.155 157.268 132.322 153.354 117.379 174.117 C 111.953 173.509 106.986 174.369 102.607 176.785 C 93.038 182.078 90.106 192.744 89.987 193.188 L 89.836 253.866 C 57.447 270.61 74.41 300.868 74.41 300.868 C 74.41 300.868 89.82 301.727 98.159 281.174 C 101.962 271.819 101.577 264.926 100.079 260.07 L 100.079 195.3 C 100.673 193.618 102.814 188.4 107.588 185.776 C 108.915 185.027 110.427 184.634 112.028 184.397 C 101.932 213.854 118.495 274.072 118.495 289.527 L 118.495 359.721 C 118.495 367.044 124.44 372.982 131.764 372.982 C 139.095 372.982 145.032 367.044 145.032 359.721 L 145.032 327.76 L 174.555 283.101 C 174.555 283.101 236.493 301.973 267.006 307.917 L 267.006 359.722 C 267.006 367.045 272.95 372.983 280.281 372.983 C 287.596 372.983 293.542 367.045 293.542 359.722 L 293.542 308.859 C 304.89 306.421 315.097 296.837 334.239 259.144 C 360.312 207.777 364.593 213.343 422.795 213.343 C 422.795 213.343 426.219 215.915 431.356 202.217 C 436.497 188.519 433.924 186.377 414.234 166.682 C 394.554 147.002 384.707 133.305 374.429 137.159 C 372.821 137.76 369.459 138.909 365.149 140.362 C 360.639 134.995 352.823 128.45 340.192 126.649 C 340.19 126.648 331.477 126.574 345.897 146.698"
                clip-path="url(#clip_path_12_3)"/>
        </clipPath>
        <clipPath id="clip_path_12_3">
            <path
                d="M 345.897 146.698 C 320.484 154.993 287.985 165.399 287.985 165.399 L 159.155 157.268 C 159.155 157.268 132.322 153.354 117.379 174.117 C 111.953 173.509 106.986 174.369 102.607 176.785 C 93.038 182.078 90.106 192.744 89.987 193.188 L 89.836 253.866 C 57.447 270.61 74.41 300.868 74.41 300.868 C 74.41 300.868 89.82 301.727 98.159 281.174 C 101.962 271.819 101.577 264.926 100.079 260.07 L 100.079 195.3 C 100.673 193.618 102.814 188.4 107.588 185.776 C 108.915 185.027 110.427 184.634 112.028 184.397 C 101.932 213.854 118.495 274.072 118.495 289.527 L 118.495 359.721 C 118.495 367.044 124.44 372.982 131.764 372.982 C 139.095 372.982 145.032 367.044 145.032 359.721 L 145.032 327.76 L 174.555 283.101 C 174.555 283.101 236.493 301.973 267.006 307.917 L 267.006 359.722 C 267.006 367.045 272.95 372.983 280.281 372.983 C 287.596 372.983 293.542 367.045 293.542 359.722 L 293.542 308.859 C 304.89 306.421 315.097 296.837 334.239 259.144 C 360.312 207.777 364.593 213.343 422.795 213.343 C 422.795 213.343 426.219 215.915 431.356 202.217 C 436.497 188.519 433.924 186.377 414.234 166.682 C 394.554 147.002 384.707 133.305 374.429 137.159 C 372.821 137.76 369.459 138.909 365.149 140.362 C 360.639 134.995 352.823 128.45 340.192 126.649 C 340.19 126.648 331.477 126.574 345.897 146.698"
                clip-path="url(#clip_path_12_4)"/>
        </clipPath>
        <clipPath id="clip_path_12_4">
            <path d="M 345.897 146.698 C 320.484 154.993 287.985 165.399 287.985 165.399 L 159.155 157.268 C 159.155 157.268 132.322 153.354 117.379 174.117 C 111.953 173.509 106.986 174.369 102.607 176.785 C 93.038 182.078 90.106 192.744 89.987 193.188 L 89.836 253.866 C 57.447 270.61 74.41 300.868 74.41 300.868 C 74.41 300.868 89.82 301.727 98.159 281.174 C 101.962 271.819 101.577 264.926 100.079 260.07 L 100.079 195.3 C 100.673 193.618 102.814 188.4 107.588 185.776 C 108.915 185.027 110.427 184.634 112.028 184.397 C 101.932 213.854 118.495 274.072 118.495 289.527 L 118.495 359.721 C 118.495 367.044 124.44 372.982 131.764 372.982 C 139.095 372.982 145.032 367.044 145.032 359.721 L 145.032 327.76 L 174.555 283.101 C 174.555 283.101 236.493 301.973 267.006 307.917 L 267.006 359.722 C 267.006 367.045 272.95 372.983 280.281 372.983 C 287.596 372.983 293.542 367.045 293.542 359.722 L 293.542 308.859 C 304.89 306.421 315.097 296.837 334.239 259.144 C 360.312 207.777 364.593 213.343 422.795 213.343 C 422.795 213.343 426.219 215.915 431.356 202.217 C 436.497 188.519 433.924 186.377 414.234 166.682 C 394.554 147.002 384.707 133.305 374.429 137.159 C 372.821 137.76 369.459 138.909 365.149 140.362 C 360.639 134.995 352.823 128.45 340.192 126.649 C 340.19 126.648 331.477 126.574 345.897 146.698"/>
        </clipPath>
        <clipPath id="clip_path_13">
            <path
                d="M 345.897 146.698 C 320.484 154.993 287.985 165.399 287.985 165.399 L 159.155 157.268 C 159.155 157.268 132.322 153.354 117.379 174.117 C 111.953 173.509 106.986 174.369 102.607 176.785 C 93.038 182.078 90.106 192.744 89.987 193.188 L 89.836 253.866 C 57.447 270.61 74.41 300.868 74.41 300.868 C 74.41 300.868 89.82 301.727 98.159 281.174 C 101.962 271.819 101.577 264.926 100.079 260.07 L 100.079 195.3 C 100.673 193.618 102.814 188.4 107.588 185.776 C 108.915 185.027 110.427 184.634 112.028 184.397 C 101.932 213.854 118.495 274.072 118.495 289.527 L 118.495 359.721 C 118.495 367.044 124.44 372.982 131.764 372.982 C 139.095 372.982 145.032 367.044 145.032 359.721 L 145.032 327.76 L 174.555 283.101 C 174.555 283.101 236.493 301.973 267.006 307.917 L 267.006 359.722 C 267.006 367.045 272.95 372.983 280.281 372.983 C 287.596 372.983 293.542 367.045 293.542 359.722 L 293.542 308.859 C 304.89 306.421 315.097 296.837 334.239 259.144 C 360.312 207.777 364.593 213.343 422.795 213.343 C 422.795 213.343 426.219 215.915 431.356 202.217 C 436.497 188.519 433.924 186.377 414.234 166.682 C 394.554 147.002 384.707 133.305 374.429 137.159 C 372.821 137.76 369.459 138.909 365.149 140.362 C 360.639 134.995 352.823 128.45 340.192 126.649 C 340.19 126.648 331.477 126.574 345.897 146.698"
                clip-path="url(#clip_path_13_1)"/>
        </clipPath>
        <clipPath id="clip_path_13_1">
            <path
                d="M 345.897 146.698 C 320.484 154.993 287.985 165.399 287.985 165.399 L 159.155 157.268 C 159.155 157.268 132.322 153.354 117.379 174.117 C 111.953 173.509 106.986 174.369 102.607 176.785 C 93.038 182.078 90.106 192.744 89.987 193.188 L 89.836 253.866 C 57.447 270.61 74.41 300.868 74.41 300.868 C 74.41 300.868 89.82 301.727 98.159 281.174 C 101.962 271.819 101.577 264.926 100.079 260.07 L 100.079 195.3 C 100.673 193.618 102.814 188.4 107.588 185.776 C 108.915 185.027 110.427 184.634 112.028 184.397 C 101.932 213.854 118.495 274.072 118.495 289.527 L 118.495 359.721 C 118.495 367.044 124.44 372.982 131.764 372.982 C 139.095 372.982 145.032 367.044 145.032 359.721 L 145.032 327.76 L 174.555 283.101 C 174.555 283.101 236.493 301.973 267.006 307.917 L 267.006 359.722 C 267.006 367.045 272.95 372.983 280.281 372.983 C 287.596 372.983 293.542 367.045 293.542 359.722 L 293.542 308.859 C 304.89 306.421 315.097 296.837 334.239 259.144 C 360.312 207.777 364.593 213.343 422.795 213.343 C 422.795 213.343 426.219 215.915 431.356 202.217 C 436.497 188.519 433.924 186.377 414.234 166.682 C 394.554 147.002 384.707 133.305 374.429 137.159 C 372.821 137.76 369.459 138.909 365.149 140.362 C 360.639 134.995 352.823 128.45 340.192 126.649 C 340.19 126.648 331.477 126.574 345.897 146.698"
                clip-path="url(#clip_path_13_2)"/>
        </clipPath>
        <clipPath id="clip_path_13_2">
            <path
                d="M 345.897 146.698 C 320.484 154.993 287.985 165.399 287.985 165.399 L 159.155 157.268 C 159.155 157.268 132.322 153.354 117.379 174.117 C 111.953 173.509 106.986 174.369 102.607 176.785 C 93.038 182.078 90.106 192.744 89.987 193.188 L 89.836 253.866 C 57.447 270.61 74.41 300.868 74.41 300.868 C 74.41 300.868 89.82 301.727 98.159 281.174 C 101.962 271.819 101.577 264.926 100.079 260.07 L 100.079 195.3 C 100.673 193.618 102.814 188.4 107.588 185.776 C 108.915 185.027 110.427 184.634 112.028 184.397 C 101.932 213.854 118.495 274.072 118.495 289.527 L 118.495 359.721 C 118.495 367.044 124.44 372.982 131.764 372.982 C 139.095 372.982 145.032 367.044 145.032 359.721 L 145.032 327.76 L 174.555 283.101 C 174.555 283.101 236.493 301.973 267.006 307.917 L 267.006 359.722 C 267.006 367.045 272.95 372.983 280.281 372.983 C 287.596 372.983 293.542 367.045 293.542 359.722 L 293.542 308.859 C 304.89 306.421 315.097 296.837 334.239 259.144 C 360.312 207.777 364.593 213.343 422.795 213.343 C 422.795 213.343 426.219 215.915 431.356 202.217 C 436.497 188.519 433.924 186.377 414.234 166.682 C 394.554 147.002 384.707 133.305 374.429 137.159 C 372.821 137.76 369.459 138.909 365.149 140.362 C 360.639 134.995 352.823 128.45 340.192 126.649 C 340.19 126.648 331.477 126.574 345.897 146.698"
                clip-path="url(#clip_path_13_3)"/>
        </clipPath>
        <clipPath id="clip_path_13_3">
            <path
                d="M 345.897 146.698 C 320.484 154.993 287.985 165.399 287.985 165.399 L 159.155 157.268 C 159.155 157.268 132.322 153.354 117.379 174.117 C 111.953 173.509 106.986 174.369 102.607 176.785 C 93.038 182.078 90.106 192.744 89.987 193.188 L 89.836 253.866 C 57.447 270.61 74.41 300.868 74.41 300.868 C 74.41 300.868 89.82 301.727 98.159 281.174 C 101.962 271.819 101.577 264.926 100.079 260.07 L 100.079 195.3 C 100.673 193.618 102.814 188.4 107.588 185.776 C 108.915 185.027 110.427 184.634 112.028 184.397 C 101.932 213.854 118.495 274.072 118.495 289.527 L 118.495 359.721 C 118.495 367.044 124.44 372.982 131.764 372.982 C 139.095 372.982 145.032 367.044 145.032 359.721 L 145.032 327.76 L 174.555 283.101 C 174.555 283.101 236.493 301.973 267.006 307.917 L 267.006 359.722 C 267.006 367.045 272.95 372.983 280.281 372.983 C 287.596 372.983 293.542 367.045 293.542 359.722 L 293.542 308.859 C 304.89 306.421 315.097 296.837 334.239 259.144 C 360.312 207.777 364.593 213.343 422.795 213.343 C 422.795 213.343 426.219 215.915 431.356 202.217 C 436.497 188.519 433.924 186.377 414.234 166.682 C 394.554 147.002 384.707 133.305 374.429 137.159 C 372.821 137.76 369.459 138.909 365.149 140.362 C 360.639 134.995 352.823 128.45 340.192 126.649 C 340.19 126.648 331.477 126.574 345.897 146.698"
                clip-path="url(#clip_path_13_4)"/>
        </clipPath>
        <clipPath id="clip_path_13_4">
            <path
                d="M 345.897 146.698 C 320.484 154.993 287.985 165.399 287.985 165.399 L 159.155 157.268 C 159.155 157.268 132.322 153.354 117.379 174.117 C 111.953 173.509 106.986 174.369 102.607 176.785 C 93.038 182.078 90.106 192.744 89.987 193.188 L 89.836 253.866 C 57.447 270.61 74.41 300.868 74.41 300.868 C 74.41 300.868 89.82 301.727 98.159 281.174 C 101.962 271.819 101.577 264.926 100.079 260.07 L 100.079 195.3 C 100.673 193.618 102.814 188.4 107.588 185.776 C 108.915 185.027 110.427 184.634 112.028 184.397 C 101.932 213.854 118.495 274.072 118.495 289.527 L 118.495 359.721 C 118.495 367.044 124.44 372.982 131.764 372.982 C 139.095 372.982 145.032 367.044 145.032 359.721 L 145.032 327.76 L 174.555 283.101 C 174.555 283.101 236.493 301.973 267.006 307.917 L 267.006 359.722 C 267.006 367.045 272.95 372.983 280.281 372.983 C 287.596 372.983 293.542 367.045 293.542 359.722 L 293.542 308.859 C 304.89 306.421 315.097 296.837 334.239 259.144 C 360.312 207.777 364.593 213.343 422.795 213.343 C 422.795 213.343 426.219 215.915 431.356 202.217 C 436.497 188.519 433.924 186.377 414.234 166.682 C 394.554 147.002 384.707 133.305 374.429 137.159 C 372.821 137.76 369.459 138.909 365.149 140.362 C 360.639 134.995 352.823 128.45 340.192 126.649 C 340.19 126.648 331.477 126.574 345.897 146.698"
                clip-path="url(#clip_path_13_5)"/>
        </clipPath>
        <clipPath id="clip_path_13_5">
            <path d="M 345.897 146.698 C 320.484 154.993 287.985 165.399 287.985 165.399 L 159.155 157.268 C 159.155 157.268 132.322 153.354 117.379 174.117 C 111.953 173.509 106.986 174.369 102.607 176.785 C 93.038 182.078 90.106 192.744 89.987 193.188 L 89.836 253.866 C 57.447 270.61 74.41 300.868 74.41 300.868 C 74.41 300.868 89.82 301.727 98.159 281.174 C 101.962 271.819 101.577 264.926 100.079 260.07 L 100.079 195.3 C 100.673 193.618 102.814 188.4 107.588 185.776 C 108.915 185.027 110.427 184.634 112.028 184.397 C 101.932 213.854 118.495 274.072 118.495 289.527 L 118.495 359.721 C 118.495 367.044 124.44 372.982 131.764 372.982 C 139.095 372.982 145.032 367.044 145.032 359.721 L 145.032 327.76 L 174.555 283.101 C 174.555 283.101 236.493 301.973 267.006 307.917 L 267.006 359.722 C 267.006 367.045 272.95 372.983 280.281 372.983 C 287.596 372.983 293.542 367.045 293.542 359.722 L 293.542 308.859 C 304.89 306.421 315.097 296.837 334.239 259.144 C 360.312 207.777 364.593 213.343 422.795 213.343 C 422.795 213.343 426.219 215.915 431.356 202.217 C 436.497 188.519 433.924 186.377 414.234 166.682 C 394.554 147.002 384.707 133.305 374.429 137.159 C 372.821 137.76 369.459 138.909 365.149 140.362 C 360.639 134.995 352.823 128.45 340.192 126.649 C 340.19 126.648 331.477 126.574 345.897 146.698"/>
        </clipPath>
    </defs>
    <path
        id="path"
        d="M 251.809 11.2 C 184.067 11.2 122.956 39.486 79.516 84.827 C 38.478 127.685 13.187 185.776 13.187 249.811 C 13.187 381.595 120.036 488.429 251.809 488.429 C 338.8 488.429 414.884 441.865 456.593 372.337 C 478.074 336.521 490.423 294.626 490.423 249.811 C 490.423 118.035 383.581 11.2 251.809 11.2"
        fill="#8dc86f"/>
    <path
        id="path_1"
        d="M 143.169 159.633 C 165.18 64.302 269.216 24.787 297.676 15.647 C 282.829 12.756 267.504 11.2 251.809 11.2 C 184.067 11.2 122.956 39.486 79.508 84.82 C 38.47 127.685 13.187 185.783 13.187 249.819 C 13.187 381.595 120.029 488.437 251.809 488.437 C 266.119 488.437 280.094 487.058 293.71 484.642 C 278.459 484.612 201.786 482.062 155.944 434.949 C 104.869 382.426 117.634 270.321 143.169 159.633 Z"
        fill="#8bc16b"/>
    <path
        id="path_2"
        d="M 305.522 315.122 L 305.522 359.715 C 305.522 367.045 311.463 372.983 318.798 372.983 C 326.121 372.983 332.066 367.045 332.066 359.715 L 332.066 284.68 C 322.426 300.994 314.317 310.229 305.522 315.122"
        fill="#efefef"/>
    <path
        id="path_3"
        d="M 187.658 322.177 L 195.148 299.904 C 188.673 298.036 183.025 296.376 178.911 295.138 L 160.422 323.105 L 171.284 363.175 C 173.204 370.246 180.483 374.427 187.573 372.5 C 194.648 370.58 198.813 363.294 196.901 356.229 L 187.658 322.177 Z"
        fill="#efefef"/>
    <path
        id="path_4"
        d="M 141.78 295.138 C 141.78 295.138 150.763 317.982 178.893 317.982 C 207.023 317.982 220.61 290.401 212.071 277.978 C 203.525 265.555 127.41 268.039 141.78 295.138"
        fill="#eea4ba"/>
    <path
        id="path_5"
        d="M 414.24 166.689 C 394.549 147.001 384.705 133.304 374.435 137.151 C 372.827 137.758 369.454 138.916 365.144 140.361 C 360.637 135.002 352.817 128.457 340.194 126.648 C 340.194 126.648 331.48 126.574 345.894 146.706 C 320.484 155 287.981 165.407 287.981 165.407 L 159.151 157.275 C 159.151 157.275 132.33 153.354 117.382 174.109 C 111.948 173.508 106.993 174.369 102.612 176.785 C 93.032 182.078 90.104 192.736 89.981 193.196 L 89.836 253.858 C 57.44 270.61 74.404 300.868 74.404 300.868 C 74.404 300.868 89.814 301.727 98.156 281.18 C 101.959 271.818 101.57 264.925 100.084 260.07 L 100.084 195.294 C 100.67 193.619 102.815 188.4 107.581 185.769 C 108.912 185.036 110.428 184.627 112.029 184.398 C 101.937 213.855 118.489 274.073 118.489 289.528 L 118.489 359.716 C 118.489 367.046 124.433 372.984 131.764 372.984 C 139.098 372.984 145.032 367.046 145.032 359.716 L 145.032 327.753 L 174.552 283.108 C 174.552 283.108 236.497 301.98 266.999 307.918 L 266.999 359.716 C 266.999 367.046 272.943 372.984 280.274 372.984 C 287.601 372.984 293.543 367.046 293.543 359.716 L 293.543 308.86 C 304.891 306.422 315.094 296.838 334.236 259.138 C 360.309 207.778 364.597 213.337 422.799 213.337 C 422.799 213.337 426.213 215.908 431.353 202.218 C 436.49 188.518 433.926 186.377 414.24 166.689"
        fill="#ffffff"/>
    <path
        id="path_6"
        d="M 121.581 194.093 C 125.75 168.261 150.519 160.145 164.32 157.595 L 159.146 157.269 C 159.146 157.269 132.329 153.355 117.377 174.118 C 111.951 173.51 106.984 174.37 102.615 176.786 C 93.027 182.079 90.103 192.745 89.984 193.189 L 89.839 253.867 C 57.436 270.611 74.406 300.869 74.406 300.869 C 74.406 300.869 89.816 301.722 98.155 281.175 C 101.958 271.82 101.565 264.927 100.087 260.079 L 100.087 195.302 C 100.669 193.62 102.811 188.409 107.584 185.778 C 108.911 185.029 110.423 184.629 112.024 184.399 C 101.928 213.856 118.491 274.074 118.491 289.529 L 118.491 359.723 C 118.491 367.046 124.436 372.992 131.76 372.992 C 131.785 372.992 131.812 372.984 131.834 372.984 C 132.293 356.203 133.62 305.235 133.62 281.086 C 133.622 251.954 115.762 230.213 121.581 194.093 Z"
        fill="#eaeae9"/>
    <path
        id="path_7"
        d="M 388.177 161.819 C 388.177 165.162 385.468 167.875 382.129 167.875 C 378.775 167.875 376.066 165.162 376.066 161.819 C 376.066 158.476 378.775 155.763 382.129 155.763 C 385.468 155.763 388.177 158.476 388.177 161.819"
        fill="#444445"/>
    <path
        id="path_8"
        clip-path="url(#clip_path_8)"
        d="M 240.031 162.672 C 240.031 162.672 212.843 167.297 207.795 193.315 C 202.747 219.333 165.471 226.33 160.423 204.582 C 155.367 182.835 162.413 168.788 178.891 159.308 L 240.031 162.672 Z"
        fill="#515252"/>
    <path
        id="path_9"
        clip-path="url(#clip_path_9)"
        d="M 354.344 226.062 C 354.344 226.062 343.328 209.244 328.574 219.724 C 313.816 230.212 318.538 250.782 334.233 259.136 C 349.933 267.49 364.476 234.579 354.344 226.062"
        fill="#515252"/>
    <path
        id="path_10"
        clip-path="url(#clip_path_10)"
        d="M 247.383 302.016 C 247.383 302.016 252.831 319.724 267.223 314.566 C 281.621 309.414 278.508 285.672 281.621 279.638 C 284.734 273.612 282.788 247.936 255.548 258.439 C 228.315 268.95 244.482 296.043 247.383 302.016"
        fill="#515252"/>
    <path
        id="path_11"
        clip-path="url(#clip_path_11)"
        d="M 303.343 178.111 C 303.343 178.111 308.791 195.82 323.182 190.653 C 337.574 185.502 334.46 161.759 337.574 155.734 C 340.687 149.708 338.745 124.039 311.509 134.535 C 284.275 145.038 300.441 172.137 303.343 178.111"
        fill="#515252"/>
    <path
        id="path_12"
        clip-path="url(#clip_path_12)"
        d="M 278.864 200.697 C 278.864 200.697 248.481 187.496 239.979 204.967 C 231.484 222.446 242.695 230.992 259.425 230.213 C 276.143 229.435 301.39 209.629 278.864 200.697"
        fill="#515252"/>
    <path
        id="path_13"
        clip-path="url(#clip_path_13)"
        d="M 222.215 302.291 C 222.215 302.291 195.027 297.673 189.979 271.648 C 184.931 245.63 147.654 238.64 142.606 260.388 C 137.551 282.128 144.596 296.183 161.074 305.663 L 222.215 302.291 Z"
        fill="#515252"/>
</svg>
