<svg
    xmlns="http://www.w3.org/2000/svg"
    viewBox="0 0 500 500"
    id="vector">
    <defs>
        <clipPath id="clip_path_5">
            <path d="M 335.476 135.907 C 317.671 108.289 331.785 107.062 353.888 107.062 C 369.492 107.062 349.915 91.767 337.047 82.775 C 336.855 73.217 332.281 59.182 307.064 59.182 C 246.739 59.182 255.082 170.893 255.082 170.893 C 208.451 200.357 169.722 254.986 169.722 254.986 C 169.722 254.986 130.462 272.783 97.551 287.519 C 64.637 302.248 183.868 344.601 250.16 344.601 C 316.441 344.601 354.496 281.381 359.655 246.899 C 364.814 212.432 353.281 163.525 335.476 135.907 Z"/>
        </clipPath>
        <clipPath id="clip_path_6">
            <path d="M 335.476 135.907 C 317.671 108.289 331.785 107.062 353.888 107.062 C 369.492 107.062 349.915 91.767 337.047 82.775 C 336.855 73.217 332.281 59.182 307.064 59.182 C 246.739 59.182 255.082 170.893 255.082 170.893 C 208.451 200.357 169.722 254.986 169.722 254.986 C 169.722 254.986 130.462 272.783 97.551 287.519 C 64.637 302.248 183.868 344.601 250.16 344.601 C 316.441 344.601 354.496 281.381 359.655 246.899 C 364.814 212.432 353.281 163.525 335.476 135.907 Z"/>
        </clipPath>
        <clipPath id="clip_path_7">
            <path d="M 335.476 135.907 C 317.671 108.289 331.785 107.062 353.888 107.062 C 369.492 107.062 349.915 91.767 337.047 82.775 C 336.855 73.217 332.281 59.182 307.064 59.182 C 246.739 59.182 255.082 170.893 255.082 170.893 C 208.451 200.357 169.722 254.986 169.722 254.986 C 169.722 254.986 130.462 272.783 97.551 287.519 C 64.637 302.248 183.868 344.601 250.16 344.601 C 316.441 344.601 354.496 281.381 359.655 246.899 C 364.814 212.432 353.281 163.525 335.476 135.907 Z"/>
        </clipPath>
    </defs>
    <path
        id="path"
        d="M 255.326 330.229 L 253.206 383.272 L 244.033 383.272 L 241.917 330.229 Z"
        fill="#896e5a"/>
    <path
        id="path_1"
        d="M 209.644 383.272 L 287.592 383.272 C 287.592 383.272 281.454 365.474 268.571 365.474 C 255.674 365.474 209.644 377.135 209.644 383.272 Z"
        fill="#896e5a"/>
    <path
        id="path_2"
        d="M 122.993 292.427 C 122.993 292.427 47.714 326.805 53.183 329.873 C 58.646 332.942 154.399 315.257 154.399 315.257 L 122.993 292.427 Z"
        fill="#ac8a74"/>
    <path
        id="path_3"
        d="M 335.476 135.907 C 317.671 108.289 331.785 107.062 353.888 107.062 C 369.492 107.062 349.915 91.767 337.047 82.775 C 336.855 73.217 332.281 59.182 307.064 59.182 C 246.739 59.182 255.082 170.893 255.082 170.893 C 208.451 200.357 169.722 254.986 169.722 254.986 C 169.722 254.986 130.462 272.783 97.551 287.519 C 64.637 302.248 183.868 344.601 250.16 344.601 C 316.441 344.601 354.496 281.381 359.655 246.899 C 364.814 212.432 353.281 163.525 335.476 135.907 Z"
        fill="#5b4538"/>
    <path
        id="path_4"
        d="M 323.2 83.506 C 323.2 87.108 320.28 90.028 316.678 90.028 C 313.076 90.028 310.156 87.108 310.156 83.506 C 310.156 79.907 313.076 76.986 316.678 76.986 C 320.28 76.986 323.2 79.906 323.2 83.506 Z"
        fill="#896e5a"/>
    <path
        id="path_5"
        clip-path="url(#clip_path_5)"
        d="M 368.142 175.289 C 368.142 175.289 309.948 144.928 297.302 189.839 C 284.65 234.743 223.293 366.942 297.302 351.761 C 371.307 336.582 377.63 190.469 368.142 175.289 Z"
        fill="#d2b8a7"/>
    <path
        id="path_6"
        clip-path="url(#clip_path_6)"
        d="M 308.25 208.385 C 308.25 208.385 316.648 279.558 157.379 328.465 C 157.379 328.465 123.671 317.917 117.345 312.855 C 111.019 307.8 308.25 208.385 308.25 208.385 Z"
        fill="#896e5a"
        fill-opacity="0.3"
        stroke-opacity="0.3"
        stroke-width="1"/>
    <path
        id="path_7"
        clip-path="url(#clip_path_7)"
        d="M 107.146 323.499 C 107.146 323.499 253.236 304.85 296.035 235.395 C 338.834 165.927 271.049 156.187 245.127 177.653 C 245.127 177.653 201.876 208.415 172.42 251.317 C 172.42 251.317 156.25 271.197 130.918 285.74 C 105.586 300.283 53.855 322.512 53.185 329.873 C 52.513 337.226 107.146 323.499 107.146 323.499 Z"
        fill="#896e5a"/>
</svg>
