<svg
    xmlns="http://www.w3.org/2000/svg"
    viewBox="0 0 500 500"
    id="vector">
    <defs>
        <clipPath id="clip_path_6">
            <path d="M 409.357 129.125 C 410.063 122.563 412.208 117.289 413.348 114.883 C 413.466 114.677 413.558 114.456 413.661 114.243 C 413.896 113.779 414.069 113.456 414.069 113.456 L 413.896 113.544 C 415.588 109.521 415.676 104.981 413.925 100.972 C 413.15 99.2 412.071 97.522 410.618 96.073 C 409.173 94.624 407.503 93.55 405.733 92.77 C 401.676 90.99 397.063 91.085 393.003 92.843 L 393.154 92.541 C 393.154 92.541 386.15 96.514 376.738 97.353 C 376.572 97.368 376.462 97.434 376.311 97.463 C 284.762 106.556 220.507 62.27 143.631 139.152 C 56.324 226.452 102.747 317.423 126.958 352.741 L 88.752 390.951 C 81.642 398.057 81.917 409.864 89.377 417.324 C 96.833 424.783 108.64 425.055 115.75 417.949 L 153.956 379.739 C 189.278 403.95 280.241 450.369 367.549 363.069 C 444.786 285.834 399.724 221.353 409.357 129.125 Z"/>
        </clipPath>
        <clipPath id="clip_path_7">
            <path
                d="M 409.357 129.125 C 410.063 122.563 412.208 117.289 413.348 114.883 C 413.466 114.677 413.558 114.456 413.661 114.243 C 413.896 113.779 414.069 113.456 414.069 113.456 L 413.896 113.544 C 415.588 109.521 415.676 104.981 413.925 100.972 C 413.15 99.2 412.071 97.522 410.618 96.073 C 409.173 94.624 407.503 93.55 405.733 92.77 C 401.676 90.99 397.063 91.085 393.003 92.843 L 393.154 92.541 C 393.154 92.541 386.15 96.514 376.738 97.353 C 376.572 97.368 376.462 97.434 376.311 97.463 C 284.762 106.556 220.507 62.27 143.631 139.152 C 56.324 226.452 102.747 317.423 126.958 352.741 L 88.752 390.951 C 81.642 398.057 81.917 409.864 89.377 417.324 C 96.833 424.783 108.64 425.055 115.75 417.949 L 153.956 379.739 C 189.278 403.95 280.241 450.369 367.549 363.069 C 444.786 285.834 399.724 221.353 409.357 129.125 Z"
                clip-path="url(#clip_path_7_1)"/>
        </clipPath>
        <clipPath id="clip_path_7_1">
            <path d="M 409.357 129.125 C 410.063 122.563 412.208 117.289 413.348 114.883 C 413.466 114.677 413.558 114.456 413.661 114.243 C 413.896 113.779 414.069 113.456 414.069 113.456 L 413.896 113.544 C 415.588 109.521 415.676 104.981 413.925 100.972 C 413.15 99.2 412.071 97.522 410.618 96.073 C 409.173 94.624 407.503 93.55 405.733 92.77 C 401.676 90.99 397.063 91.085 393.003 92.843 L 393.154 92.541 C 393.154 92.541 386.15 96.514 376.738 97.353 C 376.572 97.368 376.462 97.434 376.311 97.463 C 284.762 106.556 220.507 62.27 143.631 139.152 C 56.324 226.452 102.747 317.423 126.958 352.741 L 88.752 390.951 C 81.642 398.057 81.917 409.864 89.377 417.324 C 96.833 424.783 108.64 425.055 115.75 417.949 L 153.956 379.739 C 189.278 403.95 280.241 450.369 367.549 363.069 C 444.786 285.834 399.724 221.353 409.357 129.125 Z"/>
        </clipPath>
        <clipPath id="clip_group">
            <path d="M 409.357 129.125 C 410.063 122.563 412.208 117.289 413.348 114.883 C 413.466 114.677 413.558 114.456 413.661 114.243 C 413.896 113.779 414.069 113.456 414.069 113.456 L 413.896 113.544 C 415.588 109.521 415.676 104.981 413.925 100.972 C 413.15 99.2 412.071 97.522 410.618 96.073 C 409.173 94.624 407.503 93.55 405.733 92.77 C 401.676 90.99 397.063 91.085 393.003 92.843 L 393.154 92.541 C 393.154 92.541 386.15 96.514 376.738 97.353 C 376.572 97.368 376.462 97.434 376.311 97.463 C 284.762 106.556 220.507 62.27 143.631 139.152 C 56.324 226.452 102.747 317.423 126.958 352.741 L 88.752 390.951 C 81.642 398.057 81.917 409.864 89.377 417.324 C 96.833 424.783 108.64 425.055 115.75 417.949 L 153.956 379.739 C 189.278 403.95 280.241 450.369 367.549 363.069 C 444.786 285.834 399.724 221.353 409.357 129.125 Z"/>
        </clipPath>
        <clipPath id="clip_path_3">
            <path
                d="M 409.357 129.125 C 410.063 122.563 412.208 117.289 413.348 114.883 C 413.466 114.677 413.558 114.456 413.661 114.243 C 413.896 113.779 414.069 113.456 414.069 113.456 L 413.896 113.544 C 415.588 109.521 415.676 104.981 413.925 100.972 C 413.15 99.2 412.071 97.522 410.618 96.073 C 409.173 94.624 407.503 93.55 405.733 92.77 C 401.676 90.99 397.063 91.085 393.003 92.843 L 393.154 92.541 C 393.154 92.541 386.15 96.514 376.738 97.353 C 376.572 97.368 376.462 97.434 376.311 97.463 C 284.762 106.556 220.507 62.27 143.631 139.152 C 56.324 226.452 102.747 317.423 126.958 352.741 L 88.752 390.951 C 81.642 398.057 81.917 409.864 89.377 417.324 C 96.833 424.783 108.64 425.055 115.75 417.949 L 153.956 379.739 C 189.278 403.95 280.241 450.369 367.549 363.069 C 444.786 285.834 399.724 221.353 409.357 129.125 Z"
                clip-path="url(#clip_path_3_1)"/>
        </clipPath>
        <clipPath id="clip_path_3_1">
            <path d="M 416.658 90.047 C 302.548 121.511 231.329 51.455 143.632 139.152 C 56.325 226.452 102.748 317.423 126.959 352.741 L 88.753 390.951 C 81.643 398.057 81.918 409.864 89.378 417.324 C 96.834 424.783 108.641 425.055 115.751 417.949 L 153.957 379.739 C 189.279 403.95 280.242 450.369 367.55 363.069 C 455.247 275.373 385.191 204.154 416.658 90.047 Z"/>
        </clipPath>
        <clipPath id="clip_path_4">
            <path
                d="M 409.357 129.125 C 410.063 122.563 412.208 117.289 413.348 114.883 C 413.466 114.677 413.558 114.456 413.661 114.243 C 413.896 113.779 414.069 113.456 414.069 113.456 L 413.896 113.544 C 415.588 109.521 415.676 104.981 413.925 100.972 C 413.15 99.2 412.071 97.522 410.618 96.073 C 409.173 94.624 407.503 93.55 405.733 92.77 C 401.676 90.99 397.063 91.085 393.003 92.843 L 393.154 92.541 C 393.154 92.541 386.15 96.514 376.738 97.353 C 376.572 97.368 376.462 97.434 376.311 97.463 C 284.762 106.556 220.507 62.27 143.631 139.152 C 56.324 226.452 102.747 317.423 126.958 352.741 L 88.752 390.951 C 81.642 398.057 81.917 409.864 89.377 417.324 C 96.833 424.783 108.64 425.055 115.75 417.949 L 153.956 379.739 C 189.278 403.95 280.241 450.369 367.549 363.069 C 444.786 285.834 399.724 221.353 409.357 129.125 Z"
                clip-path="url(#clip_path_4_1)"/>
        </clipPath>
        <clipPath id="clip_path_4_1">
            <path
                d="M 416.658 90.047 C 302.548 121.511 231.329 51.455 143.632 139.152 C 56.325 226.452 102.748 317.423 126.959 352.741 L 88.753 390.951 C 81.643 398.057 81.918 409.864 89.378 417.324 C 96.834 424.783 108.641 425.055 115.751 417.949 L 153.957 379.739 C 189.279 403.95 280.242 450.369 367.55 363.069 C 455.247 275.373 385.191 204.154 416.658 90.047 Z"
                clip-path="url(#clip_path_4_2)"/>
        </clipPath>
        <clipPath id="clip_path_4_2">
            <path d="M 416.658 90.047 C 302.548 121.511 231.329 51.455 143.632 139.152 C 56.325 226.452 102.748 317.423 126.959 352.741 L 88.753 390.951 C 81.643 398.057 81.918 409.864 89.378 417.324 C 96.834 424.783 108.641 425.055 115.751 417.949 L 153.957 379.739 C 189.279 403.95 280.242 450.369 367.55 363.069 C 455.247 275.373 385.191 204.154 416.658 90.047 Z"/>
        </clipPath>
        <clipPath id="clip_path_5">
            <path
                d="M 409.357 129.125 C 410.063 122.563 412.208 117.289 413.348 114.883 C 413.466 114.677 413.558 114.456 413.661 114.243 C 413.896 113.779 414.069 113.456 414.069 113.456 L 413.896 113.544 C 415.588 109.521 415.676 104.981 413.925 100.972 C 413.15 99.2 412.071 97.522 410.618 96.073 C 409.173 94.624 407.503 93.55 405.733 92.77 C 401.676 90.99 397.063 91.085 393.003 92.843 L 393.154 92.541 C 393.154 92.541 386.15 96.514 376.738 97.353 C 376.572 97.368 376.462 97.434 376.311 97.463 C 284.762 106.556 220.507 62.27 143.631 139.152 C 56.324 226.452 102.747 317.423 126.958 352.741 L 88.752 390.951 C 81.642 398.057 81.917 409.864 89.377 417.324 C 96.833 424.783 108.64 425.055 115.75 417.949 L 153.956 379.739 C 189.278 403.95 280.241 450.369 367.549 363.069 C 444.786 285.834 399.724 221.353 409.357 129.125 Z"
                clip-path="url(#clip_path_5_1)"/>
        </clipPath>
        <clipPath id="clip_path_5_1">
            <path
                d="M 416.658 90.047 C 302.548 121.511 231.329 51.455 143.632 139.152 C 56.325 226.452 102.748 317.423 126.959 352.741 L 88.753 390.951 C 81.643 398.057 81.918 409.864 89.378 417.324 C 96.834 424.783 108.641 425.055 115.751 417.949 L 153.957 379.739 C 189.279 403.95 280.242 450.369 367.55 363.069 C 455.247 275.373 385.191 204.154 416.658 90.047 Z"
                clip-path="url(#clip_path_5_2)"/>
        </clipPath>
        <clipPath id="clip_path_5_2">
            <path
                d="M 416.658 90.047 C 302.548 121.511 231.329 51.455 143.632 139.152 C 56.325 226.452 102.748 317.423 126.959 352.741 L 88.753 390.951 C 81.643 398.057 81.918 409.864 89.378 417.324 C 96.834 424.783 108.641 425.055 115.751 417.949 L 153.957 379.739 C 189.279 403.95 280.242 450.369 367.55 363.069 C 455.247 275.373 385.191 204.154 416.658 90.047 Z"
                clip-path="url(#clip_path_5_3)"/>
        </clipPath>
        <clipPath id="clip_path_5_3">
            <path d="M 416.658 90.047 C 302.548 121.511 231.329 51.455 143.632 139.152 C 56.325 226.452 102.748 317.423 126.959 352.741 L 88.753 390.951 C 81.643 398.057 81.918 409.864 89.378 417.324 C 96.834 424.783 108.641 425.055 115.751 417.949 L 153.957 379.739 C 189.279 403.95 280.242 450.369 367.55 363.069 C 455.247 275.373 385.191 204.154 416.658 90.047 Z"/>
        </clipPath>
        <clipPath id="clip_path">
            <path d="M 416.658 90.047 C 302.548 121.511 231.329 51.455 143.632 139.152 C 56.325 226.452 102.748 317.423 126.959 352.741 L 88.753 390.951 C 81.643 398.057 81.918 409.864 89.378 417.324 C 96.834 424.783 108.641 425.055 115.751 417.949 L 153.957 379.739 C 189.279 403.95 280.242 450.369 367.55 363.069 C 455.247 275.373 385.191 204.154 416.658 90.047 Z"/>
        </clipPath>
        <clipPath id="clip_path_1">
            <path
                d="M 416.658 90.047 C 302.548 121.511 231.329 51.455 143.632 139.152 C 56.325 226.452 102.748 317.423 126.959 352.741 L 88.753 390.951 C 81.643 398.057 81.918 409.864 89.378 417.324 C 96.834 424.783 108.641 425.055 115.751 417.949 L 153.957 379.739 C 189.279 403.95 280.242 450.369 367.55 363.069 C 455.247 275.373 385.191 204.154 416.658 90.047 Z"
                clip-path="url(#clip_path_1_1)"/>
        </clipPath>
        <clipPath id="clip_path_1_1">
            <path d="M 367.55 363.069 C 455.247 275.373 385.191 204.154 416.658 90.047 C 302.548 121.511 231.329 51.455 143.632 139.152 C 56.325 226.452 102.748 317.423 126.959 352.741 L 75.879 403.825 L 102.877 430.823 L 153.957 379.739 C 189.28 403.95 280.242 450.369 367.55 363.069 Z"/>
        </clipPath>
        <clipPath id="clip_path_2">
            <path
                d="M 416.658 90.047 C 302.548 121.511 231.329 51.455 143.632 139.152 C 56.325 226.452 102.748 317.423 126.959 352.741 L 88.753 390.951 C 81.643 398.057 81.918 409.864 89.378 417.324 C 96.834 424.783 108.641 425.055 115.751 417.949 L 153.957 379.739 C 189.279 403.95 280.242 450.369 367.55 363.069 C 455.247 275.373 385.191 204.154 416.658 90.047 Z"
                clip-path="url(#clip_path_2_1)"/>
        </clipPath>
        <clipPath id="clip_path_2_1">
            <path d="M 367.55 363.069 C 455.247 275.373 385.191 204.154 416.658 90.047 C 302.548 121.511 231.329 51.455 143.632 139.152 C 56.325 226.452 102.748 317.423 126.959 352.741 L 75.879 403.825 L 102.877 430.823 L 153.957 379.739 C 189.28 403.95 280.242 450.369 367.55 363.069 Z"/>
        </clipPath>
    </defs>
    <g id="group_1">
        <g
            id="group"
            clip-path="url(#clip_group)">
            <path
                id="path"
                clip-path="url(#clip_path)"
                d="M 367.55 363.069 C 455.247 275.373 385.191 204.154 416.658 90.047 C 302.548 121.511 231.329 51.455 143.632 139.152 C 56.325 226.452 102.748 317.423 126.959 352.741 L 75.879 403.825 L 102.877 430.823 L 153.957 379.739 C 189.28 403.95 280.242 450.369 367.55 363.069 Z"
                fill="#64893b"/>
            <path
                id="path_1"
                clip-path="url(#clip_path_1)"
                d="M 398.591 380.511 C 486.287 292.822 416.228 221.604 447.695 107.496 C 333.585 138.96 262.37 68.896 174.669 156.594 C 87.362 243.901 133.785 334.871 157.999 370.19 L 89.93 438.26 L 116.921 465.258 L 184.994 397.181 C 220.313 421.399 311.28 467.819 398.591 380.511 Z"
                fill="#759f3f"/>
            <path
                id="path_2"
                clip-path="url(#clip_path_2)"
                d="M 169.447 310.28 L 206.611 347.443 L 96.75 457.304 L 59.586 420.14 Z"
                fill="#759f3f"/>
        </g>
        <path
            id="path_3"
            clip-path="url(#clip_path_3)"
            d="M 105.357 405.112 C 104.393 405.112 103.429 404.744 102.694 404.008 C 101.222 402.536 101.222 400.153 102.694 398.682 L 360.04 141.336 C 361.511 139.865 363.894 139.865 365.365 141.336 C 366.837 142.808 366.837 145.191 365.365 146.662 L 108.02 404.009 C 107.283 404.744 106.321 405.112 105.357 405.112 Z"
            fill="#e2e7d3"/>
        <path
            id="path_4"
            clip-path="url(#clip_path_4)"
            d="M 317.397 336.284 L 170.417 336.284 L 170.417 189.302 C 170.417 187.22 172.102 185.535 174.184 185.535 C 176.266 185.535 177.951 187.22 177.951 189.302 L 177.951 328.751 L 317.397 328.751 C 319.479 328.751 321.164 330.437 321.164 332.519 C 321.164 334.601 319.479 336.284 317.397 336.284 Z"
            fill="#e2e7d3"/>
        <path
            id="path_5"
            clip-path="url(#clip_path_5)"
            d="M 234.334 272.364 L 234.334 190.633 C 234.334 188.551 236.019 186.866 238.101 186.866 C 240.183 186.866 241.868 188.551 241.868 190.633 L 241.868 264.831 L 316.066 264.823 C 318.144 264.823 319.833 266.508 319.833 268.59 C 319.833 270.672 318.148 272.357 316.066 272.357 L 234.334 272.364 Z"
            fill="#e2e7d3"/>
    </g>
    <path
        id="path_6"
        clip-path="url(#clip_path_6)"
        d="M 399.679 115.634 C 399.679 115.634 414.168 115.06 418.994 112.397 C 423.819 109.734 418.828 134.04 418.828 134.04 L 395.107 137.285 L 399.679 115.634 Z"
        fill="#759f3f"/>
    <path
        id="path_7"
        clip-path="url(#clip_path_7)"
        d="M 399.679 115.634 C 399.679 115.634 426.068 115.31 423.32 106.071 C 420.576 96.839 396.98 47.829 381.874 61.13 C 351.244 88.097 399.679 115.634 399.679 115.634 Z"
        fill="#64893b"/>
</svg>
