<svg
    xmlns="http://www.w3.org/2000/svg"
    viewBox="0 0 500 500"
    id="vector">
    <path
        id="path"
        d="M 319.857 352.646 C 318.004 350.645 317 348.002 317.055 345.278 C 319.324 235.743 353.198 152.301 372.874 112.772 C 372.421 112.705 371.973 112.593 371.502 112.593 C 368.281 112.593 365.279 114.242 363.549 116.955 C 361.121 120.766 303.961 211.9 301.152 347.846 C 301.1 350.292 302.001 352.658 303.662 354.448 C 306.067 357.053 320.658 370.032 371.503 370.032 C 375.58 370.032 379.338 369.921 382.963 369.769 C 336.376 367.818 322.326 355.325 319.857 352.646 Z"
        fill="#638038"/>
    <path
        id="path_1"
        d="M 439.341 354.447 C 441.005 352.657 441.906 350.292 441.85 347.845 C 439.041 211.9 381.884 120.765 379.454 116.954 C 377.978 114.638 375.555 113.171 372.876 112.77 C 353.199 152.299 319.325 235.741 317.057 345.276 C 317.001 348.001 318.006 350.643 319.859 352.644 C 322.328 355.324 336.378 367.817 382.964 369.767 C 424.527 367.993 437.129 356.845 439.341 354.447 Z"
        fill="#76a943"/>
    <path
        id="path_2"
        d="M 385.257 342.599 L 419.558 303.988 L 416.901 301.323 L 414.244 298.666 L 384.235 325.313 L 382.092 289.059 L 403.818 264.595 L 402.032 262.805 L 400.245 261.019 L 381.422 277.734 L 376.178 189.133 L 371.452 189.133 L 366.734 189.133 L 361.494 277.655 L 342.763 261.018 L 340.977 262.804 L 339.187 264.594 L 360.824 288.954 L 358.678 325.23 L 328.766 298.664 L 326.109 301.321 L 323.448 303.986 L 357.656 342.497 L 353.323 415.705 L 352.682 426.523 C 356.729 428.94 363.459 430.526 371.105 430.526 C 379.225 430.526 386.267 428.721 390.196 426.052 L 389.607 416.064 L 385.257 342.599 Z"
        fill="#886d5c"/>
    <path
        id="path_3"
        d="M 77.918 352.646 C 76.065 350.645 75.061 348.002 75.116 345.278 C 77.384 235.743 111.259 152.301 130.935 112.772 C 130.483 112.705 130.035 112.593 129.564 112.593 C 126.343 112.593 123.341 114.242 121.61 116.955 C 119.183 120.766 62.023 211.9 59.213 347.846 C 59.161 350.292 60.062 352.658 61.722 354.448 C 64.127 357.053 78.719 370.032 129.564 370.032 C 133.64 370.032 137.399 369.921 141.023 369.769 C 94.438 367.818 80.387 355.325 77.918 352.646 Z"
        fill="#638038"/>
    <path
        id="path_4"
        d="M 197.402 354.447 C 199.066 352.657 199.966 350.292 199.911 347.845 C 197.101 211.9 139.945 120.765 137.514 116.954 C 136.039 114.638 133.616 113.171 130.936 112.77 C 111.26 152.299 77.385 235.741 75.117 345.276 C 75.061 348.001 76.066 350.643 77.919 352.644 C 80.387 355.324 94.438 367.817 141.024 369.767 C 182.588 367.993 195.189 356.845 197.402 354.447 Z"
        fill="#76a943"/>
    <path
        id="path_5"
        d="M 143.317 342.599 L 177.618 303.988 L 174.961 301.323 L 172.304 298.666 L 142.295 325.313 L 140.152 289.059 L 161.878 264.595 L 160.092 262.805 L 158.306 261.019 L 139.483 277.734 L 134.238 189.133 L 129.512 189.133 L 124.794 189.133 L 119.554 277.655 L 100.823 261.018 L 99.037 262.804 L 97.247 264.594 L 118.884 288.954 L 116.738 325.23 L 86.825 298.664 L 84.168 301.321 L 81.507 303.986 L 115.715 342.497 L 111.383 415.705 L 110.741 426.523 C 114.788 428.94 121.518 430.526 129.165 430.526 C 137.285 430.526 144.327 428.721 148.255 426.052 L 147.666 416.064 L 143.317 342.599 Z"
        fill="#886d5c"/>
    <path
        id="path_6"
        d="M 181.673 379.675 C 179.201 377.006 177.863 373.486 177.938 369.85 C 180.961 223.801 226.129 112.549 252.365 59.84 C 251.761 59.751 251.161 59.607 250.534 59.607 C 246.239 59.607 242.236 61.804 239.931 65.421 C 236.692 70.502 160.482 192.013 156.735 373.278 C 156.665 376.535 157.865 379.689 160.078 382.076 C 163.288 385.553 182.741 402.857 250.534 402.857 C 255.972 402.857 260.982 402.709 265.815 402.504 C 203.699 399.907 184.968 383.248 181.673 379.675 Z"
        fill="#638038"/>
    <path
        id="path_7"
        d="M 340.986 382.076 C 343.203 379.689 344.403 376.535 344.333 373.278 C 340.586 192.012 264.376 70.502 261.133 65.421 C 259.169 62.33 255.938 60.373 252.364 59.84 C 226.129 112.549 180.961 223.801 177.937 369.85 C 177.863 373.486 179.201 377.006 181.672 379.675 C 184.967 383.248 203.698 399.907 265.814 402.505 C 321.232 400.137 338.036 385.271 340.986 382.076 Z"
        fill="#76a943"/>
    <path
        id="path_8"
        d="M 268.872 366.28 L 314.606 314.795 L 311.062 311.244 L 307.519 307.701 L 267.511 343.232 L 264.65 294.892 L 293.622 262.274 L 291.238 259.887 L 288.855 257.504 L 263.757 279.793 L 256.763 161.654 L 250.466 161.654 L 244.173 161.654 L 237.187 279.685 L 212.211 257.503 L 209.828 259.886 L 207.444 262.273 L 236.294 294.753 L 233.433 343.123 L 193.547 307.699 L 190.003 311.242 L 186.457 314.793 L 232.064 366.142 L 226.291 463.755 L 225.438 478.18 C 230.831 481.401 239.806 483.516 249.999 483.516 C 260.825 483.516 270.216 481.112 275.457 477.553 L 274.667 464.233 L 268.872 366.28 Z"
        fill="#886d5c"/>
</svg>
