<svg
    xmlns="http://www.w3.org/2000/svg"
    viewBox="0 0 500 500"
    id="vector">
    <path
        id="path"
        d="M 249.1 10.751 C 181.363 10.751 120.255 39.037 76.815 84.375 C 35.769 127.237 10.482 185.331 10.482 249.37 C 10.482 381.15 117.324 487.984 249.1 487.984 C 336.091 487.984 412.183 441.417 453.892 371.884 C 475.366 336.068 487.718 294.181 487.718 249.369 C 487.718 117.586 380.884 10.751 249.1 10.751 Z M 421.345 352.372 C 384.66 413.52 320.27 450.033 249.1 450.033 C 138.453 450.033 48.433 360.017 48.433 249.37 C 48.433 197.469 68.246 148.191 104.226 110.622 C 142.481 70.695 193.934 48.703 249.1 48.703 C 359.748 48.703 449.767 138.723 449.767 249.37 C 449.767 285.738 439.939 321.354 421.345 352.372 Z"
        fill="#ffd54f"/>
    <path
        id="path_1"
        d="M 249.1 48.702 C 193.934 48.702 142.481 70.695 104.226 110.621 C 68.247 148.19 48.433 197.468 48.433 249.369 C 48.433 360.016 138.453 450.032 249.1 450.032 C 320.27 450.032 384.661 413.519 421.345 352.371 C 439.939 321.353 449.767 285.737 449.767 249.369 C 449.767 138.722 359.748 48.702 249.1 48.702 Z"
        fill="#808080"/>
    <path
        id="path_2"
        d="M 140.465 159.187 C 162.476 63.853 266.512 24.338 294.972 15.202 C 280.12 12.311 264.796 10.751 249.1 10.751 C 181.363 10.751 120.255 39.037 76.815 84.375 C 35.769 127.237 10.482 185.331 10.482 249.37 C 10.482 381.15 117.324 487.984 249.1 487.984 C 263.41 487.984 277.389 486.605 291.006 484.193 C 275.751 484.163 199.081 481.617 153.239 434.497 C 102.161 381.976 114.933 269.876 140.465 159.187 Z"
        fill="#b9bcbc"
        fill-opacity="0.4"
        stroke-opacity="0.4"
        stroke-width="1"/>
    <path
        id="path_3"
        d="M 163.298 163.768 C 163.298 151.174 173.242 141.216 185.855 141.216 C 198.445 141.216 208.411 151.174 208.411 163.768 L 208.411 224.116 L 291.603 224.116 L 291.603 163.768 C 291.603 151.174 301.561 141.216 314.155 141.216 C 326.756 141.216 336.715 151.174 336.715 163.768 L 336.715 327.233 C 336.715 339.826 326.756 349.789 314.155 349.789 C 301.561 349.789 291.603 339.826 291.603 327.233 L 291.603 265.707 L 208.41 265.707 L 208.41 327.233 C 208.41 339.826 198.444 349.789 185.854 349.789 C 173.242 349.789 163.297 339.826 163.297 327.233 L 163.297 163.768 Z"
        fill="#ffffff"/>
</svg>
