<svg
    xmlns="http://www.w3.org/2000/svg"
    viewBox="0 0 500 500"
    id="vector">
    <path
        id="path"
        d="M 411.275 399.917 C 411.275 406.069 406.294 411.05 400.149 411.05 L 99.845 411.05 C 93.699 411.05 88.711 406.07 88.711 399.917 L 88.711 99.62 C 88.711 93.468 93.699 88.483 99.845 88.483 L 400.149 88.483 C 406.294 88.483 411.275 93.467 411.275 99.62 L 411.275 399.917 Z"
        fill="#e8e7e7"/>
    <path
        id="path_1"
        d="M 108.806 112.147 L 391.187 112.147 L 391.187 330.671 L 108.806 330.671 Z"
        fill="#ffffff"/>
    <path
        id="path_2"
        d="M 108.806 249.768 L 391.187 249.768 L 391.187 330.67 L 108.806 330.67 Z"
        fill="#759f3f"/>
    <path
        id="path_3"
        d="M 108.806 112.147 L 391.187 112.147 L 391.187 249.769 L 108.806 249.769 Z"
        fill="#8dd5ea"/>
    <path
        id="path_4"
        d="M 156.527 207.114 L 184.902 157.97 L 213.276 207.114 L 241.651 256.261 L 184.902 256.261 L 128.153 256.261 Z"
        fill="#4a474a"/>
    <path
        id="path_5"
        d="M 241.651 264.611 L 128.153 264.611 C 125.166 264.611 122.416 263.017 120.919 260.435 C 119.429 257.847 119.429 254.667 120.919 252.084 L 177.668 153.792 C 179.157 151.209 181.915 149.619 184.902 149.619 C 187.881 149.619 190.639 151.209 192.129 153.792 L 248.878 252.084 C 250.368 254.667 250.368 257.847 248.878 260.435 C 247.388 263.017 244.63 264.611 241.651 264.611 Z M 142.614 247.911 L 227.181 247.911 L 184.902 174.673 L 142.614 247.911 Z"
        fill="#4a474a"/>
    <path
        id="path_6"
        d="M 224.668 232.516 L 245.993 195.565 L 267.32 232.516 L 288.659 269.467 L 245.993 269.467 L 203.328 269.467 Z"
        fill="#4a474a"/>
    <path
        id="path_7"
        d="M 288.659 275.745 L 203.328 275.745 C 201.09 275.745 199.015 274.548 197.894 272.609 C 196.76 270.664 196.76 268.269 197.894 266.324 L 240.552 192.427 C 241.679 190.485 243.747 189.288 245.992 189.288 C 248.238 189.288 250.314 190.485 251.433 192.427 L 294.098 266.324 C 295.225 268.269 295.225 270.664 294.098 272.609 C 292.974 274.548 290.906 275.745 288.659 275.745 Z M 214.21 263.188 L 277.778 263.188 L 245.993 208.125 L 214.21 263.188 Z"
        fill="#4a474a"/>
    <path
        id="path_8"
        d="M 362.672 172.995 C 362.672 190.099 348.811 203.964 331.702 203.964 C 314.602 203.964 300.733 190.099 300.733 172.995 C 300.733 155.891 314.602 142.026 331.702 142.026 C 348.811 142.026 362.672 155.891 362.672 172.995 Z"
        fill="#eea153"/>
</svg>
