<svg
    xmlns="http://www.w3.org/2000/svg"
    viewBox="0 0 500 500"
    id="vector">
    <path
        id="path"
        d="M 477.252 227.781 C 477.073 227.781 476.896 227.778 476.711 227.766 L 364.124 219.268 C 360.211 218.968 357.29 215.561 357.586 211.655 C 357.875 207.756 361.277 204.81 365.191 205.117 L 477.777 213.615 C 481.683 213.912 484.611 217.322 484.322 221.228 C 484.033 224.946 480.928 227.781 477.252 227.781 Z"
        fill="#3d3d3d"/>
    <path
        id="path_1"
        d="M 394.619 250.896 C 390.697 250.896 387.517 247.72 387.517 243.807 L 387.517 214.454 C 387.517 210.537 390.697 207.36 394.619 207.36 C 398.532 207.36 401.705 210.536 401.705 214.454 L 401.705 243.807 C 401.705 247.72 398.532 250.896 394.619 250.896 Z"
        fill="#3d3d3d"/>
    <path
        id="path_2"
        d="M 448.18 255.611 C 444.267 255.611 441.094 252.435 441.094 248.521 L 441.094 219.172 C 441.094 215.251 444.267 212.075 448.18 212.075 C 452.094 212.075 455.282 215.251 455.282 219.172 L 455.282 248.521 C 455.281 252.435 452.094 255.611 448.18 255.611 Z"
        fill="#3d3d3d"/>
    <path
        id="path_3"
        d="M 359.506 263.142 L 345.141 188.425 L 355.793 175.713 C 357.898 173.204 358.387 169.716 357.061 166.718 C 355.734 163.723 352.806 161.748 349.538 161.625 L 313.276 160.276 L 180.713 151.055 C 177.859 150.881 175.095 152.093 173.33 154.353 L 114.713 229.678 C 112.817 232.105 112.386 235.367 113.557 238.213 C 114.721 241.056 117.338 243.065 120.392 243.457 L 349.967 273.274 C 350.405 273.329 350.826 273.355 351.249 273.347 C 353.539 273.303 355.733 272.339 357.334 270.653 C 359.217 268.635 360.032 265.851 359.506 263.142 Z"
        fill="#db9861"/>
    <path
        id="path_4"
        d="M 56.541 264.305 C 124.261 317.048 167.445 328.495 201.912 330.208 C 202.913 330.338 203.906 330.493 204.951 330.493 L 454.926 330.493 C 464.028 330.493 473.293 322.629 475.762 312.774 L 480.825 292.631 L 56.541 264.305 Z"
        fill="#adb0be"/>
    <path
        id="path_5"
        d="M 489.571 257.82 C 492.329 246.823 486.837 237.306 477.148 236.735 L 397.154 232.021 L 27.389 209.139 C 27.389 209.139 -18.316 205.992 56.541 264.302 L 56.541 264.305 L 480.824 292.632 L 489.571 257.82 Z"
        fill="#eb2424"/>
    <path
        id="path_6"
        d="M 216.515 187.862 C 216.515 197.435 208.746 205.196 199.17 205.196 C 189.601 205.196 181.84 197.435 181.84 187.862 C 181.84 178.289 189.601 170.525 199.17 170.525 C 208.746 170.525 216.515 178.289 216.515 187.862 Z"
        fill="#22aae2"/>
    <path
        id="path_7"
        d="M 286.021 192.369 C 286.021 201.942 278.26 209.702 268.683 209.702 C 259.114 209.702 251.353 201.941 251.353 192.369 C 251.353 182.792 259.114 175.031 268.683 175.031 C 278.26 175.031 286.021 182.792 286.021 192.369 Z"
        fill="#22aae2"/>
</svg>
