<svg
    xmlns="http://www.w3.org/2000/svg"
    viewBox="0 0 500 500"
    id="vector">
    <path
        id="path"
        d="M 460.255 243.421 C 460.255 233.444 452.168 225.361 442.194 225.361 L 111.104 225.361 C 101.131 225.361 93.044 233.444 93.044 243.421 L 93.044 247.18 C 93.044 257.153 101.131 265.24 111.104 265.24 L 442.195 265.24 C 452.169 265.24 460.256 257.153 460.256 247.18 L 460.256 243.421 Z"
        fill="#e0e0e0"/>
    <path
        id="path_1"
        d="M 56.464 343.206 L 56.464 127.021 C 56.464 117.637 63.653 110.009 72.808 109.135 C 70.903 108.412 68.865 107.971 66.708 107.971 C 57.15 107.971 49.4 115.721 49.4 125.283 L 49.4 343.955 C 49.4 353.517 57.15 361.263 66.708 361.263 C 68.039 361.263 69.317 361.081 70.566 360.8 C 62.501 358.987 56.464 351.813 56.464 343.206 Z"
        fill="#886d5c"/>
    <path
        id="path_2"
        d="M 460.255 279.208 C 460.255 270.662 453.328 263.735 444.782 263.735 L 113.364 263.735 L 113.364 294.677 L 425.64 294.677 L 425.64 343.954 C 425.64 353.516 433.389 361.262 442.948 361.262 C 452.506 361.262 460.256 353.516 460.256 343.954 L 460.256 281.042 C 460.256 280.727 460.182 280.434 460.167 280.123 C 460.181 279.816 460.255 279.523 460.255 279.208 Z"
        fill="#dbaf83"/>
    <path
        id="path_3"
        d="M 84.015 263.735 L 84.015 125.283 C 84.015 117.878 79.346 111.607 72.807 109.136 C 63.653 110.01 56.463 117.638 56.463 127.022 L 56.463 343.207 C 56.463 351.813 62.5 358.988 70.565 360.801 C 78.259 359.044 84.015 352.184 84.015 343.956 L 84.015 294.679 L 113.364 294.679 L 113.364 263.737 L 84.015 263.737 Z"
        fill="#dbaf83"/>
    <path
        id="path_4"
        d="M 425.691 294.678 L 425.691 343.955 C 425.691 353.517 433.437 361.263 442.995 361.263 C 444.329 361.263 445.608 361.081 446.853 360.8 C 438.789 358.987 432.75 351.813 432.75 343.206 L 432.75 294.678 L 425.691 294.678 Z"
        fill="#886d5c"/>
    <path
        id="path_5"
        d="M 84.015 282.548 L 426.348 282.548 L 426.348 294.678 L 84.015 294.678 Z"
        fill="#886d5c"/>
    <path
        id="path_6"
        d="M 426.348 282.548 C 426.348 282.548 432.751 282.351 432.751 294.678 L 425.64 294.678 L 426.348 282.548 Z"
        fill="#886d5c"/>
    <path
        id="path_7"
        d="M 160.767 189.241 C 160.767 197.619 157.435 205.663 151.511 211.588 C 145.586 217.512 137.542 220.844 129.164 220.844 C 120.786 220.844 112.742 217.512 106.817 211.588 C 100.893 205.663 97.561 197.619 97.561 189.241 C 97.561 180.863 100.893 172.819 106.817 166.894 C 112.742 160.97 120.786 157.638 129.164 157.638 C 137.542 157.638 145.586 160.97 151.511 166.894 C 157.435 172.819 160.767 180.863 160.767 189.241 Z"
        fill="#b9937f"/>
    <path
        id="path_8"
        d="M 448.34 238.147 L 286.81 238.147 L 193.103 238.147 L 166.037 238.147 L 166.037 247.179 L 166.037 265.239 L 193.103 265.239 L 286.81 265.239 L 448.34 265.239 C 454.986 265.239 460.255 260.021 460.255 253.584 L 460.255 226.491 C 460.255 232.933 454.985 238.147 448.34 238.147 Z"
        fill="#775c77"/>
    <path
        id="path_9"
        d="M 448.34 195.241 L 193.103 162.6 C 178.374 160.717 166.037 167.225 166.037 177.199 L 166.037 186.669 L 166.037 213.757 L 166.037 220.091 L 166.037 238.148 L 193.103 238.148 L 286.81 238.148 L 448.34 238.148 C 454.986 238.148 460.255 232.933 460.255 226.492 L 460.255 208.42 C 460.255 201.982 454.985 196.09 448.34 195.241 Z"
        fill="#987c95"/>
</svg>
