<svg
    xmlns="http://www.w3.org/2000/svg"
    viewBox="0 0 500 500"
    id="vector">
    <path
        id="path"
        d="M 107.692 431.203 C 84.99 431.203 66.526 412.738 66.526 390.036 L 66.526 105.403 C 66.526 82.701 84.99 64.233 107.692 64.233 L 392.332 64.233 C 415.02 64.233 433.499 82.701 433.499 105.403 L 433.499 390.036 C 433.499 412.738 415.02 431.203 392.332 431.203 L 107.692 431.203 Z"
        fill="#1a8241"/>
    <path
        id="path_1"
        d="M 82.209 221.83 C 82.209 125.652 104.014 82.139 117.785 64.233 L 107.691 64.233 C 84.989 64.233 66.525 82.701 66.525 105.403 L 66.525 390.036 C 66.525 412.738 84.989 431.203 107.691 431.203 L 260.297 431.203 C 98.489 410.34 82.209 338.349 82.209 221.83 Z"
        fill="#166735"/>
    <path
        id="path_2"
        d="M 417.799 390.036 C 417.799 404.116 406.397 415.518 392.331 415.518 L 107.691 415.518 C 93.619 415.518 82.209 404.116 82.209 390.036 L 82.209 105.403 C 82.209 91.327 93.619 79.924 107.691 79.924 L 392.331 79.924 C 406.396 79.924 417.799 91.326 417.799 105.403 L 417.799 390.036 Z"
        fill="#1a8241"/>
    <path
        id="path_3"
        d="M 392.331 419.285 L 107.691 419.285 C 91.566 419.285 78.442 406.161 78.442 390.036 L 78.442 105.403 C 78.442 89.278 91.566 76.158 107.691 76.158 L 392.331 76.158 C 408.441 76.158 421.566 89.278 421.566 105.403 L 421.566 390.036 C 421.567 406.161 408.442 419.285 392.331 419.285 Z M 107.692 83.69 C 95.715 83.69 85.976 93.43 85.976 105.403 L 85.976 390.036 C 85.976 402.013 95.715 411.752 107.692 411.752 L 392.332 411.752 C 404.294 411.752 414.034 402.013 414.034 390.036 L 414.034 105.403 C 414.034 93.43 404.294 83.69 392.332 83.69 L 107.692 83.69 Z"
        fill="#ffffff"/>
    <path
        id="path_4"
        d="M 285.354 354.136 C 285.354 360.933 279.852 366.436 273.054 366.436 L 226.954 366.436 C 220.164 366.436 214.654 360.933 214.654 354.136 L 214.654 141.296 C 214.654 134.506 220.164 128.999 226.954 128.999 L 273.054 128.999 C 279.852 128.999 285.354 134.506 285.354 141.296 L 285.354 354.136 Z"
        fill="#ffffff"/>
    <path
        id="path_5"
        d="M 356.432 212.37 C 363.215 212.37 368.732 217.876 368.732 224.666 L 368.732 270.773 C 368.732 277.555 363.215 283.065 356.432 283.065 L 143.584 283.065 C 136.794 283.065 131.291 277.555 131.291 270.773 L 131.291 224.666 C 131.291 217.876 136.794 212.37 143.584 212.37 L 356.432 212.37 Z"
        fill="#ffffff"/>
</svg>
