<svg
    xmlns="http://www.w3.org/2000/svg"
    viewBox="0 0 500 500"
    id="vector">
    <path
        id="path"
        d="M 250.53 18.655 C 184.449 18.655 124.831 46.248 82.455 90.473 C 42.421 132.29 17.76 188.958 17.76 251.433 C 17.76 379.982 121.978 484.199 250.531 484.199 C 335.387 484.199 409.615 438.776 450.308 370.95 C 471.255 336.012 483.3 295.147 483.3 251.433 C 483.3 122.869 379.082 18.655 250.53 18.655"
        fill="#faece4"/>
    <path
        id="path_1"
        d="M 132.133 164.011 L 356.935 164.011 L 356.935 202.529 L 132.133 202.529 Z"
        fill="#886d5c"/>
    <path
        id="path_2"
        d="M 132.133 245.024 L 356.935 245.024 L 356.935 283.543 L 132.133 283.543 Z"
        fill="#886d5c"/>
    <path
        id="path_3"
        d="M 132.133 326.034 L 356.935 326.034 L 356.935 364.553 L 132.133 364.553 Z"
        fill="#886d5c"/>
    <path
        id="path_4"
        d="M 127.27 164.011 L 162.679 164.011 L 162.679 202.529 L 127.27 202.529 Z"
        fill="#514136"/>
    <path
        id="path_5"
        d="M 127.27 245.024 L 162.679 245.024 L 162.679 283.543 L 127.27 283.543 Z"
        fill="#514136"/>
    <path
        id="path_6"
        d="M 127.27 326.034 L 162.679 326.034 L 162.679 364.553 L 127.27 364.553 Z"
        fill="#514136"/>
    <path
        id="path_7"
        d="M 325.572 164.011 L 360.981 164.011 L 360.981 202.529 L 325.572 202.529 Z"
        fill="#514136"/>
    <path
        id="path_8"
        d="M 325.572 245.024 L 360.981 245.024 L 360.981 283.543 L 325.572 283.543 Z"
        fill="#514136"/>
    <path
        id="path_9"
        d="M 325.572 326.034 L 360.981 326.034 L 360.981 364.553 L 325.572 364.553 Z"
        fill="#514136"/>
    <path
        id="path_10"
        d="M 214.064 164.011 L 275.002 164.011 L 275.002 202.529 L 214.064 202.529 Z"
        fill="#514136"/>
    <path
        id="path_11"
        d="M 214.064 245.024 L 275.002 245.024 L 275.002 283.543 L 214.064 283.543 Z"
        fill="#514136"/>
    <path
        id="path_12"
        d="M 214.064 326.034 L 275.002 326.034 L 275.002 364.553 L 214.064 364.553 Z"
        fill="#514136"/>
    <path
        id="path_13"
        d="M 154.195 379.147 C 154.195 384.417 149.922 388.69 144.652 388.69 L 119.609 388.69 C 114.338 388.69 110.066 384.417 110.066 379.147 L 110.066 123.707 C 110.066 118.44 114.338 114.164 119.609 114.164 L 144.652 114.164 C 149.922 114.164 154.195 118.441 154.195 123.707 L 154.195 379.147 Z"
        fill="#886d5c"/>
    <path
        id="path_14"
        d="M 266.6 379.147 C 266.6 384.417 262.328 388.69 257.057 388.69 L 232.014 388.69 C 226.744 388.69 222.471 384.417 222.471 379.147 L 222.471 123.707 C 222.471 118.44 226.744 114.164 232.014 114.164 L 257.057 114.164 C 262.328 114.164 266.6 118.441 266.6 123.707 L 266.6 379.147 Z"
        fill="#886d5c"/>
    <path
        id="path_15"
        d="M 379.001 379.147 C 379.001 384.417 374.728 388.69 369.457 388.69 L 344.415 388.69 C 339.144 388.69 334.871 384.417 334.871 379.147 L 334.871 123.707 C 334.871 118.44 339.144 114.164 344.415 114.164 L 369.457 114.164 C 374.728 114.164 379.001 118.441 379.001 123.707 L 379.001 379.147 Z"
        fill="#886d5c"/>
</svg>
