<svg
    xmlns="http://www.w3.org/2000/svg"
    viewBox="0 0 500 500"
    id="vector">
    <defs>
        <clipPath id="clip_path_6">
            <path d="M 379.98 211.363 C 375.018 186.75 351.039 170.817 326.426 175.78 C 301.809 180.739 285.876 204.718 290.843 229.338 C 295.805 253.947 319.781 269.88 344.397 264.918 C 369.013 259.955 384.943 235.979 379.98 211.363 Z"/>
        </clipPath>
    </defs>
    <path
        id="path"
        d="M 379.98 211.363 C 375.018 186.75 351.039 170.817 326.426 175.78 C 301.809 180.739 285.876 204.718 290.843 229.338 C 295.805 253.947 319.781 269.88 344.397 264.918 C 369.013 259.955 384.943 235.979 379.98 211.363 Z"
        fill="#515251"/>
    <path
        id="path_1"
        d="M 367.02 287.261 C 327.872 287.261 327.872 297.538 288.727 297.538 C 249.582 297.538 249.582 287.261 210.438 287.261 C 171.296 287.261 171.296 297.538 132.148 297.538 C 96.914 297.538 91.918 282.973 63.288 285.764 L 63.288 324.308 C 91.918 321.521 96.914 336.082 132.148 336.082 C 171.296 336.082 171.296 325.806 210.438 325.806 C 249.583 325.806 249.583 336.082 288.727 336.082 C 327.871 336.082 327.872 325.806 367.02 325.806 C 403.396 325.806 405.783 327.855 436.714 334.408 L 436.714 295.864 C 405.782 289.315 403.396 287.261 367.02 287.261 Z"
        fill="#58b0e2"/>
    <path
        id="path_2"
        d="M 288.727 336.083 C 249.582 336.083 249.582 325.807 210.438 325.807 C 171.296 325.807 171.296 336.083 132.148 336.083 C 96.914 336.083 91.918 321.521 63.288 324.309 L 63.288 368.772 C 93.441 375.184 96.113 377.197 132.163 377.197 C 171.311 377.197 171.311 366.924 210.46 366.924 C 249.602 366.924 249.602 377.197 288.749 377.197 C 327.887 377.197 327.887 366.924 367.031 366.924 C 402.606 366.924 407.354 381.775 436.715 378.62 L 436.715 334.409 C 405.783 327.856 403.397 325.807 367.021 325.807 C 327.871 325.806 327.871 336.083 288.727 336.083 Z"
        fill="#409dd6"/>
    <path
        id="path_3"
        d="M 278.016 230.335 L 264.01 206.979 L 257.928 196.839 L 257.928 196.828 L 232.081 153.71 L 283.764 122.734 C 290.594 118.635 292.811 109.781 288.719 102.958 C 284.62 96.124 275.77 93.908 268.943 98.003 L 217.256 128.976 L 204.893 136.392 C 198.066 140.483 195.842 149.338 199.938 156.164 L 207.354 168.535 L 233.197 211.653 L 233.201 211.66 L 239.279 221.796 L 134.376 284.672 C 171.286 284.286 172.061 274.412 210.439 274.412 C 249.584 274.412 249.584 284.689 288.728 284.689 C 297.396 284.689 304.138 284.185 309.82 283.4 L 284.533 241.216 L 278.016 230.335 Z"
        fill="#515251"/>
    <path
        id="path_4"
        d="M 210.438 274.412 C 249.583 274.412 249.583 284.689 288.727 284.689 C 297.395 284.689 304.137 284.185 309.819 283.4 L 303.603 273.03 C 299.296 273.408 294.471 273.649 288.727 273.649 C 249.582 273.649 249.582 263.372 210.438 263.372 C 181.125 263.372 173.761 269.131 155.471 272.025 L 134.375 284.671 C 171.285 284.286 172.06 274.412 210.438 274.412 Z"
        fill="#282827"
        fill-opacity="0.4"
        stroke-opacity="0.4"
        stroke-width="1"/>
    <path
        id="path_5"
        d="M 379.98 211.363 C 375.018 186.75 351.039 170.817 326.426 175.78 C 301.809 180.739 285.876 204.718 290.843 229.338 C 295.805 253.947 319.781 269.88 344.397 264.918 C 369.013 259.955 384.943 235.979 379.98 211.363 Z"
        fill="#282827"
        fill-opacity="0.4"
        stroke-opacity="0.4"
        stroke-width="1"/>
    <path
        id="path_6"
        clip-path="url(#clip_path_6)"
        d="M 387.945 211.363 C 382.978 186.75 359.004 170.817 334.39 175.78 C 309.774 180.739 293.841 204.718 298.807 229.338 C 303.77 253.947 327.745 269.88 352.362 264.918 C 376.974 259.955 392.907 235.979 387.945 211.363 Z"
        fill="#515251"/>
</svg>
