<svg
    xmlns="http://www.w3.org/2000/svg"
    viewBox="0 0 500 500"
    id="vector">
    <path
        id="path"
        d="M 429.286 282.356 C 414.194 267.613 405.351 235.937 394.841 208.83 C 384.361 181.723 340.416 164.337 318.976 109.675 C 299.125 59.119 264.217 39.491 259.084 36.83 C 256.289 35.163 253.15 34.343 250.004 34.343 C 246.694 34.343 243.388 35.251 240.486 37.09 C 233.908 40.622 200.389 60.546 181.094 109.675 C 159.661 164.338 115.71 181.723 105.237 208.83 C 94.73 235.937 85.886 267.613 70.795 282.356 C 59.666 293.245 44.14 319.241 37.903 336.047 C 35.634 339.776 34.816 343.83 35.175 347.693 C 35.182 348.311 35.253 348.849 35.394 349.327 C 36.888 357.637 43.855 364.611 53.306 364.611 C 53.306 364.611 184.146 376.241 250.004 376.241 C 315.28 376.241 446.701 364.611 446.701 364.611 C 456.167 364.611 463.135 357.61 464.621 349.283 L 464.669 349.357 C 464.88 348.678 464.947 347.811 464.896 346.818 C 465.055 343.335 464.254 339.724 462.291 336.359 C 456.145 319.578 440.486 293.319 429.286 282.356 Z"
        fill="#28303b"/>
    <path
        id="path_1"
        d="M 284.412 165.731 C 272.545 153.945 230.646 229.755 226.48 229.837 C 216.084 230.011 250.092 175.693 256.259 162.97 C 262.415 150.243 271.321 114.349 270.164 85.374 C 269.683 73.417 266.84 69.5 264.598 68.433 C 259.617 66.073 254.985 65.016 250.693 65.016 C 216.796 65.016 203.513 130.619 196.923 136.627 C 193.12 140.07 187.676 140.733 184.118 148.101 C 158.612 200.729 152.412 201.181 148.298 201.477 C 146.997 201.581 145.263 201.018 143.283 200.461 C 141.127 199.838 138.677 199.223 136.186 199.475 C 131.434 199.96 127.602 202.822 126.613 211.027 C 123.867 234.005 97.805 283.286 86.983 294.801 C 67.574 315.496 57.819 341.239 80.06 344.546 C 80.082 344.546 194.255 355.334 270.164 349.89 C 275.938 349.464 292.075 346.347 297.765 345.839 C 303.569 345.309 308.123 340.547 308.568 334.58 C 310.266 312.776 302.954 267.739 304.069 255.327 C 305.518 239.353 315.566 233.568 330.364 218.773 C 345.163 203.997 296.271 177.524 284.412 165.731 Z"
        fill="#a9b6c1"/>
</svg>
