<svg
    xmlns="http://www.w3.org/2000/svg"
    viewBox="0 0 500 500"
    id="vector">
    <path
        id="path"
        d="M 250.004 11.382 C 182.262 11.382 121.162 39.667 77.719 85.005 C 36.676 127.866 11.385 185.961 11.385 249.996 C 11.385 381.78 118.227 488.614 250.004 488.614 C 336.995 488.614 413.083 442.046 454.792 372.514 C 476.273 336.698 488.622 294.81 488.622 249.995 C 488.622 118.216 381.788 11.382 250.004 11.382 Z"
        fill="#faece4"/>
    <path
        id="path_1"
        d="M 146.246 371.406 C 143.992 378.696 136.262 384.607 128.975 384.607 L 105.04 384.607 C 97.754 384.607 93.662 378.696 95.916 371.406 L 160.789 161.11 C 163.042 153.82 170.773 147.909 178.06 147.909 L 201.987 147.909 C 209.281 147.909 213.373 153.82 211.119 161.11 L 146.246 371.406 Z"
        fill="#876d5c"/>
    <path
        id="path_2"
        d="M 343.133 371.406 C 345.386 378.696 353.124 384.607 360.41 384.607 L 384.338 384.607 C 391.631 384.607 395.716 378.696 393.462 371.406 L 328.59 161.11 C 326.344 153.82 318.612 147.909 311.319 147.909 L 287.392 147.909 C 280.098 147.909 276.014 153.82 278.26 161.11 L 343.133 371.406 Z"
        fill="#876d5c"/>
    <path
        id="path_3"
        d="M 211.118 161.11 C 213.372 153.82 209.28 147.909 201.986 147.909 L 178.06 147.909 C 170.774 147.909 163.042 153.82 160.789 161.11 L 157.824 170.72 L 208.153 170.72 L 211.118 161.11 Z"
        fill="#514136"/>
    <path
        id="path_4"
        d="M 120.406 292.009 L 170.737 292.009 L 192.196 222.463 L 141.858 222.463 Z"
        fill="#514136"/>
    <path
        id="path_5"
        d="M 318.643 292.009 L 368.972 292.009 L 347.521 222.463 L 297.191 222.463 Z"
        fill="#514136"/>
    <path
        id="path_6"
        d="M 281.225 170.72 L 331.555 170.72 L 328.59 161.11 C 326.344 153.82 318.612 147.909 311.319 147.909 L 287.392 147.909 C 280.098 147.909 276.014 153.82 278.26 161.11 L 281.225 170.72 Z"
        fill="#514136"/>
    <path
        id="path_7"
        d="M 379.394 147.083 C 379.394 154.377 373.479 160.284 366.185 160.284 L 124.432 160.284 C 117.145 160.284 111.23 154.377 111.23 147.083 L 111.23 125.632 C 111.23 118.342 117.145 112.431 124.432 112.431 L 366.185 112.431 C 373.479 112.431 379.394 118.342 379.394 125.632 L 379.394 147.083 Z"
        fill="#daae82"/>
    <path
        id="path_8"
        d="M 420.406 268.375 C 420.406 275.665 414.498 281.576 407.205 281.576 L 84.175 281.576 C 76.881 281.576 70.973 275.665 70.973 268.375 L 70.973 246.097 C 70.973 238.807 76.881 232.896 84.175 232.896 L 407.205 232.896 C 414.498 232.896 420.406 238.807 420.406 246.097 L 420.406 268.375 Z"
        fill="#daae82"/>
</svg>
