<svg
    xmlns="http://www.w3.org/2000/svg"
    viewBox="0 0 500 500"
    id="vector">
    <defs>
        <clipPath id="clip_path_4">
            <path d="M 357.437 226.825 C 355.947 222.266 352.01 218.957 347.252 218.263 L 288.485 209.724 L 262.193 156.462 C 260.073 152.162 255.707 149.441 250.933 149.441 C 246.13 149.441 241.764 152.162 239.637 156.458 L 213.337 209.724 L 154.556 218.263 C 149.813 218.956 145.899 222.274 144.402 226.825 C 142.934 231.384 144.15 236.39 147.596 239.722 L 190.121 281.191 L 180.077 339.728 C 179.284 344.442 181.226 349.227 185.102 352.04 C 188.964 354.853 194.116 355.228 198.348 352.989 L 250.932 325.359 L 303.487 352.989 C 305.347 353.964 307.371 354.442 309.342 354.442 C 311.945 354.442 314.538 353.633 316.733 352.04 C 320.631 349.227 322.559 344.442 321.752 339.728 L 311.708 281.191 L 354.233 239.722 C 357.681 236.391 358.911 231.384 357.437 226.825 Z"/>
        </clipPath>
    </defs>
    <path
        id="path"
        d="M 250.919 10.215 C 183.177 10.215 122.068 38.501 78.624 83.839 C 37.581 126.701 12.297 184.797 12.297 248.837 C 12.297 380.619 119.14 487.455 250.919 487.455 C 337.912 487.455 414.001 440.886 455.711 371.353 C 477.185 335.536 489.541 293.648 489.541 248.836 C 489.541 117.051 382.697 10.215 250.919 10.215 Z"
        fill="#96cb5d"/>
    <path
        id="path_1"
        d="M 142.282 158.652 C 164.29 63.317 268.323 23.802 296.787 14.666 C 281.94 11.775 266.611 10.215 250.919 10.215 C 183.177 10.215 122.068 38.501 78.624 83.839 C 37.581 126.701 12.297 184.797 12.297 248.837 C 12.297 380.619 119.14 487.455 250.919 487.455 C 265.232 487.455 279.205 486.076 292.822 483.663 C 277.574 483.638 200.9 481.091 155.053 433.967 C 103.975 381.445 116.746 269.343 142.282 158.652 Z"
        fill="#87c24d"/>
    <path
        id="path_2"
        d="M 357.437 226.825 C 355.947 222.266 352.01 218.957 347.252 218.263 L 288.485 209.724 L 262.193 156.462 C 260.073 152.162 255.707 149.441 250.933 149.441 C 246.13 149.441 241.764 152.162 239.637 156.458 L 213.337 209.724 L 154.556 218.263 C 149.813 218.956 145.899 222.274 144.402 226.825 C 142.934 231.384 144.15 236.39 147.596 239.722 L 190.121 281.191 L 180.077 339.728 C 179.284 344.442 181.226 349.227 185.102 352.04 C 188.964 354.853 194.116 355.228 198.348 352.989 L 250.932 325.359 L 303.487 352.989 C 305.347 353.964 307.371 354.442 309.342 354.442 C 311.945 354.442 314.538 353.633 316.733 352.04 C 320.631 349.227 322.559 344.442 321.752 339.728 L 311.708 281.191 L 354.233 239.722 C 357.681 236.391 358.911 231.384 357.437 226.825 Z"
        fill="#fcd22d"/>
    <path
        id="path_3"
        d="M 357.437 226.825 C 355.947 222.266 352.01 218.957 347.252 218.263 L 288.485 209.724 L 262.193 156.462 C 260.073 152.162 255.707 149.441 250.933 149.441 C 246.13 149.441 241.764 152.162 239.637 156.458 L 213.337 209.724 L 154.556 218.263 C 149.813 218.956 145.899 222.274 144.402 226.825 C 142.934 231.384 144.15 236.39 147.596 239.722 L 190.121 281.191 L 180.077 339.728 C 179.284 344.442 181.226 349.227 185.102 352.04 C 188.964 354.853 194.116 355.228 198.348 352.989 L 250.932 325.359 L 303.487 352.989 C 305.347 353.964 307.371 354.442 309.342 354.442 C 311.945 354.442 314.538 353.633 316.733 352.04 C 320.631 349.227 322.559 344.442 321.752 339.728 L 311.708 281.191 L 354.233 239.722 C 357.681 236.391 358.911 231.384 357.437 226.825 Z"
        fill="#fcd22d"/>
    <path
        id="path_4"
        clip-path="url(#clip_path_4)"
        d="M 282.814 143.201 C 282.814 143.201 251.038 148.928 242.914 173.407 C 234.782 197.886 238.185 221.67 207.437 224.494 C 167.529 228.155 154.972 233.015 186.749 251.835 C 208.37 264.648 201.529 277.233 194.139 304.441 C 186.749 331.648 183.791 351.369 204.48 354.442 C 225.175 357.514 60.375 445.63 41.902 369.055 C 23.431 292.481 208.201 59.578 282.814 143.201 Z"
        fill="#fcd22d"/>
</svg>
