<svg
    xmlns="http://www.w3.org/2000/svg"
    viewBox="0 0 500 500"
    id="vector">
    <defs>
        <clipPath id="clip_path_4">
            <path d="M 357.437 221.777 C 355.947 217.218 352.01 213.909 347.252 213.215 L 288.485 204.676 L 262.193 151.414 C 260.073 147.114 255.708 144.393 250.933 144.393 C 246.13 144.393 241.764 147.114 239.637 151.41 L 213.337 204.676 L 154.556 213.215 C 149.813 213.908 145.899 217.226 144.402 221.777 C 142.934 226.336 144.15 231.342 147.596 234.674 L 190.121 276.143 L 180.077 334.68 C 179.284 339.394 181.226 344.179 185.102 346.992 C 188.964 349.805 194.116 350.18 198.348 347.941 L 250.932 320.311 L 303.487 347.941 C 305.347 348.916 307.371 349.394 309.342 349.394 C 311.945 349.394 314.538 348.585 316.733 346.992 C 320.631 344.179 322.559 339.394 321.752 334.68 L 311.708 276.143 L 354.233 234.674 C 357.681 231.343 358.911 226.336 357.437 221.777 Z"/>
        </clipPath>
    </defs>
    <path
        id="path"
        d="M 250.919 11.378 C 183.177 11.378 122.068 39.664 78.624 85.003 C 37.581 127.865 12.297 185.96 12.297 250 C 12.297 381.783 119.14 488.619 250.919 488.619 C 337.912 488.619 414.001 442.05 455.711 372.517 C 477.185 336.7 489.541 294.812 489.541 249.999 C 489.541 118.214 382.698 11.378 250.919 11.378 Z"
        fill="#ee9721"/>
    <path
        id="path_1"
        d="M 142.282 159.816 C 164.29 64.481 268.323 24.966 296.787 15.829 C 281.94 12.938 266.611 11.378 250.919 11.378 C 183.177 11.378 122.068 39.664 78.624 85.003 C 37.581 127.865 12.297 185.96 12.297 250 C 12.297 381.783 119.14 488.619 250.919 488.619 C 265.232 488.619 279.205 487.24 292.822 484.827 C 277.574 484.801 200.9 482.255 155.053 435.131 C 103.975 382.609 116.746 270.507 142.282 159.816 Z"
        fill="#ea8f29"/>
    <path
        id="path_2"
        d="M 357.437 221.777 C 355.947 217.218 352.01 213.909 347.252 213.215 L 288.485 204.676 L 262.193 151.414 C 260.073 147.114 255.708 144.393 250.933 144.393 C 246.13 144.393 241.764 147.114 239.637 151.41 L 213.337 204.676 L 154.556 213.215 C 149.813 213.908 145.899 217.226 144.402 221.777 C 142.934 226.336 144.15 231.342 147.596 234.674 L 190.121 276.143 L 180.077 334.68 C 179.284 339.394 181.226 344.179 185.102 346.992 C 188.964 349.805 194.116 350.18 198.348 347.941 L 250.932 320.311 L 303.487 347.941 C 305.347 348.916 307.371 349.394 309.342 349.394 C 311.945 349.394 314.538 348.585 316.733 346.992 C 320.631 344.179 322.559 339.394 321.752 334.68 L 311.708 276.143 L 354.233 234.674 C 357.681 231.343 358.911 226.336 357.437 221.777 Z"
        fill="#fcd22d"/>
    <path
        id="path_3"
        d="M 357.437 221.777 C 355.947 217.218 352.01 213.909 347.252 213.215 L 288.485 204.676 L 262.193 151.414 C 260.073 147.114 255.708 144.393 250.933 144.393 C 246.13 144.393 241.764 147.114 239.637 151.41 L 213.337 204.676 L 154.556 213.215 C 149.813 213.908 145.899 217.226 144.402 221.777 C 142.934 226.336 144.15 231.342 147.596 234.674 L 190.121 276.143 L 180.077 334.68 C 179.284 339.394 181.226 344.179 185.102 346.992 C 188.964 349.805 194.116 350.18 198.348 347.941 L 250.932 320.311 L 303.487 347.941 C 305.347 348.916 307.371 349.394 309.342 349.394 C 311.945 349.394 314.538 348.585 316.733 346.992 C 320.631 344.179 322.559 339.394 321.752 334.68 L 311.708 276.143 L 354.233 234.674 C 357.681 231.343 358.911 226.336 357.437 221.777 Z"
        fill="#fcd22d"/>
    <path
        id="path_4"
        clip-path="url(#clip_path_4)"
        d="M 282.814 138.153 C 282.814 138.153 251.038 143.88 242.914 168.359 C 234.782 192.838 238.185 216.622 207.437 219.446 C 167.529 223.107 154.972 227.967 186.749 246.787 C 208.37 259.6 201.529 272.185 194.139 299.393 C 186.749 326.6 183.791 346.321 204.48 349.394 C 225.175 352.466 60.374 440.582 41.902 364.007 C 23.431 287.434 208.201 54.53 282.814 138.153 Z"
        fill="#fcd22d"/>
</svg>
