<svg
    xmlns="http://www.w3.org/2000/svg"
    viewBox="0 0 500 500"
    id="vector">
    <path
        id="path"
        d="M 250.919 11.386 C 183.177 11.386 122.068 39.672 78.624 85.006 C 37.581 127.865 12.297 185.964 12.297 250.007 C 12.297 381.786 119.14 488.622 250.919 488.622 C 337.912 488.622 414.001 442.05 455.711 372.52 C 477.185 336.703 489.541 294.815 489.541 250.006 C 489.541 118.214 382.698 11.386 250.919 11.386 Z"
        fill="#fbd336"/>
    <path
        id="path_1"
        d="M 142.282 159.82 C 164.29 64.488 268.323 24.965 296.787 15.833 C 281.94 12.942 266.611 11.386 250.919 11.386 C 183.177 11.386 122.068 39.672 78.624 85.006 C 37.581 127.865 12.297 185.964 12.297 250.007 C 12.297 381.786 119.14 488.622 250.919 488.622 C 265.232 488.622 279.205 487.243 292.822 484.834 C 277.574 484.805 200.9 482.255 155.053 435.134 C 103.975 382.616 116.746 270.511 142.282 159.82 Z"
        fill="#f9c639"/>
    <path
        id="path_2"
        d="M 357.437 229.349 C 355.947 224.79 352.01 221.485 347.252 220.787 L 288.485 212.248 L 262.193 158.982 C 260.073 154.683 255.708 151.97 250.933 151.97 C 246.13 151.97 241.764 154.683 239.637 158.982 L 213.337 212.248 L 154.556 220.787 C 149.813 221.484 145.899 224.798 144.402 229.349 C 142.934 233.908 144.15 238.918 147.596 242.247 L 190.121 283.72 L 180.077 342.248 C 179.284 346.962 181.226 351.751 185.102 354.567 C 188.964 357.377 194.116 357.755 198.348 355.516 L 250.932 327.882 L 303.487 355.516 C 305.347 356.487 307.371 356.968 309.342 356.968 C 311.945 356.968 314.538 356.153 316.733 354.567 C 320.631 351.751 322.559 346.962 321.752 342.248 L 311.708 283.72 L 354.233 242.247 C 357.681 238.918 358.911 233.907 357.437 229.349 Z"
        fill="#f9b21d"/>
</svg>
