<svg
    xmlns="http://www.w3.org/2000/svg"
    viewBox="0 0 500 500"
    id="vector">
    <defs>
        <clipPath id="clip_path_4">
            <path d="M 356.517 224.885 C 355.028 220.326 351.091 217.017 346.332 216.323 L 287.566 207.784 L 261.274 154.522 C 259.154 150.222 254.788 147.501 250.014 147.501 C 245.211 147.501 240.845 150.222 238.717 154.518 L 212.418 207.784 L 153.637 216.323 C 148.894 217.016 144.98 220.334 143.483 224.885 C 142.015 229.444 143.23 234.45 146.677 237.782 L 189.202 279.251 L 179.158 337.788 C 178.365 342.502 180.306 347.287 184.183 350.1 C 188.045 352.913 193.197 353.288 197.429 351.049 L 250.013 323.419 L 302.568 351.049 C 304.428 352.024 306.452 352.502 308.423 352.502 C 311.025 352.502 313.619 351.693 315.814 350.1 C 319.712 347.287 321.64 342.502 320.832 337.788 L 310.789 279.251 L 353.313 237.782 C 356.762 234.45 357.992 229.443 356.517 224.885 Z"/>
        </clipPath>
    </defs>
    <path
        id="path"
        d="M 250 11.38 C 182.258 11.38 121.149 39.666 77.705 85.004 C 36.662 127.867 11.378 185.962 11.378 250.002 C 11.378 381.784 118.222 488.62 250 488.62 C 336.992 488.62 413.082 442.052 454.792 372.518 C 476.266 336.702 488.622 294.814 488.622 250.001 C 488.622 118.216 381.779 11.38 250 11.38 Z"
        fill="#e54c3b"/>
    <path
        id="path_1"
        d="M 141.363 159.818 C 163.37 64.482 267.404 24.967 295.868 15.831 C 281.021 12.94 265.692 11.38 250 11.38 C 182.258 11.38 121.149 39.666 77.705 85.004 C 36.662 127.867 11.378 185.962 11.378 250.002 C 11.378 381.784 118.222 488.62 250 488.62 C 264.313 488.62 278.286 487.241 291.902 484.829 C 276.655 484.803 199.98 482.257 154.134 435.132 C 103.056 382.611 115.827 270.509 141.363 159.818 Z"
        fill="#cf3d32"/>
    <path
        id="path_2"
        d="M 356.517 224.885 C 355.028 220.326 351.091 217.017 346.332 216.323 L 287.566 207.784 L 261.274 154.522 C 259.154 150.222 254.788 147.501 250.014 147.501 C 245.211 147.501 240.845 150.222 238.717 154.518 L 212.418 207.784 L 153.637 216.323 C 148.894 217.016 144.98 220.334 143.483 224.885 C 142.015 229.444 143.23 234.45 146.677 237.782 L 189.202 279.251 L 179.158 337.788 C 178.365 342.502 180.306 347.287 184.183 350.1 C 188.045 352.913 193.197 353.288 197.429 351.049 L 250.013 323.419 L 302.568 351.049 C 304.428 352.024 306.452 352.502 308.423 352.502 C 311.025 352.502 313.619 351.693 315.814 350.1 C 319.712 347.287 321.64 342.502 320.832 337.788 L 310.789 279.251 L 353.313 237.782 C 356.762 234.45 357.992 229.443 356.517 224.885 Z"
        fill="#fcd22d"/>
    <path
        id="path_3"
        d="M 356.517 224.885 C 355.028 220.326 351.091 217.017 346.332 216.323 L 287.566 207.784 L 261.274 154.522 C 259.154 150.222 254.788 147.501 250.014 147.501 C 245.211 147.501 240.845 150.222 238.717 154.518 L 212.418 207.784 L 153.637 216.323 C 148.894 217.016 144.98 220.334 143.483 224.885 C 142.015 229.444 143.23 234.45 146.677 237.782 L 189.202 279.251 L 179.158 337.788 C 178.365 342.502 180.306 347.287 184.183 350.1 C 188.045 352.913 193.197 353.288 197.429 351.049 L 250.013 323.419 L 302.568 351.049 C 304.428 352.024 306.452 352.502 308.423 352.502 C 311.025 352.502 313.619 351.693 315.814 350.1 C 319.712 347.287 321.64 342.502 320.832 337.788 L 310.789 279.251 L 353.313 237.782 C 356.762 234.45 357.992 229.443 356.517 224.885 Z"
        fill="#fcd22d"/>
    <path
        id="path_4"
        clip-path="url(#clip_path_4)"
        d="M 281.896 141.261 C 281.896 141.261 250.119 146.988 241.995 171.467 C 233.864 195.946 237.266 219.73 206.519 222.554 C 166.61 226.215 154.053 231.075 185.831 249.895 C 207.453 262.708 200.611 275.293 193.222 302.501 C 185.831 329.708 182.874 349.429 203.562 352.502 C 224.258 355.574 59.457 443.69 40.985 367.115 C 22.513 290.54 207.282 57.638 281.896 141.261 Z"
        fill="#fcd22d"/>
</svg>
