<svg
    xmlns="http://www.w3.org/2000/svg"
    viewBox="0 0 500 500"
    id="vector">
    <path
        id="path"
        d="M 145.615 93.363 L 350.153 93.363 L 350.153 169.525 L 145.615 169.525 Z"
        fill="#fcfdff"/>
    <path
        id="path_1"
        d="M 298.712 158.391 C 290.299 158.606 281.709 158.754 272.918 158.835 C 279.069 158.902 285.296 158.946 291.611 158.946 C 293.99 158.947 296.356 158.732 298.712 158.391 Z"
        fill="#cd7233"/>
    <path
        id="path_2"
        d="M 200.629 429.793 L 188.714 240.379 C 188.714 240.379 188.714 240.379 188.714 240.372 C 187.998 229.046 184.934 215.993 179.471 205.149 C 174.004 194.305 176.205 173.676 179.471 164.418 C 180.041 162.788 180.45 160.178 180.742 157.065 C 168.83 156.458 157.519 155.731 147.075 154.864 C 146.779 158.963 146.319 162.41 145.615 164.418 C 142.349 173.676 140.148 194.305 145.615 205.149 C 151.078 215.993 154.142 229.046 154.858 240.372 C 154.858 240.379 154.858 240.379 154.858 240.379 L 166.773 429.793 C 166.773 446.352 204.035 459.768 250.002 459.768 C 255.803 459.768 261.458 459.553 266.929 459.146 C 229.081 456.329 200.629 444.261 200.629 429.793 Z"
        fill="#ab3224"/>
    <path
        id="path_3"
        d="M 333.224 429.793 C 333.224 429.785 333.224 429.777 333.224 429.771 L 345.143 240.379 C 345.143 240.379 345.143 240.379 345.143 240.372 C 345.855 229.046 348.923 215.993 354.379 205.149 C 359.849 194.305 357.648 173.676 354.379 164.418 C 353.741 162.595 353.304 159.607 353 156.013 C 336.411 157.117 318.051 157.903 298.712 158.392 C 296.356 158.733 293.99 158.948 291.611 158.948 C 285.296 158.948 279.069 158.904 272.918 158.837 C 267.877 158.882 262.897 158.948 257.76 158.948 C 230.289 158.948 204.265 158.266 180.742 157.065 C 180.449 160.178 180.041 162.788 179.471 164.418 C 176.205 173.676 174.004 194.305 179.471 205.149 C 184.934 215.993 187.998 229.046 188.714 240.372 C 188.714 240.379 188.714 240.379 188.714 240.379 L 200.629 429.793 C 200.629 444.262 229.081 456.329 266.929 459.146 C 304.776 456.329 333.224 444.261 333.224 429.793 Z"
        fill="#c14026"/>
    <path
        id="path_4"
        d="M 354.379 164.417 C 353.741 162.594 353.304 159.606 353 156.012 C 325.056 157.872 292.516 158.947 257.76 158.947 C 216.384 158.947 178.152 157.427 147.075 154.863 C 146.779 158.962 146.319 162.409 145.615 164.417 C 142.349 173.675 140.148 194.304 145.615 205.148 C 151.078 215.992 154.142 229.045 154.858 240.371 C 154.858 240.378 154.858 240.378 154.858 240.378 L 166.773 429.792 C 166.773 446.351 204.035 459.767 250.002 459.767 C 295.97 459.767 333.224 446.351 333.224 429.792 C 333.224 429.784 333.224 429.776 333.224 429.77 L 345.143 240.378 C 345.143 240.378 345.143 240.378 345.143 240.371 C 345.855 229.045 348.923 215.992 354.379 205.148 C 359.849 194.304 357.648 173.676 354.379 164.417 Z"
        fill="none"/>
    <path
        id="path_5"
        d="M 355.713 116.364 L 357.151 93.541 C 357.196 92.778 356.929 92.021 356.403 91.466 C 355.883 90.91 355.15 90.591 354.38 90.591 L 145.615 90.591 C 144.851 90.591 144.114 90.91 143.595 91.458 C 143.072 92.021 142.798 92.777 142.846 93.541 L 144.269 116.156 C 144.754 126.192 145.555 156.242 143.001 163.491 C 140.011 171.963 136.867 193.948 143.139 206.393 C 148.079 216.2 151.34 228.652 152.093 240.556 L 163.989 429.429 C 164 450.287 207.725 462.539 250.001 462.539 C 272.738 462.539 294.961 459.137 310.949 453.199 C 320.296 449.73 335.987 442.14 335.98 430.31 L 347.899 240.548 C 348.655 228.651 351.917 216.199 356.853 206.392 C 363.124 193.947 359.981 171.962 357.001 163.49 C 354.446 156.249 355.239 126.289 355.713 116.364 Z M 351.91 203.903 C 346.64 214.355 343.171 227.585 342.371 240.209 L 330.444 430.149 C 330.451 444.284 292.856 456.997 250.002 456.997 C 206.414 456.997 169.561 444.3 169.527 429.274 L 157.623 240.194 C 156.83 227.586 153.353 214.355 148.087 203.903 C 143.258 194.304 144.944 174.654 148.225 165.337 C 150.637 158.495 150.759 135.547 149.807 115.845 L 148.566 96.136 L 351.429 96.136 L 350.184 116.053 C 349.235 135.621 349.369 158.51 351.77 165.337 C 355.053 174.654 356.736 194.304 351.91 203.903 Z"
        fill="#a53123"/>
    <path
        id="path_6"
        d="M 336.53 69.095 C 317.31 49.052 287.728 53.633 287.728 53.633 C 271.465 38.104 258.153 57.294 258.153 57.294 C 235.223 38.037 215.999 60.289 215.999 60.289 C 215.999 60.289 207.864 49.934 174.591 57.294 C 141.314 64.662 143.533 90.612 143.533 90.612 L 281.813 90.612 C 281.813 102.457 292.25 112.056 305.11 112.056 C 317.97 112.056 328.407 102.457 328.407 90.612 L 356.499 90.612 C 356.498 69.177 336.53 69.095 336.53 69.095 Z"
        fill="#edeced"/>
</svg>
