<svg
    xmlns="http://www.w3.org/2000/svg"
    viewBox="0 0 500 500"
    id="vector">
    <path
        id="path"
        d="M 117.098 426.177 C 95.304 426.177 77.572 408.441 77.572 386.651 L 77.572 113.349 C 77.572 91.551 95.304 73.819 117.098 73.819 L 390.4 73.819 C 412.194 73.819 429.926 91.551 429.926 113.349 L 429.926 386.651 C 429.926 408.441 412.194 426.177 390.4 426.177 L 117.098 426.177 Z"
        fill="#57aee1"/>
    <path
        id="path_1"
        d="M 92.638 225.138 C 92.638 132.792 113.571 91.011 126.794 73.819 L 117.098 73.819 C 95.304 73.819 77.572 91.551 77.572 113.349 L 77.572 386.651 C 77.572 408.441 95.304 426.177 117.098 426.177 L 263.629 426.177 C 108.267 406.146 92.638 337.016 92.638 225.138 Z"
        fill="#4ca2cd"/>
    <path
        id="path_2"
        d="M 414.86 386.651 C 414.86 400.165 403.911 411.111 390.4 411.111 L 117.098 411.111 C 103.588 411.111 92.638 400.165 92.638 386.651 L 92.638 113.349 C 92.638 99.835 103.588 88.885 117.098 88.885 L 390.4 88.885 C 403.911 88.885 414.86 99.835 414.86 113.349 L 414.86 386.651 Z"
        fill="#57aee1"/>
    <path
        id="path_3"
        d="M 390.4 414.878 L 117.098 414.878 C 101.535 414.878 88.871 402.218 88.871 386.651 L 88.871 113.349 C 88.871 97.783 101.535 85.119 117.098 85.119 L 390.4 85.119 C 405.963 85.119 418.628 97.783 418.628 113.349 L 418.628 386.651 C 418.627 402.218 405.962 414.878 390.4 414.878 Z M 117.098 92.652 C 105.688 92.652 96.405 101.935 96.405 113.349 L 96.405 386.651 C 96.405 398.061 105.688 407.345 117.098 407.345 L 390.4 407.345 C 401.81 407.345 411.094 398.061 411.094 386.651 L 411.094 113.349 C 411.094 101.935 401.81 92.652 390.4 92.652 L 117.098 92.652 Z"
        fill="#ffffff"/>
    <path
        id="path_4"
        d="M 362.096 202.271 C 359.793 201.532 357.395 201.024 354.85 201.024 L 350.141 201.024 L 342.42 201.024 C 350.498 197.647 356.177 189.676 356.177 180.375 C 356.177 168.016 346.157 157.992 333.795 157.992 C 321.432 157.992 311.412 168.015 311.412 180.375 C 311.412 189.677 317.092 197.647 325.169 201.024 L 317.448 201.024 L 312.74 201.024 C 310.195 201.024 307.793 201.532 305.494 202.271 C 295.934 205.349 288.968 214.214 288.968 224.8 L 288.968 246.653 L 288.968 261.664 C 288.968 266.226 292.672 269.93 297.233 269.93 C 301.795 269.93 305.495 266.226 305.495 261.664 L 305.495 244.509 L 305.495 231.631 L 309.769 231.631 L 309.769 270.132 L 309.769 333.891 C 309.769 339.975 314.708 344.911 320.792 344.911 C 326.876 344.911 331.813 339.975 331.813 333.891 L 331.813 269.93 L 333.795 269.93 L 335.777 269.93 L 335.777 333.891 C 335.777 339.975 340.714 344.911 346.798 344.911 C 352.885 344.911 357.821 339.975 357.821 333.891 L 357.821 270.132 L 357.821 231.631 L 362.095 231.631 L 362.095 244.509 L 362.095 261.664 C 362.095 266.226 365.795 269.93 370.356 269.93 C 374.921 269.93 378.622 266.226 378.622 261.664 L 378.622 246.653 L 378.622 224.8 C 378.622 214.215 371.659 205.349 362.096 202.271 Z"
        fill="#ffffff"/>
    <path
        id="path_5"
        d="M 224.668 258.751 L 215.098 226.853 L 209.566 208.819 C 209.253 207.79 208.742 206.877 208.135 206.068 C 206.965 204.95 205.67 203.975 204.287 203.122 C 200.679 200.871 196.456 199.518 191.888 199.518 L 185.877 199.518 C 192.241 195.571 196.519 188.579 196.519 180.538 C 196.519 168.18 186.496 158.156 174.133 158.156 C 161.774 158.156 151.751 168.179 151.751 180.538 C 151.751 188.579 156.024 195.571 162.388 199.518 L 156.378 199.518 C 151.81 199.518 147.587 200.872 143.975 203.122 C 142.592 203.976 141.301 204.95 140.135 206.068 C 139.525 206.877 139.013 207.79 138.7 208.819 L 133.164 226.853 L 123.598 258.751 C 122.13 263.533 124.815 268.594 129.593 270.062 C 134.371 271.526 139.432 268.841 140.897 264.063 L 142.574 258.395 L 152.41 223.958 L 156 223.958 L 142.63 266.994 L 139.713 275.531 C 137.035 284.561 140.088 292.234 146.657 292.234 L 152.587 292.234 L 152.587 335.435 C 152.587 340.672 156.827 344.91 162.058 344.91 C 167.289 344.91 171.534 340.673 171.534 335.435 L 171.534 292.234 L 174.131 292.234 L 174.135 292.234 L 174.135 292.234 L 176.736 292.234 L 176.736 335.435 C 176.736 340.672 180.981 344.91 186.212 344.91 C 191.443 344.91 195.683 340.673 195.683 335.435 L 195.683 292.234 L 201.613 292.234 C 208.182 292.234 211.235 284.561 208.553 275.531 L 205.64 266.994 L 192.27 223.958 L 195.86 223.958 L 205.696 258.395 L 207.37 264.063 C 208.837 268.841 213.898 271.526 218.677 270.062 C 223.451 268.594 226.136 263.533 224.668 258.751 Z"
        fill="#ffffff"/>
    <path
        id="path_6"
        d="M 263.327 344.675 C 263.327 349.957 259.038 354.246 253.749 354.246 L 253.749 354.246 C 248.463 354.246 244.174 349.957 244.174 344.675 L 244.174 167.567 C 244.174 162.277 248.463 157.992 253.749 157.992 L 253.749 157.992 C 259.038 157.992 263.327 162.277 263.327 167.567 L 263.327 344.675 Z"
        fill="#ffffff"/>
</svg>
