<svg
    xmlns="http://www.w3.org/2000/svg"
    viewBox="0 0 500 500"
    id="vector">
    <defs>
        <clipPath id="clip_path_8">
            <path d="M 256.455 232.873 L 256.728 232.996 C 256.728 232.996 251.48 229.567 245.876 224.189 L 245.091 223.426 L 223.607 201.934 L 107.459 85.786 C 94.45 104.547 100.113 127.967 114.13 151.386 C 145.6 203.981 219.341 256.597 219.341 256.597 L 232.95 242.981 C 234.432 244.704 235.774 246.338 236.73 247.625 C 237.427 248.593 238.13 249.567 238.857 250.567 C 238.91 250.641 238.976 250.749 238.976 250.749 L 238.968 250.716 C 268.291 291.128 322.906 353.237 348.137 378.46 C 365.549 395.879 387.793 401.876 397.8 391.861 C 407.814 381.847 401.818 359.603 384.413 342.199 C 359.138 316.922 296.874 262.177 256.455 232.873 Z"/>
        </clipPath>
    </defs>
    <path
        id="path"
        d="M 249.998 11.382 C 182.257 11.382 121.149 39.667 77.706 85.005 C 36.664 127.866 11.38 185.961 11.38 250 C 11.38 381.78 118.222 488.614 249.998 488.614 C 336.99 488.614 413.078 442.043 454.787 372.514 C 476.261 336.698 488.617 294.81 488.617 249.999 C 488.617 118.216 381.776 11.382 249.998 11.382 Z"
        fill="#e3dfdc"/>
    <path
        id="path_1"
        d="M 141.364 159.817 C 163.37 64.483 267.403 24.968 295.866 15.832 C 281.019 12.941 265.698 11.382 249.998 11.382 C 182.257 11.382 121.149 39.667 77.706 85.005 C 36.664 127.866 11.38 185.961 11.38 250 C 11.38 381.78 118.222 488.614 249.998 488.614 C 264.305 488.614 278.284 487.235 291.908 484.826 C 276.653 484.797 199.976 482.247 154.135 435.127 C 103.057 382.61 115.828 270.506 141.364 159.817 Z"
        fill="#d9d7d5"/>
    <path
        id="path_2"
        d="M 256.455 232.873 L 256.728 232.996 C 256.728 232.996 251.48 229.567 245.876 224.189 L 245.091 223.426 L 223.607 201.934 L 107.459 85.786 C 94.45 104.547 100.113 127.967 114.13 151.386 C 145.6 203.981 219.341 256.597 219.341 256.597 L 232.95 242.981 C 234.432 244.704 235.774 246.338 236.73 247.625 C 237.427 248.593 238.13 249.567 238.857 250.567 C 238.91 250.641 238.976 250.749 238.976 250.749 L 238.968 250.716 C 268.291 291.128 322.906 353.237 348.137 378.46 C 365.549 395.879 387.793 401.876 397.8 391.861 C 407.814 381.847 401.818 359.603 384.413 342.199 C 359.138 316.922 296.874 262.177 256.455 232.873 Z"
        fill="#919090"/>
    <path
        id="path_3"
        d="M 264.26 262.463 L 264.26 262.463 L 263.86 263.001 C 263.993 262.826 264.134 262.637 264.26 262.463 Z"
        fill="#6d6e6e"/>
    <path
        id="path_4"
        d="M 259.947 268.326 L 263.86 263.001 C 262.608 264.728 261.273 266.518 259.939 268.312 L 259.947 268.326 Z"
        fill="#6d6e6e"/>
    <path
        id="path_5"
        d="M 256.455 232.873 L 256.728 232.996 C 256.728 232.996 251.48 229.567 245.876 224.189 L 245.091 223.426 L 241.192 219.523 C 238.924 221.847 236.344 224.178 233.424 226.377 L 232.741 226.866 L 232.741 226.862 L 232.119 227.31 L 230.265 228.64 L 230.273 228.648 L 230.176 228.722 L 230.161 228.714 C 229.942 228.877 229.701 229.059 229.479 229.222 L 227.959 230.323 L 227.97 230.339 C 221.196 235.313 213.943 240.868 206.4 246.831 C 214.328 253.017 219.338 256.597 219.338 256.597 L 232.947 242.981 C 234.429 244.704 235.771 246.338 236.727 247.625 C 237.424 248.593 238.127 249.567 238.854 250.567 C 238.907 250.641 238.973 250.749 238.973 250.749 L 238.965 250.716 C 244.021 257.695 249.876 265.344 256.169 273.309 C 257.451 271.619 258.712 269.955 259.935 268.313 C 261.269 266.519 262.604 264.729 263.856 263.002 L 264.256 262.464 L 264.434 262.224 L 264.471 262.261 C 267.162 258.202 272.136 252.324 276.813 248.315 C 269.656 242.702 262.77 237.454 256.455 232.873 Z"
        fill="#6d6e6e"/>
    <path
        id="path_6"
        d="M 339.214 213.137 C 353.149 199.195 408.993 123.666 408.993 123.666 L 407.473 122.15 L 335.551 190.047 C 334.321 191.199 331.956 190.751 330.251 189.05 C 328.554 187.345 328.094 184.977 329.25 183.757 L 397.155 111.832 L 394.634 109.311 L 322.704 177.211 C 321.481 178.364 319.124 177.915 317.412 176.214 C 315.715 174.502 315.263 172.142 316.411 170.914 L 384.315 98.996 L 381.788 96.465 L 309.873 164.365 C 308.643 165.533 306.278 165.073 304.566 163.372 C 302.869 161.668 302.417 159.303 303.573 158.072 L 371.485 86.15 L 369.157 83.837 C 369.157 83.837 293.626 139.67 279.69 153.609 C 269.224 164.075 256.164 182.91 260.714 202.079 C 263.745 216.395 247.179 230.575 240.093 235.901 C 239.114 236.597 238.136 237.301 237.143 238.024 C 237.069 238.073 236.965 238.139 236.965 238.139 L 236.994 238.128 C 196.594 267.462 134.481 322.076 109.25 347.308 C 91.839 364.72 85.831 386.95 95.853 396.971 C 105.867 406.978 128.104 400.989 145.515 383.584 C 170.787 358.308 225.538 296.029 254.836 255.628 L 254.725 255.902 C 254.725 255.902 272.678 228.317 290.779 232.145 L 290.764 232.108 C 309.92 236.65 328.762 223.596 339.214 213.137 Z"
        fill="#919090"/>
    <path
        id="path_7"
        d="M 154.465 305.581 C 135.934 321.895 119.519 337.047 109.253 347.312 C 91.842 364.724 85.834 386.954 95.856 396.975 C 104.065 405.18 120.472 402.49 135.719 391.712 C 125.249 391.4 114.698 389.177 108.993 382.439 C 95.192 366.133 153.493 306.574 154.465 305.581 Z"
        fill="#838282"/>
    <path
        id="path_8"
        clip-path="url(#clip_path_8)"
        d="M 166.803 221.74 C 166.803 221.74 98.449 131.935 136.623 108.302 C 174.801 84.671 69.363 48.677 69.363 78.489 C 69.363 108.301 115.539 214.469 166.803 221.74 Z"
        fill="#959595"
        fill-opacity="0.3"
        stroke-opacity="0.3"
        stroke-width="1"/>
</svg>
