<svg
    xmlns="http://www.w3.org/2000/svg"
    viewBox="0 0 500 500"
    id="vector">
    <path
        id="path"
        d="M 124.6 388 L 229.6 388 L 229.6 408.3 L 124.6 408.3 Z"
        fill="#7f8d8d"/>
    <path
        id="path_1"
        d="M 406.5 207.7 L 406.5 390.2 C 406.5 400.2 398.5 408.3 388.5 408.3 L 115.4 408.3 C 105.5 408.3 97.3 400.3 97.3 390.2 L 97.3 207.7 L 225.3 99.1 L 251.9 76.6 L 278.5 99.1 L 406.5 207.7 Z"
        fill="#e3a56d"/>
    <path
        id="path_2"
        d="M 97.4 181.2 L 406.5 181.2 L 406.5 222.9 L 97.4 222.9 Z"
        fill="#9d7851"
        fill-opacity="0.1"
        stroke-opacity="0.1"/>
    <path
        id="path_3"
        d="M 102.1 190.7 C 102.1 199.9 94.7 207.3 85.4 207.3 C 76.2 207.3 68.8 199.8 68.8 190.7 C 68.8 181.6 76.3 174.1 85.4 174.1 C 94.6 174 102.1 181.5 102.1 190.7"
        fill="#be3f27"/>
    <path
        id="path_4"
        d="M 135.4 190.7 C 135.4 199.9 128 207.3 118.8 207.3 C 109.6 207.3 102.1 199.8 102.1 190.7 C 102.1 181.6 109.6 174.1 118.8 174.1 C 127.9 174 135.4 181.5 135.4 190.7"
        fill="#bac1c4"/>
    <path
        id="path_5"
        d="M 168.7 190.7 C 168.7 199.9 161.2 207.3 152.1 207.3 C 142.9 207.3 135.4 199.8 135.4 190.7 C 135.4 181.6 142.9 174.1 152.1 174.1 C 161.2 174 168.7 181.5 168.7 190.7"
        fill="#be3f27"/>
    <path
        id="path_6"
        d="M 202 190.7 C 202 199.9 194.6 207.3 185.4 207.3 C 176.2 207.3 168.7 199.8 168.7 190.7 C 168.7 181.6 176.2 174.1 185.4 174.1 C 194.5 174 202 181.5 202 190.7"
        fill="#bac1c4"/>
    <path
        id="path_7"
        d="M 235.3 190.7 C 235.3 199.9 227.8 207.3 218.7 207.3 C 209.6 207.3 202.1 199.8 202.1 190.7 C 202.1 181.6 209.6 174.1 218.7 174.1 C 227.8 174.1 235.3 181.5 235.3 190.7"
        fill="#be3f27"/>
    <path
        id="path_8"
        d="M 268.6 190.7 C 268.6 199.9 261.2 207.3 252 207.3 C 242.8 207.3 235.3 199.8 235.3 190.7 C 235.3 181.6 242.8 174.1 252 174.1 C 261.1 174 268.6 181.5 268.6 190.7"
        fill="#bac1c4"/>
    <path
        id="path_9"
        d="M 301.9 190.7 C 301.9 199.9 294.5 207.3 285.3 207.3 C 276.1 207.3 268.6 199.8 268.6 190.7 C 268.6 181.6 276.1 174.1 285.3 174.1 C 294.4 174 301.9 181.5 301.9 190.7"
        fill="#be3f27"/>
    <path
        id="path_10"
        d="M 335.2 190.7 C 335.2 199.9 327.8 207.3 318.6 207.3 C 309.4 207.3 301.9 199.8 301.9 190.7 C 301.9 181.6 309.4 174.1 318.6 174.1 C 327.7 174 335.2 181.5 335.2 190.7"
        fill="#bac1c4"/>
    <path
        id="path_11"
        d="M 368.5 190.7 C 368.5 199.9 361 207.3 351.9 207.3 C 342.7 207.3 335.2 199.8 335.2 190.7 C 335.2 181.6 342.7 174.1 351.9 174.1 C 361 174 368.5 181.5 368.5 190.7"
        fill="#be3f27"/>
    <path
        id="path_12"
        d="M 401.8 190.7 C 401.8 199.9 394.3 207.3 385.2 207.3 C 376.1 207.3 368.5 199.8 368.5 190.7 C 368.5 181.6 376 174.1 385.2 174.1 C 394.4 174.1 401.8 181.5 401.8 190.7"
        fill="#bac1c4"/>
    <path
        id="path_13"
        d="M 435.1 190.7 C 435.1 199.9 427.6 207.3 418.5 207.3 C 409.4 207.3 401.9 199.8 401.9 190.7 C 401.9 181.6 409.4 174.1 418.5 174.1 C 427.6 174.1 435.1 181.5 435.1 190.7"
        fill="#be3f27"/>
    <path
        id="path_14"
        d="M 68.8 173.6 L 102.1 173.6 L 102.1 190.7 L 68.8 190.7 Z"
        fill="#be3f27"/>
    <path
        id="path_15"
        d="M 102.1 173.6 L 135.4 173.6 L 135.4 190.7 L 102.1 190.7 Z"
        fill="#bac1c4"/>
    <path
        id="path_16"
        d="M 135.4 173.6 L 168.7 173.6 L 168.7 190.7 L 135.4 190.7 Z"
        fill="#be3f27"/>
    <path
        id="path_17"
        d="M 168.7 173.6 L 202 173.6 L 202 190.7 L 168.7 190.7 Z"
        fill="#bac1c4"/>
    <path
        id="path_18"
        d="M 202 173.6 L 235.3 173.6 L 235.3 190.7 L 202 190.7 Z"
        fill="#be3f27"/>
    <path
        id="path_19"
        d="M 235.3 173.6 L 268.6 173.6 L 268.6 190.7 L 235.3 190.7 Z"
        fill="#bac1c4"/>
    <path
        id="path_20"
        d="M 268.6 173.6 L 301.9 173.6 L 301.9 190.7 L 268.6 190.7 Z"
        fill="#be3f27"/>
    <path
        id="path_21"
        d="M 301.9 173.6 L 335.2 173.6 L 335.2 190.7 L 301.9 190.7 Z"
        fill="#bac1c4"/>
    <path
        id="path_22"
        d="M 335.2 173.6 L 368.5 173.6 L 368.5 190.7 L 335.2 190.7 Z"
        fill="#be3f27"/>
    <path
        id="path_23"
        d="M 368.4 173.6 L 401.7 173.6 L 401.7 190.7 L 368.4 190.7 Z"
        fill="#bac1c4"/>
    <path
        id="path_24"
        d="M 401.8 173.6 L 435.1 173.6 L 435.1 190.7 L 401.8 190.7 Z"
        fill="#be3f27"/>
    <path
        id="path_25"
        d="M 102.1 173.6 L 68.8 173.6 L 128.4 76.5 L 150.7 76.5 Z"
        fill="#e05b4a"/>
    <path
        id="path_26"
        d="M 135.4 173.6 L 102.1 173.6 L 150.7 76.5 L 173 76.5 Z"
        fill="#ececee"/>
    <path
        id="path_27"
        d="M 168.7 173.6 L 135.4 173.6 L 173 76.5 L 195.3 76.5 Z"
        fill="#e05b4a"/>
    <path
        id="path_28"
        d="M 202 173.6 L 168.7 173.6 L 195.3 76.5 L 217.6 76.5 Z"
        fill="#ececee"/>
    <path
        id="path_29"
        d="M 235.3 173.6 L 202 173.6 L 217.6 76.5 L 239.9 76.5 Z"
        fill="#e05b4a"/>
    <path
        id="path_30"
        d="M 268.6 173.6 L 235.3 173.6 L 239.8 76.5 L 262.1 76.5 Z"
        fill="#ececee"/>
    <path
        id="path_31"
        d="M 301.9 173.6 L 268.6 173.6 L 262.1 76.5 L 284.4 76.5 Z"
        fill="#e05b4a"/>
    <path
        id="path_32"
        d="M 335.2 173.6 L 301.9 173.6 L 284.4 76.5 L 306.7 76.5 Z"
        fill="#ececee"/>
    <path
        id="path_33"
        d="M 368.5 173.6 L 335.2 173.6 L 306.7 76.5 L 329 76.5 Z"
        fill="#e05b4a"/>
    <path
        id="path_34"
        d="M 401.8 173.6 L 368.5 173.6 L 329 76.5 L 351.3 76.5 Z"
        fill="#ececee"/>
    <path
        id="path_35"
        d="M 435.1 173.6 L 401.8 173.6 L 351.3 76.5 L 373.6 76.5 Z"
        fill="#e05b4a"/>
    <path
        id="path_36"
        d="M 344.5 357.5 L 298.9 357.5 C 285.6 357.5 274.9 346.8 274.9 333.5 L 274.9 287.9 C 274.9 274.7 285.6 263.9 298.9 263.9 L 344.5 263.9 C 357.7 263.9 368.5 274.6 368.5 287.9 L 368.5 333.5 C 368.5 346.7 357.7 357.5 344.5 357.5"
        fill="#61b4e5"/>
    <path
        id="path_37"
        d="M 216.4 278.2 L 185.9 278.2 C 171.8 278.2 160.4 289.6 160.4 303.7 L 160.4 408.2 L 242 408.2 L 242 303.7 C 241.9 289.6 230.5 278.2 216.4 278.2"
        fill="#6b5137"/>
</svg>
