<svg
    xmlns="http://www.w3.org/2000/svg"
    viewBox="0 0 500 500"
    id="vector">
    <path
        id="path"
        d="M 64.754 342.649 L 424.031 342.649 L 424.031 407.314 L 64.754 407.314 Z"
        fill="#7f6e5d"/>
    <path
        id="path_1"
        d="M 294.478 65.16 L 424.032 65.16 L 424.032 407.314 L 294.478 407.314 Z"
        fill="#7f6e5d"/>
    <path
        id="path_2"
        d="M 391.994 98.923 C 386.776 87.397 380.572 76.423 373.434 66.112 C 312.238 63.906 226.573 64.155 219.035 82.289 C 207.212 110.764 256.053 132.719 252.746 144.542 C 249.433 156.364 194.122 192.122 201.505 215.623 C 206.945 232.901 162.79 249.349 138.982 271.608 C 130.414 279.629 124.447 288.39 124.447 298.249 C 124.447 318.121 93.522 333.05 64.755 342.649 C 101.439 374.477 149.249 393.794 201.506 393.794 C 316.761 393.794 410.527 300.028 410.527 184.781 C 410.526 154.19 403.862 125.14 391.994 98.923 Z"
        fill="#7f6e5d"/>
    <path
        id="path_3"
        d="M 135.994 407.314 C 135.994 407.314 144.57 346.717 201.505 335.451 C 258.461 324.192 237.433 263.455 259.202 247.656 C 259.202 247.656 244.385 194.295 318.189 146.607 C 318.189 146.607 348.521 135.859 344.021 169.222 C 339.522 202.585 359.261 236.233 359.261 236.233 C 359.261 236.233 365.48 294.913 359.261 310.679 C 353.034 326.445 410.525 407.314 410.525 407.314 L 135.994 407.314 Z"
        fill="#5a4d41"/>
</svg>
