<svg
    xmlns="http://www.w3.org/2000/svg"
    viewBox="0 0 500 500"
    id="vector">
    <path
        id="path"
        d="M 251.538 13.576 C 184.419 13.576 123.871 41.602 80.832 86.525 C 40.164 128.993 15.118 186.55 15.118 250 C 15.118 380.576 120.974 486.424 251.538 486.424 C 337.722 486.424 413.112 440.282 454.44 371.393 C 475.72 335.91 487.955 294.404 487.955 250 C 487.955 119.424 382.106 13.576 251.538 13.576"
        fill="#47a3da"/>
    <path
        id="path_1"
        d="M 296.994 17.986 C 268.806 27.032 165.711 66.181 143.903 160.651 C 118.601 270.32 105.948 381.387 156.552 433.425 C 201.963 480.093 277.885 482.636 293.035 482.661 C 361.562 470.509 419.912 428.948 454.442 371.391 C 475.719 335.908 487.954 294.402 487.954 249.998 C 487.955 134.979 405.808 39.186 296.994 17.986 Z"
        fill="none"/>
    <path
        id="path_2"
        d="M 143.903 160.651 C 165.711 66.181 268.805 27.032 296.994 17.986 C 282.277 15.117 267.089 13.575 251.538 13.575 C 184.419 13.575 123.879 41.601 80.832 86.524 C 40.164 128.986 15.11 186.558 15.11 250 C 15.11 380.576 120.973 486.417 251.538 486.417 C 265.711 486.417 279.55 485.057 293.036 482.662 C 277.886 482.637 201.964 480.094 156.553 433.426 C 105.948 381.388 118.602 270.32 143.903 160.651 Z"
        fill="#4398c4"/>
    <path
        id="path_3"
        d="M 414.184 250.074 C 414.184 294.952 398.295 333.26 366.515 364.962 C 334.745 396.672 296.424 412.52 251.535 412.52 C 206.653 412.52 168.32 396.672 136.551 364.962 C 104.771 333.26 88.89 294.952 88.89 250.074 C 88.89 205.192 104.771 166.863 136.551 135.094 C 168.321 103.321 206.654 87.429 251.535 87.429 C 296.425 87.429 334.746 103.321 366.515 135.094 C 398.295 166.863 414.184 205.192 414.184 250.074 M 387.569 250.074 C 387.569 212.486 374.294 180.376 347.75 153.754 C 321.203 127.14 289.13 113.846 251.534 113.846 C 213.928 113.846 181.825 127.14 155.211 153.754 C 128.611 180.376 115.303 212.486 115.303 250.074 C 115.303 287.674 128.612 319.75 155.211 346.29 C 181.825 372.838 213.928 386.109 251.534 386.109 C 289.13 386.109 321.203 372.838 347.75 346.29 C 374.294 319.75 387.569 287.674 387.569 250.074 M 276.881 171.288 C 276.881 177.833 274.391 183.411 269.409 188.04 C 264.435 192.662 258.469 194.975 251.534 194.975 C 244.493 194.975 238.511 192.662 233.585 188.04 C 228.652 183.411 226.191 177.833 226.191 171.288 C 226.191 164.754 228.652 159.184 233.585 154.547 C 238.511 149.922 244.493 147.613 251.534 147.613 C 258.469 147.613 264.435 149.922 269.409 154.547 C 274.391 159.184 276.881 164.754 276.881 171.288"
        fill="#ffffff"/>
    <path
        id="path_4"
        d="M 230.217 233.985 C 230.217 221.714 240.153 211.785 252.417 211.785 C 264.688 211.785 274.62 221.714 274.62 233.985 L 274.62 341.968 C 274.62 354.239 264.687 364.179 252.417 364.179 C 240.152 364.179 230.217 354.24 230.217 341.968 L 230.217 233.985 Z"
        fill="#ffffff"/>
</svg>
