<svg
    xmlns="http://www.w3.org/2000/svg"
    viewBox="0 0 500 500"
    id="vector">
    <path
        id="path"
        d="M 250.909 13.182 C 183.678 13.182 123.03 41.254 79.914 86.254 C 39.181 128.79 14.088 186.45 14.088 250.003 C 14.088 380.794 120.125 486.816 250.909 486.816 C 337.245 486.816 412.76 440.602 454.155 371.598 C 475.467 336.051 487.729 294.473 487.729 250.002 C 487.73 119.212 381.694 13.182 250.909 13.182 Z"
        fill="#e05b4a"/>
    <path
        id="path_1"
        d="M 143.092 160.496 C 164.934 65.884 268.186 26.667 296.431 17.603 C 281.697 14.734 266.483 13.182 250.91 13.182 C 183.679 13.182 123.031 41.254 79.915 86.254 C 39.181 128.79 14.088 186.45 14.088 250.003 C 14.088 380.794 120.125 486.816 250.909 486.816 C 265.114 486.816 278.981 485.448 292.495 483.057 C 277.363 483.035 201.264 480.504 155.767 433.731 C 105.073 381.611 117.749 270.358 143.092 160.496 Z"
        fill="#c14237"/>
    <path
        id="path_2"
        d="M 66.386 291.03 L 306.686 291.03 L 294.96 325.23 C 294.511 326.525 294.298 327.872 294.298 329.188 C 294.298 332.771 295.872 336.258 298.748 338.62 C 302.684 341.864 308.201 342.327 312.615 339.774 L 449.792 260.588 C 453.581 258.397 455.905 254.364 455.905 249.995 C 455.905 245.64 453.581 241.601 449.792 239.416 L 312.615 160.23 C 308.201 157.67 302.683 158.133 298.748 161.377 C 294.827 164.606 293.305 169.947 294.96 174.78 L 306.686 208.973 L 66.386 208.973 C 57.889 208.973 51.003 215.867 51.003 224.356 L 51.003 275.638 C 51.003 284.13 57.889 291.03 66.386 291.03 Z"
        fill="#ffffff"/>
    <path
        id="path_3"
        d="M 250.909 24.481 C 375.263 24.481 476.43 125.648 476.43 250.002 C 476.43 374.349 375.263 475.516 250.909 475.516 C 126.561 475.516 25.394 374.349 25.394 250.002 C 25.395 125.648 126.562 24.481 250.909 24.481 Z M 250.909 467.983 C 371.106 467.983 468.897 370.201 468.897 250.003 C 468.896 129.806 371.106 32.015 250.909 32.015 C 130.715 32.015 32.928 129.806 32.928 250.003 C 32.928 370.201 130.715 467.983 250.909 467.983 Z"
        fill="#ffffff"/>
</svg>
