<svg
    xmlns="http://www.w3.org/2000/svg"
    viewBox="0 0 500 500"
    id="vector">
    <path
        id="path"
        d="M 250.908 486.816 C 318.139 486.816 378.787 458.744 421.903 413.744 C 462.636 371.209 487.729 313.549 487.729 249.996 C 487.729 119.205 381.692 13.183 250.908 13.183 C 164.572 13.183 89.058 59.397 47.662 128.401 C 26.35 163.948 14.087 205.526 14.087 249.997 C 14.088 380.787 120.125 486.816 250.908 486.816 Z"
        fill="#e05b4a"/>
    <path
        id="path_1"
        d="M 358.726 339.503 C 336.884 434.115 233.632 473.332 205.387 482.396 C 220.121 485.265 235.335 486.817 250.908 486.817 C 318.139 486.817 378.787 458.745 421.903 413.745 C 462.636 371.21 487.729 313.55 487.729 249.997 C 487.729 119.206 381.692 13.184 250.908 13.184 C 236.703 13.184 222.836 14.552 209.322 16.943 C 224.454 16.965 300.553 19.496 346.05 66.269 C 396.744 118.387 384.069 229.64 358.726 339.503 Z"
        fill="#c14237"/>
    <path
        id="path_2"
        d="M 435.432 208.969 L 195.132 208.969 L 206.858 174.769 C 207.307 173.474 207.52 172.127 207.52 170.811 C 207.52 167.228 205.946 163.741 203.07 161.379 C 199.134 158.135 193.617 157.672 189.203 160.225 L 52.026 239.41 C 48.237 241.601 45.913 245.634 45.913 250.003 C 45.913 254.358 48.238 258.397 52.026 260.582 L 189.203 339.768 C 193.617 342.328 199.135 341.865 203.07 338.621 C 206.991 335.392 208.513 330.051 206.858 325.218 L 195.132 291.025 L 435.432 291.025 C 443.929 291.025 450.815 284.131 450.815 275.642 L 450.815 224.36 C 450.815 215.869 443.929 208.969 435.432 208.969 Z"
        fill="#ffffff"/>
    <path
        id="path_3"
        d="M 250.908 475.517 C 126.554 475.517 25.387 374.35 25.387 249.996 C 25.387 125.649 126.554 24.482 250.908 24.482 C 375.256 24.482 476.423 125.649 476.423 249.996 C 476.423 374.35 375.256 475.517 250.908 475.517 Z M 250.908 32.015 C 130.711 32.015 32.92 129.797 32.92 249.995 C 32.92 370.192 130.711 467.983 250.908 467.983 C 371.102 467.983 468.889 370.192 468.889 249.995 C 468.89 129.798 371.103 32.015 250.908 32.015 Z"
        fill="#ffffff"/>
</svg>
