<svg
    xmlns="http://www.w3.org/2000/svg"
    viewBox="0 0 500 500"
    id="vector">
    <path
        id="path"
        d="M 251.805 18.393 C 185.724 18.393 126.114 45.989 83.738 90.219 C 43.696 132.025 19.032 188.699 19.032 251.171 C 19.032 379.731 123.257 483.948 251.805 483.948 C 336.665 483.948 410.892 438.517 451.582 370.687 C 472.529 335.746 484.578 294.888 484.578 251.17 C 484.578 122.611 380.361 18.393 251.805 18.393 Z"
        fill="#fdd072"/>
    <path
        id="path_1"
        d="M 145.83 163.201 C 167.3 70.198 268.79 31.647 296.553 22.737 C 282.066 19.921 267.115 18.393 251.805 18.393 C 185.724 18.393 126.114 45.989 83.738 90.219 C 43.696 132.025 19.032 188.699 19.032 251.171 C 19.032 379.731 123.257 483.948 251.805 483.948 C 265.77 483.948 279.405 482.599 292.692 480.242 C 277.826 480.213 203.02 477.736 158.291 431.765 C 108.465 380.531 120.921 271.177 145.83 163.201 Z"
        fill="#ffd367"/>
    <path
        id="path_2"
        d="M 250.152 328.904 C 272.831 328.844 291.08 347.05 291.117 369.783 C 291.161 392.458 272.886 411.004 250.427 411.078 C 228.179 411.152 209.318 392.369 209.226 370.043 C 209.124 347.635 227.699 328.97 250.152 328.904"
        fill="#f58535"/>
    <path
        id="path_3"
        d="M 277.366 94.948 C 277.147 99.322 276.951 103.702 276.751 108.075 L 276.736 108.475 C 276.305 118.163 275.857 128.17 275.149 138.036 C 272.851 170.377 270.427 202.983 268.086 234.515 C 267.074 248.042 266.065 261.578 265.072 275.105 C 264.942 276.876 264.805 278.656 264.661 280.427 L 264.632 280.842 C 264.198 286.416 263.749 292.168 263.524 297.831 C 263.365 301.774 261.868 303.197 258.005 303.063 C 253.45 302.908 248.925 302.938 244.129 302.975 C 242.042 302.989 239.941 303.004 237.776 303.004 L 236.379 285.244 C 235.379 272.657 234.4 260.301 233.482 247.937 C 229.998 201.247 226.558 154.548 223.134 107.851 C 222.922 104.915 222.837 101.921 222.763 99.038 C 222.726 97.674 222.689 96.31 222.633 94.946 L 277.366 94.946 Z"
        fill="#f58535"/>
    <path
        id="path_4"
        d="M 186.075 347.235 L 160.596 335.894 C 141.142 327.221 121.863 318.645 102.575 310.114 C 91.798 305.347 80.809 300.582 70.179 295.978 L 70.028 295.904 C 65.146 293.8 60.269 291.679 55.395 289.552 L 55.395 286.52 L 60.936 277.484 C 65.513 270.05 70.082 262.608 74.62 255.159 C 76.565 251.949 78.43 248.74 80.405 245.352 C 80.405 245.352 82.325 242.046 83.215 240.534 L 198.766 325.353 L 186.075 347.235 Z"
        fill="#f58535"/>
    <path
        id="path_5"
        d="M 444.608 286.513 L 444.608 289.559 L 314.48 347.161 L 301.826 325.353 L 417.308 240.608 Z"
        fill="#f58535"/>
    <path
        id="path_6"
        d="M 227.844 305.318 L 227.844 305.318 M 206.03 318.067 L 108.391 179.494 L 156.779 151.431 L 227.844 305.319 C 227.844 305.326 206.03 318.067 206.03 318.067"
        fill="#f58535"/>
    <path
        id="path_7"
        d="M 294.596 318.045 L 272.738 305.422 L 343.818 151.445 L 392.198 179.464 L 294.596 318.045"
        fill="#f58535"/>
</svg>
