<svg
    xmlns="http://www.w3.org/2000/svg"
    viewBox="0 0 500 500"
    id="vector">
    <path
        id="path"
        d="M 6.771 269.486 C 6.771 342.223 186.728 418.09 194 419.393 C 238.83 432.639 288.248 437.194 319.832 418.174 C 390.68 375.493 280.25 321.18 401.876 306.588 C 442.695 302.582 493.233 296.5 493.233 251.051 C 493.232 144.878 6.771 176.506 6.771 269.486"
        fill="#419dd7"/>
    <path
        id="path_1"
        d="M 100.985 337.547 C 100.985 337.547 200.333 392.888 265.435 384.356 C 330.541 375.817 297.064 362.845 293.269 337.547 C 289.473 312.248 289.473 289.1 345.133 284.863 C 400.799 280.62 298.323 251.526 331.22 250.259 C 364.109 248.991 415.046 274.676 443.806 270.502 C 472.574 266.321 486.82 230.016 372.966 214.836 C 259.112 199.655 74.19 230.431 38.995 259.936 C 3.799 289.448 86.906 330.253 100.985 337.547"
        fill="#59b1e3"/>
</svg>
