<svg
    xmlns="http://www.w3.org/2000/svg"
    viewBox="0 0 500 500"
    id="vector">
    <path
        id="path"
        d="M 414.784 385.168 L 386.602 336.344 L 337.28 250.924 L 249.737 99.289 L 162.194 250.924 L 112.869 336.344 L 84.69 385.168 C 92.595 391.662 104.881 397.563 120.551 402.551 C 134.153 406.887 150.405 410.475 168.387 413.232 L 180.372 392.477 L 205.366 349.19 L 249.736 272.331 L 294.107 349.19 L 319.101 392.477 L 331.087 413.232 C 349.068 410.475 365.32 406.887 378.922 402.551 C 394.593 397.562 406.879 391.662 414.784 385.168 Z"
        fill="#fdcb80"/>
    <path
        id="path_1"
        d="M 294.108 349.189 L 249.737 272.33 L 205.367 349.189 L 180.373 392.476 L 168.388 413.231 C 192.719 416.967 220.323 419.131 249.738 419.131 C 279.154 419.131 306.758 416.967 331.09 413.231 L 319.104 392.476 L 294.108 349.189 Z"
        fill="#262626"/>
    <path
        id="path_2"
        d="M 262.008 265.244 C 259.481 260.863 254.803 258.158 249.737 258.158 C 244.672 258.158 239.994 260.863 237.466 265.244 L 156.115 406.138 C 155.259 407.614 154.796 409.222 154.517 410.86 C 159.017 411.706 163.627 412.499 168.386 413.232 C 192.717 416.968 220.321 419.132 249.736 419.132 C 279.152 419.132 306.756 416.968 331.088 413.232 C 335.846 412.499 340.464 411.706 344.956 410.86 C 344.678 409.222 344.215 407.614 343.358 406.138 L 262.008 265.244 Z M 191.287 401.92 L 249.736 300.675 L 308.186 401.92 C 270.766 405.96 228.708 405.96 191.287 401.92 Z"
        fill="#262626"/>
    <path
        id="path_3"
        d="M 343.359 406.137 L 262.008 265.243 C 259.481 260.862 254.803 258.157 249.737 258.157 C 244.672 258.157 239.994 260.862 237.466 265.243 L 156.115 406.137 C 155.259 407.613 154.796 409.221 154.517 410.859 C 159.017 411.705 163.627 412.498 168.386 413.231 C 192.717 416.967 220.321 419.131 249.736 419.131 C 279.152 419.131 306.756 416.967 331.088 413.231 C 335.846 412.498 340.464 411.705 344.956 410.859 C 344.678 409.221 344.215 407.613 343.359 406.137 Z"
        fill="#925f26"/>
    <path
        id="path_4"
        d="M 148.981 312.312 C 184.357 247.802 231.611 159.121 265.477 126.551 L 249.737 99.288 L 162.194 250.923 L 112.869 336.343 L 84.69 385.168 C 92.595 391.662 104.881 397.563 120.551 402.551 C 128.497 405.078 137.433 407.331 147.013 409.333 C 135.913 400.171 115.573 373.234 148.981 312.312 Z"
        fill="#f1ae6b"/>
    <path
        id="path_5"
        d="M 414.795 392.818 C 412.149 392.818 409.577 391.439 408.161 388.993 L 212.501 50.204 C 210.385 46.55 211.641 41.865 215.303 39.753 C 218.953 37.618 223.638 38.894 225.75 42.555 L 421.41 381.336 C 423.527 384.998 422.27 389.676 418.612 391.787 C 417.408 392.484 416.089 392.818 414.795 392.818 Z"
        fill="#b68b6c"/>
    <path
        id="path_6"
        d="M 84.679 392.818 C 83.385 392.818 82.066 392.484 80.862 391.787 C 77.204 389.676 75.948 384.998 78.067 381.336 L 273.724 42.554 C 275.828 38.893 280.513 37.617 284.171 39.752 C 287.833 41.864 289.085 46.549 286.973 50.203 L 91.313 388.993 C 89.897 391.439 87.325 392.818 84.679 392.818 Z"
        fill="#b68b6c"/>
    <path
        id="path_7"
        d="M 249.404 135.023 C 249.049 131.858 246.55 129.36 243.385 129.012 C 240.697 128.708 177.159 122.088 142.617 156.63 C 120.792 178.452 120.792 213.965 142.617 235.794 C 164.435 257.616 199.952 257.616 221.773 235.794 C 256.316 201.253 249.697 137.715 249.404 135.023 Z"
        fill="#67bc45"/>
    <path
        id="path_8"
        d="M 207.575 170.833 L 115.084 248.685 C 114.006 253.799 119.306 259.1 119.306 259.1 C 119.306 259.1 124.602 264.4 129.724 263.325 L 207.575 170.833 Z"
        fill="#559e44"/>
</svg>
